<svg preserveAspectRatio="none" width="100%" height="100%" overflow="visible" style="display: block;" viewBox="0 0 13.3333 20" fill="none" xmlns="http://www.w3.org/2000/svg">
<g id="Frame">
<g id="Vector">
<mask id="path-1-inside-1_0_22" fill="white">
<path d="M10.2353 17.7669C10.2353 17.767 10.2352 17.767 10.2351 17.767C9.84108 17.7025 9.45544 17.5944 9.08532 17.4446C9.00197 17.4236 8.93025 17.3706 8.88569 17.2971C8.84112 17.2237 8.8273 17.1356 8.84722 17.052C8.89265 16.6525 8.82204 16.2485 8.64383 15.8881C8.45738 15.4989 8.15647 15.1759 7.78138 14.9623C7.73416 14.9385 7.6756 14.9785 7.68204 15.031C7.68477 15.0532 7.68752 15.0743 7.6902 15.0956C7.74348 15.5387 7.83224 15.9769 7.95564 16.4058C8.05573 16.7195 8.2748 16.9814 8.56582 17.1353C8.60334 17.1566 8.64381 17.1722 8.68588 17.1815C8.69444 17.1834 8.70328 17.1841 8.71204 17.1845C8.76119 17.187 8.78646 17.2039 8.79905 17.2354C8.81648 17.279 8.76155 17.3179 8.71957 17.2969C8.15636 17.0321 7.64019 16.677 7.19147 16.2458C7.14336 16.1893 7.11303 16.1199 7.10429 16.0463C7.09554 15.9726 7.10878 15.898 7.14233 15.8319C7.34486 15.2694 7.34037 14.6532 7.12967 14.0938C7.0285 13.8 6.87145 13.5286 6.66716 13.2944C6.63706 13.2643 6.58212 13.2854 6.5765 13.3276C6.56026 13.4493 6.54494 13.5634 6.53444 13.6739C6.50582 13.9532 6.47137 14.2346 6.45744 14.5153C6.40653 14.8975 6.49355 15.2854 6.70287 15.6092C6.77522 15.7131 6.86544 15.8032 6.96934 15.8754C7.05812 15.942 6.93766 15.995 6.86206 15.9138C6.82176 15.8704 6.78271 15.8279 6.74492 15.7843C6.40608 15.4055 6.11193 14.9891 5.86829 14.5431C5.83932 14.4771 5.82855 14.4046 5.8371 14.333C5.84565 14.2614 5.87321 14.1934 5.91692 14.1361C6.47795 13.2947 6.46402 12.4183 6.09929 11.5141C6.09286 11.4943 6.07997 11.4806 6.07275 11.4616C6.07181 11.4591 6.07216 11.4578 6.07081 11.4555C6.06307 11.4424 6.03859 11.4562 6.0332 11.4705C5.82418 12.0217 5.55154 12.5475 5.4962 13.1407C5.46916 13.3171 5.47887 13.4973 5.52472 13.6698C5.57057 13.8423 5.65158 14.0035 5.76266 14.1432C5.79497 14.1821 5.78573 14.2508 5.78955 14.3054C5.7901 14.3133 5.78397 14.3217 5.77639 14.324C5.7645 14.3276 5.74996 14.3217 5.744 14.3108L5.62918 14.1006C5.3464 13.5152 5.12552 12.9019 4.97012 12.2706C4.95204 12.2169 4.97021 12.1588 4.99269 12.1067C5.0451 11.9853 5.12618 11.8778 5.22949 11.7939C5.49857 11.5837 5.70279 11.3018 5.81864 10.9806C6.02643 10.4821 6.08725 9.93458 5.99392 9.40263C5.99315 9.39557 5.99165 9.38863 5.98945 9.38192C5.98534 9.3694 5.96587 9.3634 5.95472 9.37043C5.94965 9.37362 5.94995 9.37769 5.94644 9.38255C5.69543 9.73015 5.42408 10.0648 5.18694 10.4262C4.94303 10.7541 4.83506 11.1635 4.88552 11.569C4.89626 11.6549 4.92234 11.7381 4.96252 11.8147C5.0253 11.9024 4.87665 11.8969 4.85534 11.7911C4.83275 11.6791 4.8128 11.5715 4.80143 11.4639C4.7592 11.0383 4.73289 10.6175 4.70414 10.1932C4.69441 10.0496 4.68848 9.89763 4.76499 9.77573C4.8414 9.65398 4.98414 9.59974 5.11244 9.53491C5.42914 9.37488 5.68922 9.11815 5.85309 8.7993C6.08258 8.41467 6.21045 7.97798 6.22466 7.53032V7.45306C6.22466 7.43499 6.19551 7.43109 6.18148 7.44247C6.13321 7.48165 6.08189 7.51755 6.03495 7.55818C5.78242 7.76841 5.52305 7.9718 5.28445 8.19647C4.99387 8.45857 4.81559 8.82266 4.78674 9.21292C4.78078 9.31597 4.78554 9.41936 4.80092 9.52143C4.82191 9.62075 4.68163 9.57795 4.68699 9.47657C4.68744 9.46812 4.688 9.45969 4.68872 9.45126C4.72261 8.828 4.80946 8.20876 4.94834 7.60022C4.96659 7.51694 5.01276 7.4424 5.07919 7.38896C5.14562 7.33552 5.22832 7.30639 5.31358 7.30641C5.68079 7.28484 6.02527 7.12146 6.27431 6.85074C6.58045 6.54824 6.80268 6.17134 6.91918 5.75704C6.92239 5.74547 6.92485 5.73371 6.92653 5.72183C6.92653 5.72056 6.9263 5.7193 6.92593 5.71805C6.92305 5.70835 6.9119 5.6977 6.90225 5.69467C6.8997 5.69387 6.89714 5.69451 6.89468 5.69555C6.53134 5.84918 6.15354 5.98965 5.79762 6.16407C5.64114 6.23609 5.50337 6.3432 5.395 6.47709C5.28663 6.61098 5.21058 6.76805 5.17275 6.9361C5.15508 7.01424 5.14801 7.09441 5.15173 7.17444C5.15655 7.23638 5.13542 7.27249 5.09533 7.30016C5.06503 7.32107 5.01496 7.29346 5.0266 7.25854C5.1786 6.69445 5.3779 6.14429 5.62234 5.61392C5.67283 5.50436 5.73434 5.39081 5.84494 5.34264C5.95553 5.29448 6.07975 5.33162 6.19866 5.35193C6.65256 5.42949 7.03398 5.2423 7.38929 4.95081C7.53548 4.82769 7.66377 4.68525 7.77076 4.52766C7.82562 4.44685 7.76723 4.34286 7.66968 4.34773C7.31933 4.34619 6.97031 4.39098 6.6317 4.48096C6.46717 4.52482 6.31765 4.61255 6.19911 4.73479C6.08058 4.85703 5.99748 5.00918 5.95871 5.17498C5.94868 5.2205 5.92797 5.2433 5.89937 5.25726C5.85795 5.2775 5.81181 5.22323 5.83257 5.18207C6.04163 4.773 6.28218 4.3809 6.55198 4.00931C6.62276 3.91184 6.69987 3.80717 6.81664 3.77758C6.93327 3.74803 7.0483 3.81019 7.16065 3.85323C7.66462 4.04632 8.12906 3.9103 8.56607 3.57545C8.68103 3.47965 8.78858 3.37532 8.88783 3.26336C8.89702 3.253 8.8987 3.23802 8.89095 3.22655C8.88463 3.21718 8.87496 3.21041 8.86378 3.20876C8.81249 3.20122 8.75671 3.1892 8.70639 3.18285C8.4081 3.11062 8.10125 3.07993 7.79455 3.09167C7.61885 3.09416 7.4474 3.14612 7.29988 3.24159C7.15235 3.33705 7.03472 3.47217 6.96047 3.63143C6.92249 3.71538 6.86201 3.5969 6.92099 3.52611C7.00066 3.43049 7.078 3.33863 7.16386 3.25276C7.36092 3.0557 7.55646 2.86751 7.75985 2.67095C7.82747 2.61082 7.92461 2.60677 8.01407 2.59314C8.2137 2.56273 8.40619 2.49474 8.58118 2.39236C8.7954 2.26703 8.97753 2.09359 9.11318 1.88576C9.26701 1.6742 9.38115 1.43648 9.45005 1.18414C9.46232 1.1478 9.41843 1.11532 9.38233 1.1283C9.26461 1.17061 9.14678 1.21236 9.02883 1.25355C8.684 1.3515 8.36704 1.5292 8.10357 1.77228C7.99885 1.86446 7.91661 1.97938 7.86314 2.10823C7.80967 2.23708 7.78638 2.37645 7.79506 2.51569C7.7945 2.52917 7.79115 2.54239 7.78522 2.55451C7.77929 2.56663 7.77091 2.57739 7.76061 2.5861C7.31175 2.98561 6.90366 3.42871 6.54236 3.90886C6.54113 3.91049 6.5401 3.91226 6.53896 3.91396C6.53453 3.92055 6.52707 3.9256 6.51998 3.93104C6.51123 3.93775 6.49476 3.94191 6.48456 3.9377C6.47911 3.93545 6.47765 3.92932 6.47932 3.92366C6.49533 3.86937 6.51859 3.81751 6.54847 3.76949C6.55644 3.75668 6.56592 3.7449 6.57599 3.73367C6.97079 3.29358 7.20122 2.73015 7.22769 2.13905C7.23898 1.87271 7.23628 1.60597 7.21959 1.33992C7.208 1.26696 7.11897 1.24918 7.06817 1.30281C6.97127 1.40509 6.88298 1.49648 6.80596 1.59929C6.50038 1.98151 6.30405 2.43938 6.23783 2.92424C6.20788 3.06943 6.2087 3.21928 6.24024 3.36412C6.27178 3.50897 6.33335 3.64559 6.42096 3.76517C6.43751 3.78723 6.44503 3.81476 6.44199 3.84217C6.4378 3.98455 6.39404 4.12295 6.31559 4.24186C5.98462 4.70065 5.70045 5.19144 5.46733 5.70688L5.4301 5.78133C5.42715 5.78724 5.42177 5.79087 5.41546 5.7889C5.40576 5.78586 5.39789 5.77503 5.39955 5.765C5.40637 5.72355 5.41582 5.68258 5.42783 5.64232C5.43045 5.63353 5.43413 5.62508 5.43857 5.61705C5.71397 5.11821 5.83842 4.54995 5.7966 3.98148C5.77858 3.62792 5.68778 3.28188 5.52989 2.96502C5.51215 2.92817 5.46292 2.92746 5.44011 2.96141C5.4224 2.98775 5.40563 3.01473 5.38982 3.04228C5.07317 3.66069 4.93478 4.35501 4.99013 5.04757C5.0084 5.28266 5.11339 5.50257 5.28471 5.66458C5.32732 5.7072 5.33032 5.77312 5.33001 5.83339C5.32944 5.94282 5.31173 6.05168 5.27736 6.15597C5.06172 6.67673 4.89988 7.21817 4.79437 7.77185C4.79384 7.77461 4.79387 7.77493 4.79344 7.77771C4.78942 7.80429 4.74839 7.78114 4.74666 7.75431C4.74398 7.71273 4.74307 7.67103 4.74393 7.62935C4.78623 7.3135 4.86298 6.99841 4.87691 6.68281C4.90617 6.05295 4.68629 5.437 4.26502 4.9681C4.26198 4.96471 4.25831 4.96194 4.25427 4.95984C4.23234 4.9485 4.20452 4.95913 4.19689 4.9826C4.17059 5.06344 4.13769 5.14022 4.12008 5.22234C3.9856 5.82281 3.98802 6.44586 4.12717 7.04527C4.15225 7.18291 4.20816 7.31309 4.29071 7.42605C4.36716 7.53065 4.46463 7.61797 4.57672 7.68247C4.5946 7.69276 4.61569 7.69854 4.63028 7.71312C4.63762 7.72047 4.643 7.72955 4.64591 7.73953C4.68469 7.86916 4.70356 8.00393 4.70189 8.13922C4.6169 8.73159 4.57011 9.32882 4.56182 9.9272C4.56182 9.93802 4.55753 9.95298 4.55551 9.96577C4.55459 9.97152 4.55117 9.97599 4.54537 9.9765C4.5368 9.97725 4.52342 9.97287 4.52147 9.96449C4.51167 9.92239 4.50414 9.87978 4.4989 9.83686C4.49828 9.83175 4.49818 9.82658 4.49853 9.82144C4.52242 9.47591 4.49389 9.12873 4.4139 8.7917C4.2573 8.22241 3.91526 7.72177 3.44213 7.36897C3.43538 7.36393 3.42966 7.35757 3.42435 7.35103C3.40023 7.32134 3.35753 7.34068 3.34939 7.37805C3.34558 7.3956 3.34276 7.41337 3.34096 7.43128C3.3092 7.92841 3.3783 8.42682 3.5441 8.89656C3.61315 9.0978 3.69994 9.2925 3.80347 9.47837C3.85986 9.59401 3.94139 9.69559 4.0421 9.77566C4.14281 9.85572 4.26015 9.91226 4.38553 9.94113C4.44546 9.95651 4.47827 10.0175 4.50142 10.0749C4.53403 10.1558 4.55639 10.2405 4.5679 10.3271C4.57946 10.9548 4.65465 11.5796 4.79231 12.1921C4.79661 12.204 4.79758 12.2168 4.79512 12.2291C4.7916 12.2469 4.76972 12.2448 4.76279 12.2281C4.75221 12.2025 4.74362 12.1762 4.73709 12.1493C4.66785 11.7456 4.50978 11.3624 4.27433 11.0272C3.98321 10.6141 3.57186 10.3008 3.09628 10.1298C3.08568 10.1245 3.07508 10.123 3.06469 10.1198C3.05763 10.1176 3.05036 10.1155 3.04299 10.1161C3.02373 10.1177 3.01054 10.1348 3.00982 10.1541C3.00748 10.2164 3.01277 10.2788 3.02562 10.3398C3.15432 10.9494 3.44781 11.5121 3.87414 11.9664C3.96779 12.0761 4.08603 12.1621 4.21923 12.2174C4.35243 12.2727 4.4968 12.2957 4.64059 12.2846C4.70697 12.2838 4.7516 12.3464 4.78644 12.4029C4.83497 12.4815 4.87766 12.5637 4.91414 12.6488C5.10965 13.2782 5.36769 13.8864 5.6844 14.4644C5.70157 14.4926 5.71395 14.5256 5.72914 14.5556C5.73497 14.5672 5.7312 14.5819 5.72044 14.589C5.71198 14.5947 5.70077 14.5925 5.69432 14.5846C5.6616 14.5449 5.63251 14.5023 5.6074 14.4573C5.45769 14.14 5.2454 13.8562 4.98329 13.6229C4.60852 13.286 4.1202 13.1032 3.61629 13.1113C3.47571 13.1113 3.46913 13.1252 3.51117 13.2658C3.59356 13.5007 3.71706 13.719 3.87591 13.9107C4.08095 14.1965 4.34666 14.4335 4.65401 14.6047C4.79236 14.6878 4.94871 14.7362 5.10979 14.746C5.27087 14.7557 5.43193 14.7265 5.57928 14.6607C5.6003 14.6538 5.62893 14.647 5.64336 14.6531C5.84254 14.7618 5.96879 14.9611 6.09774 15.1478C6.3732 15.5467 6.68348 15.9207 7.02506 16.2653C7.04021 16.2795 7.05386 16.2953 7.0658 16.3123C7.06667 16.3135 7.06681 16.3137 7.06777 16.3149C7.08322 16.3335 7.04269 16.3565 7.02339 16.3419C6.98968 16.3164 6.95766 16.2887 6.92754 16.2589C6.70004 15.9914 6.40439 15.7903 6.07193 15.6771C5.56676 15.531 5.02591 15.5712 4.54789 15.7903C4.51372 15.8111 4.5094 15.8569 4.53372 15.8887C4.58421 15.9546 4.63815 16.0178 4.6953 16.0781C5.14874 16.5105 5.75136 16.7515 6.3779 16.7511C6.56738 16.7451 6.74878 16.673 6.89056 16.5472C6.94641 16.4917 7.02194 16.4606 7.10067 16.4606C7.17939 16.4606 7.25492 16.4917 7.31077 16.5472C7.68209 16.8739 8.09201 17.1539 8.53137 17.381L8.80679 17.5188C8.81742 17.5241 8.82218 17.5368 8.81839 17.5481C8.81528 17.5573 8.80539 17.5624 8.79588 17.5603C8.75562 17.5514 8.71638 17.5383 8.67879 17.5213C8.33464 17.3031 7.93036 17.1991 7.52363 17.2243C7.1169 17.2494 6.72851 17.4024 6.41387 17.6614C6.28232 17.7575 6.28525 17.9554 6.42853 18.0329C6.43301 18.0353 6.43749 18.0377 6.44199 18.0401C6.95284 18.2851 7.53373 18.3422 8.08254 18.2014C8.21643 18.1712 8.34273 18.114 8.45368 18.0332C8.5105 17.9918 8.56268 17.9447 8.60945 17.8927C8.69847 17.7937 8.76695 17.6632 8.89487 17.6264C8.95941 17.6078 9.02789 17.6078 9.09241 17.6264C9.46568 17.7709 9.85355 17.8743 10.2492 17.9349C10.2656 17.9376 10.2822 17.9396 10.2988 17.9408C10.3363 17.9436 10.3719 17.9172 10.3659 17.8801C10.3626 17.8594 10.3545 17.8398 10.3423 17.8228C10.33 17.8058 10.314 17.7918 10.2954 17.7821C10.2768 17.7724 10.2563 17.7671 10.2354 17.7668C10.2353 17.7668 10.2353 17.7668 10.2353 17.7669Z"/>
</mask>
<path d="M10.2353 17.7669C10.2353 17.767 10.2352 17.767 10.2351 17.767C9.84108 17.7025 9.45544 17.5944 9.08532 17.4446C9.00197 17.4236 8.93025 17.3706 8.88569 17.2971C8.84112 17.2237 8.8273 17.1356 8.84722 17.052C8.89265 16.6525 8.82204 16.2485 8.64383 15.8881C8.45738 15.4989 8.15647 15.1759 7.78138 14.9623C7.73416 14.9385 7.6756 14.9785 7.68204 15.031C7.68477 15.0532 7.68752 15.0743 7.6902 15.0956C7.74348 15.5387 7.83224 15.9769 7.95564 16.4058C8.05573 16.7195 8.2748 16.9814 8.56582 17.1353C8.60334 17.1566 8.64381 17.1722 8.68588 17.1815C8.69444 17.1834 8.70328 17.1841 8.71204 17.1845C8.76119 17.187 8.78646 17.2039 8.79905 17.2354C8.81648 17.279 8.76155 17.3179 8.71957 17.2969C8.15636 17.0321 7.64019 16.677 7.19147 16.2458C7.14336 16.1893 7.11303 16.1199 7.10429 16.0463C7.09554 15.9726 7.10878 15.898 7.14233 15.8319C7.34486 15.2694 7.34037 14.6532 7.12967 14.0938C7.0285 13.8 6.87145 13.5286 6.66716 13.2944C6.63706 13.2643 6.58212 13.2854 6.5765 13.3276C6.56026 13.4493 6.54494 13.5634 6.53444 13.6739C6.50582 13.9532 6.47137 14.2346 6.45744 14.5153C6.40653 14.8975 6.49355 15.2854 6.70287 15.6092C6.77522 15.7131 6.86544 15.8032 6.96934 15.8754C7.05812 15.942 6.93766 15.995 6.86206 15.9138C6.82176 15.8704 6.78271 15.8279 6.74492 15.7843C6.40608 15.4055 6.11193 14.9891 5.86829 14.5431C5.83932 14.4771 5.82855 14.4046 5.8371 14.333C5.84565 14.2614 5.87321 14.1934 5.91692 14.1361C6.47795 13.2947 6.46402 12.4183 6.09929 11.5141C6.09286 11.4943 6.07997 11.4806 6.07275 11.4616C6.07181 11.4591 6.07216 11.4578 6.07081 11.4555C6.06307 11.4424 6.03859 11.4562 6.0332 11.4705C5.82418 12.0217 5.55154 12.5475 5.4962 13.1407C5.46916 13.3171 5.47887 13.4973 5.52472 13.6698C5.57057 13.8423 5.65158 14.0035 5.76266 14.1432C5.79497 14.1821 5.78573 14.2508 5.78955 14.3054C5.7901 14.3133 5.78397 14.3217 5.77639 14.324C5.7645 14.3276 5.74996 14.3217 5.744 14.3108L5.62918 14.1006C5.3464 13.5152 5.12552 12.9019 4.97012 12.2706C4.95204 12.2169 4.97021 12.1588 4.99269 12.1067C5.0451 11.9853 5.12618 11.8778 5.22949 11.7939C5.49857 11.5837 5.70279 11.3018 5.81864 10.9806C6.02643 10.4821 6.08725 9.93458 5.99392 9.40263C5.99315 9.39557 5.99165 9.38863 5.98945 9.38192C5.98534 9.3694 5.96587 9.3634 5.95472 9.37043C5.94965 9.37362 5.94995 9.37769 5.94644 9.38255C5.69543 9.73015 5.42408 10.0648 5.18694 10.4262C4.94303 10.7541 4.83506 11.1635 4.88552 11.569C4.89626 11.6549 4.92234 11.7381 4.96252 11.8147C5.0253 11.9024 4.87665 11.8969 4.85534 11.7911C4.83275 11.6791 4.8128 11.5715 4.80143 11.4639C4.7592 11.0383 4.73289 10.6175 4.70414 10.1932C4.69441 10.0496 4.68848 9.89763 4.76499 9.77573C4.8414 9.65398 4.98414 9.59974 5.11244 9.53491C5.42914 9.37488 5.68922 9.11815 5.85309 8.7993C6.08258 8.41467 6.21045 7.97798 6.22466 7.53032V7.45306C6.22466 7.43499 6.19551 7.43109 6.18148 7.44247C6.13321 7.48165 6.08189 7.51755 6.03495 7.55818C5.78242 7.76841 5.52305 7.9718 5.28445 8.19647C4.99387 8.45857 4.81559 8.82266 4.78674 9.21292C4.78078 9.31597 4.78554 9.41936 4.80092 9.52143C4.82191 9.62075 4.68163 9.57795 4.68699 9.47657C4.68744 9.46812 4.688 9.45969 4.68872 9.45126C4.72261 8.828 4.80946 8.20876 4.94834 7.60022C4.96659 7.51694 5.01276 7.4424 5.07919 7.38896C5.14562 7.33552 5.22832 7.30639 5.31358 7.30641C5.68079 7.28484 6.02527 7.12146 6.27431 6.85074C6.58045 6.54824 6.80268 6.17134 6.91918 5.75704C6.92239 5.74547 6.92485 5.73371 6.92653 5.72183C6.92653 5.72056 6.9263 5.7193 6.92593 5.71805C6.92305 5.70835 6.9119 5.6977 6.90225 5.69467C6.8997 5.69387 6.89714 5.69451 6.89468 5.69555C6.53134 5.84918 6.15354 5.98965 5.79762 6.16407C5.64114 6.23609 5.50337 6.3432 5.395 6.47709C5.28663 6.61098 5.21058 6.76805 5.17275 6.9361C5.15508 7.01424 5.14801 7.09441 5.15173 7.17444C5.15655 7.23638 5.13542 7.27249 5.09533 7.30016C5.06503 7.32107 5.01496 7.29346 5.0266 7.25854C5.1786 6.69445 5.3779 6.14429 5.62234 5.61392C5.67283 5.50436 5.73434 5.39081 5.84494 5.34264C5.95553 5.29448 6.07975 5.33162 6.19866 5.35193C6.65256 5.42949 7.03398 5.2423 7.38929 4.95081C7.53548 4.82769 7.66377 4.68525 7.77076 4.52766C7.82562 4.44685 7.76723 4.34286 7.66968 4.34773C7.31933 4.34619 6.97031 4.39098 6.6317 4.48096C6.46717 4.52482 6.31765 4.61255 6.19911 4.73479C6.08058 4.85703 5.99748 5.00918 5.95871 5.17498C5.94868 5.2205 5.92797 5.2433 5.89937 5.25726C5.85795 5.2775 5.81181 5.22323 5.83257 5.18207C6.04163 4.773 6.28218 4.3809 6.55198 4.00931C6.62276 3.91184 6.69987 3.80717 6.81664 3.77758C6.93327 3.74803 7.0483 3.81019 7.16065 3.85323C7.66462 4.04632 8.12906 3.9103 8.56607 3.57545C8.68103 3.47965 8.78858 3.37532 8.88783 3.26336C8.89702 3.253 8.8987 3.23802 8.89095 3.22655C8.88463 3.21718 8.87496 3.21041 8.86378 3.20876C8.81249 3.20122 8.75671 3.1892 8.70639 3.18285C8.4081 3.11062 8.10125 3.07993 7.79455 3.09167C7.61885 3.09416 7.4474 3.14612 7.29988 3.24159C7.15235 3.33705 7.03472 3.47217 6.96047 3.63143C6.92249 3.71538 6.86201 3.5969 6.92099 3.52611C7.00066 3.43049 7.078 3.33863 7.16386 3.25276C7.36092 3.0557 7.55646 2.86751 7.75985 2.67095C7.82747 2.61082 7.92461 2.60677 8.01407 2.59314C8.2137 2.56273 8.40619 2.49474 8.58118 2.39236C8.7954 2.26703 8.97753 2.09359 9.11318 1.88576C9.26701 1.6742 9.38115 1.43648 9.45005 1.18414C9.46232 1.1478 9.41843 1.11532 9.38233 1.1283C9.26461 1.17061 9.14678 1.21236 9.02883 1.25355C8.684 1.3515 8.36704 1.5292 8.10357 1.77228C7.99885 1.86446 7.91661 1.97938 7.86314 2.10823C7.80967 2.23708 7.78638 2.37645 7.79506 2.51569C7.7945 2.52917 7.79115 2.54239 7.78522 2.55451C7.77929 2.56663 7.77091 2.57739 7.76061 2.5861C7.31175 2.98561 6.90366 3.42871 6.54236 3.90886C6.54113 3.91049 6.5401 3.91226 6.53896 3.91396C6.53453 3.92055 6.52707 3.9256 6.51998 3.93104C6.51123 3.93775 6.49476 3.94191 6.48456 3.9377C6.47911 3.93545 6.47765 3.92932 6.47932 3.92366C6.49533 3.86937 6.51859 3.81751 6.54847 3.76949C6.55644 3.75668 6.56592 3.7449 6.57599 3.73367C6.97079 3.29358 7.20122 2.73015 7.22769 2.13905C7.23898 1.87271 7.23628 1.60597 7.21959 1.33992C7.208 1.26696 7.11897 1.24918 7.06817 1.30281C6.97127 1.40509 6.88298 1.49648 6.80596 1.59929C6.50038 1.98151 6.30405 2.43938 6.23783 2.92424C6.20788 3.06943 6.2087 3.21928 6.24024 3.36412C6.27178 3.50897 6.33335 3.64559 6.42096 3.76517C6.43751 3.78723 6.44503 3.81476 6.44199 3.84217C6.4378 3.98455 6.39404 4.12295 6.31559 4.24186C5.98462 4.70065 5.70045 5.19144 5.46733 5.70688L5.4301 5.78133C5.42715 5.78724 5.42177 5.79087 5.41546 5.7889C5.40576 5.78586 5.39789 5.77503 5.39955 5.765C5.40637 5.72355 5.41582 5.68258 5.42783 5.64232C5.43045 5.63353 5.43413 5.62508 5.43857 5.61705C5.71397 5.11821 5.83842 4.54995 5.7966 3.98148C5.77858 3.62792 5.68778 3.28188 5.52989 2.96502C5.51215 2.92817 5.46292 2.92746 5.44011 2.96141C5.4224 2.98775 5.40563 3.01473 5.38982 3.04228C5.07317 3.66069 4.93478 4.35501 4.99013 5.04757C5.0084 5.28266 5.11339 5.50257 5.28471 5.66458C5.32732 5.7072 5.33032 5.77312 5.33001 5.83339C5.32944 5.94282 5.31173 6.05168 5.27736 6.15597C5.06172 6.67673 4.89988 7.21817 4.79437 7.77185C4.79384 7.77461 4.79387 7.77493 4.79344 7.77771C4.78942 7.80429 4.74839 7.78114 4.74666 7.75431C4.74398 7.71273 4.74307 7.67103 4.74393 7.62935C4.78623 7.3135 4.86298 6.99841 4.87691 6.68281C4.90617 6.05295 4.68629 5.437 4.26502 4.9681C4.26198 4.96471 4.25831 4.96194 4.25427 4.95984C4.23234 4.9485 4.20452 4.95913 4.19689 4.9826C4.17059 5.06344 4.13769 5.14022 4.12008 5.22234C3.9856 5.82281 3.98802 6.44586 4.12717 7.04527C4.15225 7.18291 4.20816 7.31309 4.29071 7.42605C4.36716 7.53065 4.46463 7.61797 4.57672 7.68247C4.5946 7.69276 4.61569 7.69854 4.63028 7.71312C4.63762 7.72047 4.643 7.72955 4.64591 7.73953C4.68469 7.86916 4.70356 8.00393 4.70189 8.13922C4.6169 8.73159 4.57011 9.32882 4.56182 9.9272C4.56182 9.93802 4.55753 9.95298 4.55551 9.96577C4.55459 9.97152 4.55117 9.97599 4.54537 9.9765C4.5368 9.97725 4.52342 9.97287 4.52147 9.96449C4.51167 9.92239 4.50414 9.87978 4.4989 9.83686C4.49828 9.83175 4.49818 9.82658 4.49853 9.82144C4.52242 9.47591 4.49389 9.12873 4.4139 8.7917C4.2573 8.22241 3.91526 7.72177 3.44213 7.36897C3.43538 7.36393 3.42966 7.35757 3.42435 7.35103C3.40023 7.32134 3.35753 7.34068 3.34939 7.37805C3.34558 7.3956 3.34276 7.41337 3.34096 7.43128C3.3092 7.92841 3.3783 8.42682 3.5441 8.89656C3.61315 9.0978 3.69994 9.2925 3.80347 9.47837C3.85986 9.59401 3.94139 9.69559 4.0421 9.77566C4.14281 9.85572 4.26015 9.91226 4.38553 9.94113C4.44546 9.95651 4.47827 10.0175 4.50142 10.0749C4.53403 10.1558 4.55639 10.2405 4.5679 10.3271C4.57946 10.9548 4.65465 11.5796 4.79231 12.1921C4.79661 12.204 4.79758 12.2168 4.79512 12.2291C4.7916 12.2469 4.76972 12.2448 4.76279 12.2281C4.75221 12.2025 4.74362 12.1762 4.73709 12.1493C4.66785 11.7456 4.50978 11.3624 4.27433 11.0272C3.98321 10.6141 3.57186 10.3008 3.09628 10.1298C3.08568 10.1245 3.07508 10.123 3.06469 10.1198C3.05763 10.1176 3.05036 10.1155 3.04299 10.1161C3.02373 10.1177 3.01054 10.1348 3.00982 10.1541C3.00748 10.2164 3.01277 10.2788 3.02562 10.3398C3.15432 10.9494 3.44781 11.5121 3.87414 11.9664C3.96779 12.0761 4.08603 12.1621 4.21923 12.2174C4.35243 12.2727 4.4968 12.2957 4.64059 12.2846C4.70697 12.2838 4.7516 12.3464 4.78644 12.4029C4.83497 12.4815 4.87766 12.5637 4.91414 12.6488C5.10965 13.2782 5.36769 13.8864 5.6844 14.4644C5.70157 14.4926 5.71395 14.5256 5.72914 14.5556C5.73497 14.5672 5.7312 14.5819 5.72044 14.589C5.71198 14.5947 5.70077 14.5925 5.69432 14.5846C5.6616 14.5449 5.63251 14.5023 5.6074 14.4573C5.45769 14.14 5.2454 13.8562 4.98329 13.6229C4.60852 13.286 4.1202 13.1032 3.61629 13.1113C3.47571 13.1113 3.46913 13.1252 3.51117 13.2658C3.59356 13.5007 3.71706 13.719 3.87591 13.9107C4.08095 14.1965 4.34666 14.4335 4.65401 14.6047C4.79236 14.6878 4.94871 14.7362 5.10979 14.746C5.27087 14.7557 5.43193 14.7265 5.57928 14.6607C5.6003 14.6538 5.62893 14.647 5.64336 14.6531C5.84254 14.7618 5.96879 14.9611 6.09774 15.1478C6.3732 15.5467 6.68348 15.9207 7.02506 16.2653C7.04021 16.2795 7.05386 16.2953 7.0658 16.3123C7.06667 16.3135 7.06681 16.3137 7.06777 16.3149C7.08322 16.3335 7.04269 16.3565 7.02339 16.3419C6.98968 16.3164 6.95766 16.2887 6.92754 16.2589C6.70004 15.9914 6.40439 15.7903 6.07193 15.6771C5.56676 15.531 5.02591 15.5712 4.54789 15.7903C4.51372 15.8111 4.5094 15.8569 4.53372 15.8887C4.58421 15.9546 4.63815 16.0178 4.6953 16.0781C5.14874 16.5105 5.75136 16.7515 6.3779 16.7511C6.56738 16.7451 6.74878 16.673 6.89056 16.5472C6.94641 16.4917 7.02194 16.4606 7.10067 16.4606C7.17939 16.4606 7.25492 16.4917 7.31077 16.5472C7.68209 16.8739 8.09201 17.1539 8.53137 17.381L8.80679 17.5188C8.81742 17.5241 8.82218 17.5368 8.81839 17.5481C8.81528 17.5573 8.80539 17.5624 8.79588 17.5603C8.75562 17.5514 8.71638 17.5383 8.67879 17.5213C8.33464 17.3031 7.93036 17.1991 7.52363 17.2243C7.1169 17.2494 6.72851 17.4024 6.41387 17.6614C6.28232 17.7575 6.28525 17.9554 6.42853 18.0329C6.43301 18.0353 6.43749 18.0377 6.44199 18.0401C6.95284 18.2851 7.53373 18.3422 8.08254 18.2014C8.21643 18.1712 8.34273 18.114 8.45368 18.0332C8.5105 17.9918 8.56268 17.9447 8.60945 17.8927C8.69847 17.7937 8.76695 17.6632 8.89487 17.6264C8.95941 17.6078 9.02789 17.6078 9.09241 17.6264C9.46568 17.7709 9.85355 17.8743 10.2492 17.9349C10.2656 17.9376 10.2822 17.9396 10.2988 17.9408C10.3363 17.9436 10.3719 17.9172 10.3659 17.8801C10.3626 17.8594 10.3545 17.8398 10.3423 17.8228C10.33 17.8058 10.314 17.7918 10.2954 17.7821C10.2768 17.7724 10.2563 17.7671 10.2354 17.7668C10.2353 17.7668 10.2353 17.7668 10.2353 17.7669Z" fill="var(--fill-0, white)" fill-opacity="0.1"/>
<path d="M10.2353 17.7669C10.2353 17.767 10.2352 17.767 10.2351 17.767C9.84108 17.7025 9.45544 17.5944 9.08532 17.4446C9.00197 17.4236 8.93025 17.3706 8.88569 17.2971C8.84112 17.2237 8.8273 17.1356 8.84722 17.052C8.89265 16.6525 8.82204 16.2485 8.64383 15.8881C8.45738 15.4989 8.15647 15.1759 7.78138 14.9623C7.73416 14.9385 7.6756 14.9785 7.68204 15.031C7.68477 15.0532 7.68752 15.0743 7.6902 15.0956C7.74348 15.5387 7.83224 15.9769 7.95564 16.4058C8.05573 16.7195 8.2748 16.9814 8.56582 17.1353C8.60334 17.1566 8.64381 17.1722 8.68588 17.1815C8.69444 17.1834 8.70328 17.1841 8.71204 17.1845C8.76119 17.187 8.78646 17.2039 8.79905 17.2354C8.81648 17.279 8.76155 17.3179 8.71957 17.2969C8.15636 17.0321 7.64019 16.677 7.19147 16.2458C7.14336 16.1893 7.11303 16.1199 7.10429 16.0463C7.09554 15.9726 7.10878 15.898 7.14233 15.8319C7.34486 15.2694 7.34037 14.6532 7.12967 14.0938C7.0285 13.8 6.87145 13.5286 6.66716 13.2944C6.63706 13.2643 6.58212 13.2854 6.5765 13.3276C6.56026 13.4493 6.54494 13.5634 6.53444 13.6739C6.50582 13.9532 6.47137 14.2346 6.45744 14.5153C6.40653 14.8975 6.49355 15.2854 6.70287 15.6092C6.77522 15.7131 6.86544 15.8032 6.96934 15.8754C7.05812 15.942 6.93766 15.995 6.86206 15.9138C6.82176 15.8704 6.78271 15.8279 6.74492 15.7843C6.40608 15.4055 6.11193 14.9891 5.86829 14.5431C5.83932 14.4771 5.82855 14.4046 5.8371 14.333C5.84565 14.2614 5.87321 14.1934 5.91692 14.1361C6.47795 13.2947 6.46402 12.4183 6.09929 11.5141C6.09286 11.4943 6.07997 11.4806 6.07275 11.4616C6.07181 11.4591 6.07216 11.4578 6.07081 11.4555C6.06307 11.4424 6.03859 11.4562 6.0332 11.4705C5.82418 12.0217 5.55154 12.5475 5.4962 13.1407C5.46916 13.3171 5.47887 13.4973 5.52472 13.6698C5.57057 13.8423 5.65158 14.0035 5.76266 14.1432C5.79497 14.1821 5.78573 14.2508 5.78955 14.3054C5.7901 14.3133 5.78397 14.3217 5.77639 14.324C5.7645 14.3276 5.74996 14.3217 5.744 14.3108L5.62918 14.1006C5.3464 13.5152 5.12552 12.9019 4.97012 12.2706C4.95204 12.2169 4.97021 12.1588 4.99269 12.1067C5.0451 11.9853 5.12618 11.8778 5.22949 11.7939C5.49857 11.5837 5.70279 11.3018 5.81864 10.9806C6.02643 10.4821 6.08725 9.93458 5.99392 9.40263C5.99315 9.39557 5.99165 9.38863 5.98945 9.38192C5.98534 9.3694 5.96587 9.3634 5.95472 9.37043C5.94965 9.37362 5.94995 9.37769 5.94644 9.38255C5.69543 9.73015 5.42408 10.0648 5.18694 10.4262C4.94303 10.7541 4.83506 11.1635 4.88552 11.569C4.89626 11.6549 4.92234 11.7381 4.96252 11.8147C5.0253 11.9024 4.87665 11.8969 4.85534 11.7911C4.83275 11.6791 4.8128 11.5715 4.80143 11.4639C4.7592 11.0383 4.73289 10.6175 4.70414 10.1932C4.69441 10.0496 4.68848 9.89763 4.76499 9.77573C4.8414 9.65398 4.98414 9.59974 5.11244 9.53491C5.42914 9.37488 5.68922 9.11815 5.85309 8.7993C6.08258 8.41467 6.21045 7.97798 6.22466 7.53032V7.45306C6.22466 7.43499 6.19551 7.43109 6.18148 7.44247C6.13321 7.48165 6.08189 7.51755 6.03495 7.55818C5.78242 7.76841 5.52305 7.9718 5.28445 8.19647C4.99387 8.45857 4.81559 8.82266 4.78674 9.21292C4.78078 9.31597 4.78554 9.41936 4.80092 9.52143C4.82191 9.62075 4.68163 9.57795 4.68699 9.47657C4.68744 9.46812 4.688 9.45969 4.68872 9.45126C4.72261 8.828 4.80946 8.20876 4.94834 7.60022C4.96659 7.51694 5.01276 7.4424 5.07919 7.38896C5.14562 7.33552 5.22832 7.30639 5.31358 7.30641C5.68079 7.28484 6.02527 7.12146 6.27431 6.85074C6.58045 6.54824 6.80268 6.17134 6.91918 5.75704C6.92239 5.74547 6.92485 5.73371 6.92653 5.72183C6.92653 5.72056 6.9263 5.7193 6.92593 5.71805C6.92305 5.70835 6.9119 5.6977 6.90225 5.69467C6.8997 5.69387 6.89714 5.69451 6.89468 5.69555C6.53134 5.84918 6.15354 5.98965 5.79762 6.16407C5.64114 6.23609 5.50337 6.3432 5.395 6.47709C5.28663 6.61098 5.21058 6.76805 5.17275 6.9361C5.15508 7.01424 5.14801 7.09441 5.15173 7.17444C5.15655 7.23638 5.13542 7.27249 5.09533 7.30016C5.06503 7.32107 5.01496 7.29346 5.0266 7.25854C5.1786 6.69445 5.3779 6.14429 5.62234 5.61392C5.67283 5.50436 5.73434 5.39081 5.84494 5.34264C5.95553 5.29448 6.07975 5.33162 6.19866 5.35193C6.65256 5.42949 7.03398 5.2423 7.38929 4.95081C7.53548 4.82769 7.66377 4.68525 7.77076 4.52766C7.82562 4.44685 7.76723 4.34286 7.66968 4.34773C7.31933 4.34619 6.97031 4.39098 6.6317 4.48096C6.46717 4.52482 6.31765 4.61255 6.19911 4.73479C6.08058 4.85703 5.99748 5.00918 5.95871 5.17498C5.94868 5.2205 5.92797 5.2433 5.89937 5.25726C5.85795 5.2775 5.81181 5.22323 5.83257 5.18207C6.04163 4.773 6.28218 4.3809 6.55198 4.00931C6.62276 3.91184 6.69987 3.80717 6.81664 3.77758C6.93327 3.74803 7.0483 3.81019 7.16065 3.85323C7.66462 4.04632 8.12906 3.9103 8.56607 3.57545C8.68103 3.47965 8.78858 3.37532 8.88783 3.26336C8.89702 3.253 8.8987 3.23802 8.89095 3.22655C8.88463 3.21718 8.87496 3.21041 8.86378 3.20876C8.81249 3.20122 8.75671 3.1892 8.70639 3.18285C8.4081 3.11062 8.10125 3.07993 7.79455 3.09167C7.61885 3.09416 7.4474 3.14612 7.29988 3.24159C7.15235 3.33705 7.03472 3.47217 6.96047 3.63143C6.92249 3.71538 6.86201 3.5969 6.92099 3.52611C7.00066 3.43049 7.078 3.33863 7.16386 3.25276C7.36092 3.0557 7.55646 2.86751 7.75985 2.67095C7.82747 2.61082 7.92461 2.60677 8.01407 2.59314C8.2137 2.56273 8.40619 2.49474 8.58118 2.39236C8.7954 2.26703 8.97753 2.09359 9.11318 1.88576C9.26701 1.6742 9.38115 1.43648 9.45005 1.18414C9.46232 1.1478 9.41843 1.11532 9.38233 1.1283C9.26461 1.17061 9.14678 1.21236 9.02883 1.25355C8.684 1.3515 8.36704 1.5292 8.10357 1.77228C7.99885 1.86446 7.91661 1.97938 7.86314 2.10823C7.80967 2.23708 7.78638 2.37645 7.79506 2.51569C7.7945 2.52917 7.79115 2.54239 7.78522 2.55451C7.77929 2.56663 7.77091 2.57739 7.76061 2.5861C7.31175 2.98561 6.90366 3.42871 6.54236 3.90886C6.54113 3.91049 6.5401 3.91226 6.53896 3.91396C6.53453 3.92055 6.52707 3.9256 6.51998 3.93104C6.51123 3.93775 6.49476 3.94191 6.48456 3.9377C6.47911 3.93545 6.47765 3.92932 6.47932 3.92366C6.49533 3.86937 6.51859 3.81751 6.54847 3.76949C6.55644 3.75668 6.56592 3.7449 6.57599 3.73367C6.97079 3.29358 7.20122 2.73015 7.22769 2.13905C7.23898 1.87271 7.23628 1.60597 7.21959 1.33992C7.208 1.26696 7.11897 1.24918 7.06817 1.30281C6.97127 1.40509 6.88298 1.49648 6.80596 1.59929C6.50038 1.98151 6.30405 2.43938 6.23783 2.92424C6.20788 3.06943 6.2087 3.21928 6.24024 3.36412C6.27178 3.50897 6.33335 3.64559 6.42096 3.76517C6.43751 3.78723 6.44503 3.81476 6.44199 3.84217C6.4378 3.98455 6.39404 4.12295 6.31559 4.24186C5.98462 4.70065 5.70045 5.19144 5.46733 5.70688L5.4301 5.78133C5.42715 5.78724 5.42177 5.79087 5.41546 5.7889C5.40576 5.78586 5.39789 5.77503 5.39955 5.765C5.40637 5.72355 5.41582 5.68258 5.42783 5.64232C5.43045 5.63353 5.43413 5.62508 5.43857 5.61705C5.71397 5.11821 5.83842 4.54995 5.7966 3.98148C5.77858 3.62792 5.68778 3.28188 5.52989 2.96502C5.51215 2.92817 5.46292 2.92746 5.44011 2.96141C5.4224 2.98775 5.40563 3.01473 5.38982 3.04228C5.07317 3.66069 4.93478 4.35501 4.99013 5.04757C5.0084 5.28266 5.11339 5.50257 5.28471 5.66458C5.32732 5.7072 5.33032 5.77312 5.33001 5.83339C5.32944 5.94282 5.31173 6.05168 5.27736 6.15597C5.06172 6.67673 4.89988 7.21817 4.79437 7.77185C4.79384 7.77461 4.79387 7.77493 4.79344 7.77771C4.78942 7.80429 4.74839 7.78114 4.74666 7.75431C4.74398 7.71273 4.74307 7.67103 4.74393 7.62935C4.78623 7.3135 4.86298 6.99841 4.87691 6.68281C4.90617 6.05295 4.68629 5.437 4.26502 4.9681C4.26198 4.96471 4.25831 4.96194 4.25427 4.95984C4.23234 4.9485 4.20452 4.95913 4.19689 4.9826C4.17059 5.06344 4.13769 5.14022 4.12008 5.22234C3.9856 5.82281 3.98802 6.44586 4.12717 7.04527C4.15225 7.18291 4.20816 7.31309 4.29071 7.42605C4.36716 7.53065 4.46463 7.61797 4.57672 7.68247C4.5946 7.69276 4.61569 7.69854 4.63028 7.71312C4.63762 7.72047 4.643 7.72955 4.64591 7.73953C4.68469 7.86916 4.70356 8.00393 4.70189 8.13922C4.6169 8.73159 4.57011 9.32882 4.56182 9.9272C4.56182 9.93802 4.55753 9.95298 4.55551 9.96577C4.55459 9.97152 4.55117 9.97599 4.54537 9.9765C4.5368 9.97725 4.52342 9.97287 4.52147 9.96449C4.51167 9.92239 4.50414 9.87978 4.4989 9.83686C4.49828 9.83175 4.49818 9.82658 4.49853 9.82144C4.52242 9.47591 4.49389 9.12873 4.4139 8.7917C4.2573 8.22241 3.91526 7.72177 3.44213 7.36897C3.43538 7.36393 3.42966 7.35757 3.42435 7.35103C3.40023 7.32134 3.35753 7.34068 3.34939 7.37805C3.34558 7.3956 3.34276 7.41337 3.34096 7.43128C3.3092 7.92841 3.3783 8.42682 3.5441 8.89656C3.61315 9.0978 3.69994 9.2925 3.80347 9.47837C3.85986 9.59401 3.94139 9.69559 4.0421 9.77566C4.14281 9.85572 4.26015 9.91226 4.38553 9.94113C4.44546 9.95651 4.47827 10.0175 4.50142 10.0749C4.53403 10.1558 4.55639 10.2405 4.5679 10.3271C4.57946 10.9548 4.65465 11.5796 4.79231 12.1921C4.79661 12.204 4.79758 12.2168 4.79512 12.2291C4.7916 12.2469 4.76972 12.2448 4.76279 12.2281C4.75221 12.2025 4.74362 12.1762 4.73709 12.1493C4.66785 11.7456 4.50978 11.3624 4.27433 11.0272C3.98321 10.6141 3.57186 10.3008 3.09628 10.1298C3.08568 10.1245 3.07508 10.123 3.06469 10.1198C3.05763 10.1176 3.05036 10.1155 3.04299 10.1161C3.02373 10.1177 3.01054 10.1348 3.00982 10.1541C3.00748 10.2164 3.01277 10.2788 3.02562 10.3398C3.15432 10.9494 3.44781 11.5121 3.87414 11.9664C3.96779 12.0761 4.08603 12.1621 4.21923 12.2174C4.35243 12.2727 4.4968 12.2957 4.64059 12.2846C4.70697 12.2838 4.7516 12.3464 4.78644 12.4029C4.83497 12.4815 4.87766 12.5637 4.91414 12.6488C5.10965 13.2782 5.36769 13.8864 5.6844 14.4644C5.70157 14.4926 5.71395 14.5256 5.72914 14.5556C5.73497 14.5672 5.7312 14.5819 5.72044 14.589C5.71198 14.5947 5.70077 14.5925 5.69432 14.5846C5.6616 14.5449 5.63251 14.5023 5.6074 14.4573C5.45769 14.14 5.2454 13.8562 4.98329 13.6229C4.60852 13.286 4.1202 13.1032 3.61629 13.1113C3.47571 13.1113 3.46913 13.1252 3.51117 13.2658C3.59356 13.5007 3.71706 13.719 3.87591 13.9107C4.08095 14.1965 4.34666 14.4335 4.65401 14.6047C4.79236 14.6878 4.94871 14.7362 5.10979 14.746C5.27087 14.7557 5.43193 14.7265 5.57928 14.6607C5.6003 14.6538 5.62893 14.647 5.64336 14.6531C5.84254 14.7618 5.96879 14.9611 6.09774 15.1478C6.3732 15.5467 6.68348 15.9207 7.02506 16.2653C7.04021 16.2795 7.05386 16.2953 7.0658 16.3123C7.06667 16.3135 7.06681 16.3137 7.06777 16.3149C7.08322 16.3335 7.04269 16.3565 7.02339 16.3419C6.98968 16.3164 6.95766 16.2887 6.92754 16.2589C6.70004 15.9914 6.40439 15.7903 6.07193 15.6771C5.56676 15.531 5.02591 15.5712 4.54789 15.7903C4.51372 15.8111 4.5094 15.8569 4.53372 15.8887C4.58421 15.9546 4.63815 16.0178 4.6953 16.0781C5.14874 16.5105 5.75136 16.7515 6.3779 16.7511C6.56738 16.7451 6.74878 16.673 6.89056 16.5472C6.94641 16.4917 7.02194 16.4606 7.10067 16.4606C7.17939 16.4606 7.25492 16.4917 7.31077 16.5472C7.68209 16.8739 8.09201 17.1539 8.53137 17.381L8.80679 17.5188C8.81742 17.5241 8.82218 17.5368 8.81839 17.5481C8.81528 17.5573 8.80539 17.5624 8.79588 17.5603C8.75562 17.5514 8.71638 17.5383 8.67879 17.5213C8.33464 17.3031 7.93036 17.1991 7.52363 17.2243C7.1169 17.2494 6.72851 17.4024 6.41387 17.6614C6.28232 17.7575 6.28525 17.9554 6.42853 18.0329C6.43301 18.0353 6.43749 18.0377 6.44199 18.0401C6.95284 18.2851 7.53373 18.3422 8.08254 18.2014C8.21643 18.1712 8.34273 18.114 8.45368 18.0332C8.5105 17.9918 8.56268 17.9447 8.60945 17.8927C8.69847 17.7937 8.76695 17.6632 8.89487 17.6264C8.95941 17.6078 9.02789 17.6078 9.09241 17.6264C9.46568 17.7709 9.85355 17.8743 10.2492 17.9349C10.2656 17.9376 10.2822 17.9396 10.2988 17.9408C10.3363 17.9436 10.3719 17.9172 10.3659 17.8801C10.3626 17.8594 10.3545 17.8398 10.3423 17.8228C10.33 17.8058 10.314 17.7918 10.2954 17.7821C10.2768 17.7724 10.2563 17.7671 10.2354 17.7668C10.2353 17.7668 10.2353 17.7668 10.2353 17.7669Z" fill="url(#paint0_linear_0_22)" fill-opacity="0.2"/>
<path d="M10.2353 17.7669C10.2353 17.767 10.2352 17.767 10.2351 17.767C9.84108 17.7025 9.45544 17.5944 9.08532 17.4446C9.00197 17.4236 8.93025 17.3706 8.88569 17.2971C8.84112 17.2237 8.8273 17.1356 8.84722 17.052C8.89265 16.6525 8.82204 16.2485 8.64383 15.8881C8.45738 15.4989 8.15647 15.1759 7.78138 14.9623C7.73416 14.9385 7.6756 14.9785 7.68204 15.031C7.68477 15.0532 7.68752 15.0743 7.6902 15.0956C7.74348 15.5387 7.83224 15.9769 7.95564 16.4058C8.05573 16.7195 8.2748 16.9814 8.56582 17.1353C8.60334 17.1566 8.64381 17.1722 8.68588 17.1815C8.69444 17.1834 8.70328 17.1841 8.71204 17.1845C8.76119 17.187 8.78646 17.2039 8.79905 17.2354C8.81648 17.279 8.76155 17.3179 8.71957 17.2969C8.15636 17.0321 7.64019 16.677 7.19147 16.2458C7.14336 16.1893 7.11303 16.1199 7.10429 16.0463C7.09554 15.9726 7.10878 15.898 7.14233 15.8319C7.34486 15.2694 7.34037 14.6532 7.12967 14.0938C7.0285 13.8 6.87145 13.5286 6.66716 13.2944C6.63706 13.2643 6.58212 13.2854 6.5765 13.3276C6.56026 13.4493 6.54494 13.5634 6.53444 13.6739C6.50582 13.9532 6.47137 14.2346 6.45744 14.5153C6.40653 14.8975 6.49355 15.2854 6.70287 15.6092C6.77522 15.7131 6.86544 15.8032 6.96934 15.8754C7.05812 15.942 6.93766 15.995 6.86206 15.9138C6.82176 15.8704 6.78271 15.8279 6.74492 15.7843C6.40608 15.4055 6.11193 14.9891 5.86829 14.5431C5.83932 14.4771 5.82855 14.4046 5.8371 14.333C5.84565 14.2614 5.87321 14.1934 5.91692 14.1361C6.47795 13.2947 6.46402 12.4183 6.09929 11.5141C6.09286 11.4943 6.07997 11.4806 6.07275 11.4616C6.07181 11.4591 6.07216 11.4578 6.07081 11.4555C6.06307 11.4424 6.03859 11.4562 6.0332 11.4705C5.82418 12.0217 5.55154 12.5475 5.4962 13.1407C5.46916 13.3171 5.47887 13.4973 5.52472 13.6698C5.57057 13.8423 5.65158 14.0035 5.76266 14.1432C5.79497 14.1821 5.78573 14.2508 5.78955 14.3054C5.7901 14.3133 5.78397 14.3217 5.77639 14.324C5.7645 14.3276 5.74996 14.3217 5.744 14.3108L5.62918 14.1006C5.3464 13.5152 5.12552 12.9019 4.97012 12.2706C4.95204 12.2169 4.97021 12.1588 4.99269 12.1067C5.0451 11.9853 5.12618 11.8778 5.22949 11.7939C5.49857 11.5837 5.70279 11.3018 5.81864 10.9806C6.02643 10.4821 6.08725 9.93458 5.99392 9.40263C5.99315 9.39557 5.99165 9.38863 5.98945 9.38192C5.98534 9.3694 5.96587 9.3634 5.95472 9.37043C5.94965 9.37362 5.94995 9.37769 5.94644 9.38255C5.69543 9.73015 5.42408 10.0648 5.18694 10.4262C4.94303 10.7541 4.83506 11.1635 4.88552 11.569C4.89626 11.6549 4.92234 11.7381 4.96252 11.8147C5.0253 11.9024 4.87665 11.8969 4.85534 11.7911C4.83275 11.6791 4.8128 11.5715 4.80143 11.4639C4.7592 11.0383 4.73289 10.6175 4.70414 10.1932C4.69441 10.0496 4.68848 9.89763 4.76499 9.77573C4.8414 9.65398 4.98414 9.59974 5.11244 9.53491C5.42914 9.37488 5.68922 9.11815 5.85309 8.7993C6.08258 8.41467 6.21045 7.97798 6.22466 7.53032V7.45306C6.22466 7.43499 6.19551 7.43109 6.18148 7.44247C6.13321 7.48165 6.08189 7.51755 6.03495 7.55818C5.78242 7.76841 5.52305 7.9718 5.28445 8.19647C4.99387 8.45857 4.81559 8.82266 4.78674 9.21292C4.78078 9.31597 4.78554 9.41936 4.80092 9.52143C4.82191 9.62075 4.68163 9.57795 4.68699 9.47657C4.68744 9.46812 4.688 9.45969 4.68872 9.45126C4.72261 8.828 4.80946 8.20876 4.94834 7.60022C4.96659 7.51694 5.01276 7.4424 5.07919 7.38896C5.14562 7.33552 5.22832 7.30639 5.31358 7.30641C5.68079 7.28484 6.02527 7.12146 6.27431 6.85074C6.58045 6.54824 6.80268 6.17134 6.91918 5.75704C6.92239 5.74547 6.92485 5.73371 6.92653 5.72183C6.92653 5.72056 6.9263 5.7193 6.92593 5.71805C6.92305 5.70835 6.9119 5.6977 6.90225 5.69467C6.8997 5.69387 6.89714 5.69451 6.89468 5.69555C6.53134 5.84918 6.15354 5.98965 5.79762 6.16407C5.64114 6.23609 5.50337 6.3432 5.395 6.47709C5.28663 6.61098 5.21058 6.76805 5.17275 6.9361C5.15508 7.01424 5.14801 7.09441 5.15173 7.17444C5.15655 7.23638 5.13542 7.27249 5.09533 7.30016C5.06503 7.32107 5.01496 7.29346 5.0266 7.25854C5.1786 6.69445 5.3779 6.14429 5.62234 5.61392C5.67283 5.50436 5.73434 5.39081 5.84494 5.34264C5.95553 5.29448 6.07975 5.33162 6.19866 5.35193C6.65256 5.42949 7.03398 5.2423 7.38929 4.95081C7.53548 4.82769 7.66377 4.68525 7.77076 4.52766C7.82562 4.44685 7.76723 4.34286 7.66968 4.34773C7.31933 4.34619 6.97031 4.39098 6.6317 4.48096C6.46717 4.52482 6.31765 4.61255 6.19911 4.73479C6.08058 4.85703 5.99748 5.00918 5.95871 5.17498C5.94868 5.2205 5.92797 5.2433 5.89937 5.25726C5.85795 5.2775 5.81181 5.22323 5.83257 5.18207C6.04163 4.773 6.28218 4.3809 6.55198 4.00931C6.62276 3.91184 6.69987 3.80717 6.81664 3.77758C6.93327 3.74803 7.0483 3.81019 7.16065 3.85323C7.66462 4.04632 8.12906 3.9103 8.56607 3.57545C8.68103 3.47965 8.78858 3.37532 8.88783 3.26336C8.89702 3.253 8.8987 3.23802 8.89095 3.22655C8.88463 3.21718 8.87496 3.21041 8.86378 3.20876C8.81249 3.20122 8.75671 3.1892 8.70639 3.18285C8.4081 3.11062 8.10125 3.07993 7.79455 3.09167C7.61885 3.09416 7.4474 3.14612 7.29988 3.24159C7.15235 3.33705 7.03472 3.47217 6.96047 3.63143C6.92249 3.71538 6.86201 3.5969 6.92099 3.52611C7.00066 3.43049 7.078 3.33863 7.16386 3.25276C7.36092 3.0557 7.55646 2.86751 7.75985 2.67095C7.82747 2.61082 7.92461 2.60677 8.01407 2.59314C8.2137 2.56273 8.40619 2.49474 8.58118 2.39236C8.7954 2.26703 8.97753 2.09359 9.11318 1.88576C9.26701 1.6742 9.38115 1.43648 9.45005 1.18414C9.46232 1.1478 9.41843 1.11532 9.38233 1.1283C9.26461 1.17061 9.14678 1.21236 9.02883 1.25355C8.684 1.3515 8.36704 1.5292 8.10357 1.77228C7.99885 1.86446 7.91661 1.97938 7.86314 2.10823C7.80967 2.23708 7.78638 2.37645 7.79506 2.51569C7.7945 2.52917 7.79115 2.54239 7.78522 2.55451C7.77929 2.56663 7.77091 2.57739 7.76061 2.5861C7.31175 2.98561 6.90366 3.42871 6.54236 3.90886C6.54113 3.91049 6.5401 3.91226 6.53896 3.91396C6.53453 3.92055 6.52707 3.9256 6.51998 3.93104C6.51123 3.93775 6.49476 3.94191 6.48456 3.9377C6.47911 3.93545 6.47765 3.92932 6.47932 3.92366C6.49533 3.86937 6.51859 3.81751 6.54847 3.76949C6.55644 3.75668 6.56592 3.7449 6.57599 3.73367C6.97079 3.29358 7.20122 2.73015 7.22769 2.13905C7.23898 1.87271 7.23628 1.60597 7.21959 1.33992C7.208 1.26696 7.11897 1.24918 7.06817 1.30281C6.97127 1.40509 6.88298 1.49648 6.80596 1.59929C6.50038 1.98151 6.30405 2.43938 6.23783 2.92424C6.20788 3.06943 6.2087 3.21928 6.24024 3.36412C6.27178 3.50897 6.33335 3.64559 6.42096 3.76517C6.43751 3.78723 6.44503 3.81476 6.44199 3.84217C6.4378 3.98455 6.39404 4.12295 6.31559 4.24186C5.98462 4.70065 5.70045 5.19144 5.46733 5.70688L5.4301 5.78133C5.42715 5.78724 5.42177 5.79087 5.41546 5.7889C5.40576 5.78586 5.39789 5.77503 5.39955 5.765C5.40637 5.72355 5.41582 5.68258 5.42783 5.64232C5.43045 5.63353 5.43413 5.62508 5.43857 5.61705C5.71397 5.11821 5.83842 4.54995 5.7966 3.98148C5.77858 3.62792 5.68778 3.28188 5.52989 2.96502C5.51215 2.92817 5.46292 2.92746 5.44011 2.96141C5.4224 2.98775 5.40563 3.01473 5.38982 3.04228C5.07317 3.66069 4.93478 4.35501 4.99013 5.04757C5.0084 5.28266 5.11339 5.50257 5.28471 5.66458C5.32732 5.7072 5.33032 5.77312 5.33001 5.83339C5.32944 5.94282 5.31173 6.05168 5.27736 6.15597C5.06172 6.67673 4.89988 7.21817 4.79437 7.77185C4.79384 7.77461 4.79387 7.77493 4.79344 7.77771C4.78942 7.80429 4.74839 7.78114 4.74666 7.75431C4.74398 7.71273 4.74307 7.67103 4.74393 7.62935C4.78623 7.3135 4.86298 6.99841 4.87691 6.68281C4.90617 6.05295 4.68629 5.437 4.26502 4.9681C4.26198 4.96471 4.25831 4.96194 4.25427 4.95984C4.23234 4.9485 4.20452 4.95913 4.19689 4.9826C4.17059 5.06344 4.13769 5.14022 4.12008 5.22234C3.9856 5.82281 3.98802 6.44586 4.12717 7.04527C4.15225 7.18291 4.20816 7.31309 4.29071 7.42605C4.36716 7.53065 4.46463 7.61797 4.57672 7.68247C4.5946 7.69276 4.61569 7.69854 4.63028 7.71312C4.63762 7.72047 4.643 7.72955 4.64591 7.73953C4.68469 7.86916 4.70356 8.00393 4.70189 8.13922C4.6169 8.73159 4.57011 9.32882 4.56182 9.9272C4.56182 9.93802 4.55753 9.95298 4.55551 9.96577C4.55459 9.97152 4.55117 9.97599 4.54537 9.9765C4.5368 9.97725 4.52342 9.97287 4.52147 9.96449C4.51167 9.92239 4.50414 9.87978 4.4989 9.83686C4.49828 9.83175 4.49818 9.82658 4.49853 9.82144C4.52242 9.47591 4.49389 9.12873 4.4139 8.7917C4.2573 8.22241 3.91526 7.72177 3.44213 7.36897C3.43538 7.36393 3.42966 7.35757 3.42435 7.35103C3.40023 7.32134 3.35753 7.34068 3.34939 7.37805C3.34558 7.3956 3.34276 7.41337 3.34096 7.43128C3.3092 7.92841 3.3783 8.42682 3.5441 8.89656C3.61315 9.0978 3.69994 9.2925 3.80347 9.47837C3.85986 9.59401 3.94139 9.69559 4.0421 9.77566C4.14281 9.85572 4.26015 9.91226 4.38553 9.94113C4.44546 9.95651 4.47827 10.0175 4.50142 10.0749C4.53403 10.1558 4.55639 10.2405 4.5679 10.3271C4.57946 10.9548 4.65465 11.5796 4.79231 12.1921C4.79661 12.204 4.79758 12.2168 4.79512 12.2291C4.7916 12.2469 4.76972 12.2448 4.76279 12.2281C4.75221 12.2025 4.74362 12.1762 4.73709 12.1493C4.66785 11.7456 4.50978 11.3624 4.27433 11.0272C3.98321 10.6141 3.57186 10.3008 3.09628 10.1298C3.08568 10.1245 3.07508 10.123 3.06469 10.1198C3.05763 10.1176 3.05036 10.1155 3.04299 10.1161C3.02373 10.1177 3.01054 10.1348 3.00982 10.1541C3.00748 10.2164 3.01277 10.2788 3.02562 10.3398C3.15432 10.9494 3.44781 11.5121 3.87414 11.9664C3.96779 12.0761 4.08603 12.1621 4.21923 12.2174C4.35243 12.2727 4.4968 12.2957 4.64059 12.2846C4.70697 12.2838 4.7516 12.3464 4.78644 12.4029C4.83497 12.4815 4.87766 12.5637 4.91414 12.6488C5.10965 13.2782 5.36769 13.8864 5.6844 14.4644C5.70157 14.4926 5.71395 14.5256 5.72914 14.5556C5.73497 14.5672 5.7312 14.5819 5.72044 14.589C5.71198 14.5947 5.70077 14.5925 5.69432 14.5846C5.6616 14.5449 5.63251 14.5023 5.6074 14.4573C5.45769 14.14 5.2454 13.8562 4.98329 13.6229C4.60852 13.286 4.1202 13.1032 3.61629 13.1113C3.47571 13.1113 3.46913 13.1252 3.51117 13.2658C3.59356 13.5007 3.71706 13.719 3.87591 13.9107C4.08095 14.1965 4.34666 14.4335 4.65401 14.6047C4.79236 14.6878 4.94871 14.7362 5.10979 14.746C5.27087 14.7557 5.43193 14.7265 5.57928 14.6607C5.6003 14.6538 5.62893 14.647 5.64336 14.6531C5.84254 14.7618 5.96879 14.9611 6.09774 15.1478C6.3732 15.5467 6.68348 15.9207 7.02506 16.2653C7.04021 16.2795 7.05386 16.2953 7.0658 16.3123C7.06667 16.3135 7.06681 16.3137 7.06777 16.3149C7.08322 16.3335 7.04269 16.3565 7.02339 16.3419C6.98968 16.3164 6.95766 16.2887 6.92754 16.2589C6.70004 15.9914 6.40439 15.7903 6.07193 15.6771C5.56676 15.531 5.02591 15.5712 4.54789 15.7903C4.51372 15.8111 4.5094 15.8569 4.53372 15.8887C4.58421 15.9546 4.63815 16.0178 4.6953 16.0781C5.14874 16.5105 5.75136 16.7515 6.3779 16.7511C6.56738 16.7451 6.74878 16.673 6.89056 16.5472C6.94641 16.4917 7.02194 16.4606 7.10067 16.4606C7.17939 16.4606 7.25492 16.4917 7.31077 16.5472C7.68209 16.8739 8.09201 17.1539 8.53137 17.381L8.80679 17.5188C8.81742 17.5241 8.82218 17.5368 8.81839 17.5481C8.81528 17.5573 8.80539 17.5624 8.79588 17.5603C8.75562 17.5514 8.71638 17.5383 8.67879 17.5213C8.33464 17.3031 7.93036 17.1991 7.52363 17.2243C7.1169 17.2494 6.72851 17.4024 6.41387 17.6614C6.28232 17.7575 6.28525 17.9554 6.42853 18.0329C6.43301 18.0353 6.43749 18.0377 6.44199 18.0401C6.95284 18.2851 7.53373 18.3422 8.08254 18.2014C8.21643 18.1712 8.34273 18.114 8.45368 18.0332C8.5105 17.9918 8.56268 17.9447 8.60945 17.8927C8.69847 17.7937 8.76695 17.6632 8.89487 17.6264C8.95941 17.6078 9.02789 17.6078 9.09241 17.6264C9.46568 17.7709 9.85355 17.8743 10.2492 17.9349C10.2656 17.9376 10.2822 17.9396 10.2988 17.9408C10.3363 17.9436 10.3719 17.9172 10.3659 17.8801C10.3626 17.8594 10.3545 17.8398 10.3423 17.8228C10.33 17.8058 10.314 17.7918 10.2954 17.7821C10.2768 17.7724 10.2563 17.7671 10.2354 17.7668C10.2353 17.7668 10.2353 17.7668 10.2353 17.7669Z" fill="url(#paint1_linear_0_22)" fill-opacity="0.6"/>
<path d="M10.2353 17.7669C10.2353 17.767 10.2352 17.767 10.2351 17.767C9.84108 17.7025 9.45544 17.5944 9.08532 17.4446C9.00197 17.4236 8.93025 17.3706 8.88569 17.2971C8.84112 17.2237 8.8273 17.1356 8.84722 17.052C8.89265 16.6525 8.82204 16.2485 8.64383 15.8881C8.45738 15.4989 8.15647 15.1759 7.78138 14.9623C7.73416 14.9385 7.6756 14.9785 7.68204 15.031C7.68477 15.0532 7.68752 15.0743 7.6902 15.0956C7.74348 15.5387 7.83224 15.9769 7.95564 16.4058C8.05573 16.7195 8.2748 16.9814 8.56582 17.1353C8.60334 17.1566 8.64381 17.1722 8.68588 17.1815C8.69444 17.1834 8.70328 17.1841 8.71204 17.1845C8.76119 17.187 8.78646 17.2039 8.79905 17.2354C8.81648 17.279 8.76155 17.3179 8.71957 17.2969C8.15636 17.0321 7.64019 16.677 7.19147 16.2458C7.14336 16.1893 7.11303 16.1199 7.10429 16.0463C7.09554 15.9726 7.10878 15.898 7.14233 15.8319C7.34486 15.2694 7.34037 14.6532 7.12967 14.0938C7.0285 13.8 6.87145 13.5286 6.66716 13.2944C6.63706 13.2643 6.58212 13.2854 6.5765 13.3276C6.56026 13.4493 6.54494 13.5634 6.53444 13.6739C6.50582 13.9532 6.47137 14.2346 6.45744 14.5153C6.40653 14.8975 6.49355 15.2854 6.70287 15.6092C6.77522 15.7131 6.86544 15.8032 6.96934 15.8754C7.05812 15.942 6.93766 15.995 6.86206 15.9138C6.82176 15.8704 6.78271 15.8279 6.74492 15.7843C6.40608 15.4055 6.11193 14.9891 5.86829 14.5431C5.83932 14.4771 5.82855 14.4046 5.8371 14.333C5.84565 14.2614 5.87321 14.1934 5.91692 14.1361C6.47795 13.2947 6.46402 12.4183 6.09929 11.5141C6.09286 11.4943 6.07997 11.4806 6.07275 11.4616C6.07181 11.4591 6.07216 11.4578 6.07081 11.4555C6.06307 11.4424 6.03859 11.4562 6.0332 11.4705C5.82418 12.0217 5.55154 12.5475 5.4962 13.1407C5.46916 13.3171 5.47887 13.4973 5.52472 13.6698C5.57057 13.8423 5.65158 14.0035 5.76266 14.1432C5.79497 14.1821 5.78573 14.2508 5.78955 14.3054C5.7901 14.3133 5.78397 14.3217 5.77639 14.324C5.7645 14.3276 5.74996 14.3217 5.744 14.3108L5.62918 14.1006C5.3464 13.5152 5.12552 12.9019 4.97012 12.2706C4.95204 12.2169 4.97021 12.1588 4.99269 12.1067C5.0451 11.9853 5.12618 11.8778 5.22949 11.7939C5.49857 11.5837 5.70279 11.3018 5.81864 10.9806C6.02643 10.4821 6.08725 9.93458 5.99392 9.40263C5.99315 9.39557 5.99165 9.38863 5.98945 9.38192C5.98534 9.3694 5.96587 9.3634 5.95472 9.37043C5.94965 9.37362 5.94995 9.37769 5.94644 9.38255C5.69543 9.73015 5.42408 10.0648 5.18694 10.4262C4.94303 10.7541 4.83506 11.1635 4.88552 11.569C4.89626 11.6549 4.92234 11.7381 4.96252 11.8147C5.0253 11.9024 4.87665 11.8969 4.85534 11.7911C4.83275 11.6791 4.8128 11.5715 4.80143 11.4639C4.7592 11.0383 4.73289 10.6175 4.70414 10.1932C4.69441 10.0496 4.68848 9.89763 4.76499 9.77573C4.8414 9.65398 4.98414 9.59974 5.11244 9.53491C5.42914 9.37488 5.68922 9.11815 5.85309 8.7993C6.08258 8.41467 6.21045 7.97798 6.22466 7.53032V7.45306C6.22466 7.43499 6.19551 7.43109 6.18148 7.44247C6.13321 7.48165 6.08189 7.51755 6.03495 7.55818C5.78242 7.76841 5.52305 7.9718 5.28445 8.19647C4.99387 8.45857 4.81559 8.82266 4.78674 9.21292C4.78078 9.31597 4.78554 9.41936 4.80092 9.52143C4.82191 9.62075 4.68163 9.57795 4.68699 9.47657C4.68744 9.46812 4.688 9.45969 4.68872 9.45126C4.72261 8.828 4.80946 8.20876 4.94834 7.60022C4.96659 7.51694 5.01276 7.4424 5.07919 7.38896C5.14562 7.33552 5.22832 7.30639 5.31358 7.30641C5.68079 7.28484 6.02527 7.12146 6.27431 6.85074C6.58045 6.54824 6.80268 6.17134 6.91918 5.75704C6.92239 5.74547 6.92485 5.73371 6.92653 5.72183C6.92653 5.72056 6.9263 5.7193 6.92593 5.71805C6.92305 5.70835 6.9119 5.6977 6.90225 5.69467C6.8997 5.69387 6.89714 5.69451 6.89468 5.69555C6.53134 5.84918 6.15354 5.98965 5.79762 6.16407C5.64114 6.23609 5.50337 6.3432 5.395 6.47709C5.28663 6.61098 5.21058 6.76805 5.17275 6.9361C5.15508 7.01424 5.14801 7.09441 5.15173 7.17444C5.15655 7.23638 5.13542 7.27249 5.09533 7.30016C5.06503 7.32107 5.01496 7.29346 5.0266 7.25854C5.1786 6.69445 5.3779 6.14429 5.62234 5.61392C5.67283 5.50436 5.73434 5.39081 5.84494 5.34264C5.95553 5.29448 6.07975 5.33162 6.19866 5.35193C6.65256 5.42949 7.03398 5.2423 7.38929 4.95081C7.53548 4.82769 7.66377 4.68525 7.77076 4.52766C7.82562 4.44685 7.76723 4.34286 7.66968 4.34773C7.31933 4.34619 6.97031 4.39098 6.6317 4.48096C6.46717 4.52482 6.31765 4.61255 6.19911 4.73479C6.08058 4.85703 5.99748 5.00918 5.95871 5.17498C5.94868 5.2205 5.92797 5.2433 5.89937 5.25726C5.85795 5.2775 5.81181 5.22323 5.83257 5.18207C6.04163 4.773 6.28218 4.3809 6.55198 4.00931C6.62276 3.91184 6.69987 3.80717 6.81664 3.77758C6.93327 3.74803 7.0483 3.81019 7.16065 3.85323C7.66462 4.04632 8.12906 3.9103 8.56607 3.57545C8.68103 3.47965 8.78858 3.37532 8.88783 3.26336C8.89702 3.253 8.8987 3.23802 8.89095 3.22655C8.88463 3.21718 8.87496 3.21041 8.86378 3.20876C8.81249 3.20122 8.75671 3.1892 8.70639 3.18285C8.4081 3.11062 8.10125 3.07993 7.79455 3.09167C7.61885 3.09416 7.4474 3.14612 7.29988 3.24159C7.15235 3.33705 7.03472 3.47217 6.96047 3.63143C6.92249 3.71538 6.86201 3.5969 6.92099 3.52611C7.00066 3.43049 7.078 3.33863 7.16386 3.25276C7.36092 3.0557 7.55646 2.86751 7.75985 2.67095C7.82747 2.61082 7.92461 2.60677 8.01407 2.59314C8.2137 2.56273 8.40619 2.49474 8.58118 2.39236C8.7954 2.26703 8.97753 2.09359 9.11318 1.88576C9.26701 1.6742 9.38115 1.43648 9.45005 1.18414C9.46232 1.1478 9.41843 1.11532 9.38233 1.1283C9.26461 1.17061 9.14678 1.21236 9.02883 1.25355C8.684 1.3515 8.36704 1.5292 8.10357 1.77228C7.99885 1.86446 7.91661 1.97938 7.86314 2.10823C7.80967 2.23708 7.78638 2.37645 7.79506 2.51569C7.7945 2.52917 7.79115 2.54239 7.78522 2.55451C7.77929 2.56663 7.77091 2.57739 7.76061 2.5861C7.31175 2.98561 6.90366 3.42871 6.54236 3.90886C6.54113 3.91049 6.5401 3.91226 6.53896 3.91396C6.53453 3.92055 6.52707 3.9256 6.51998 3.93104C6.51123 3.93775 6.49476 3.94191 6.48456 3.9377C6.47911 3.93545 6.47765 3.92932 6.47932 3.92366C6.49533 3.86937 6.51859 3.81751 6.54847 3.76949C6.55644 3.75668 6.56592 3.7449 6.57599 3.73367C6.97079 3.29358 7.20122 2.73015 7.22769 2.13905C7.23898 1.87271 7.23628 1.60597 7.21959 1.33992C7.208 1.26696 7.11897 1.24918 7.06817 1.30281C6.97127 1.40509 6.88298 1.49648 6.80596 1.59929C6.50038 1.98151 6.30405 2.43938 6.23783 2.92424C6.20788 3.06943 6.2087 3.21928 6.24024 3.36412C6.27178 3.50897 6.33335 3.64559 6.42096 3.76517C6.43751 3.78723 6.44503 3.81476 6.44199 3.84217C6.4378 3.98455 6.39404 4.12295 6.31559 4.24186C5.98462 4.70065 5.70045 5.19144 5.46733 5.70688L5.4301 5.78133C5.42715 5.78724 5.42177 5.79087 5.41546 5.7889C5.40576 5.78586 5.39789 5.77503 5.39955 5.765C5.40637 5.72355 5.41582 5.68258 5.42783 5.64232C5.43045 5.63353 5.43413 5.62508 5.43857 5.61705C5.71397 5.11821 5.83842 4.54995 5.7966 3.98148C5.77858 3.62792 5.68778 3.28188 5.52989 2.96502C5.51215 2.92817 5.46292 2.92746 5.44011 2.96141C5.4224 2.98775 5.40563 3.01473 5.38982 3.04228C5.07317 3.66069 4.93478 4.35501 4.99013 5.04757C5.0084 5.28266 5.11339 5.50257 5.28471 5.66458C5.32732 5.7072 5.33032 5.77312 5.33001 5.83339C5.32944 5.94282 5.31173 6.05168 5.27736 6.15597C5.06172 6.67673 4.89988 7.21817 4.79437 7.77185C4.79384 7.77461 4.79387 7.77493 4.79344 7.77771C4.78942 7.80429 4.74839 7.78114 4.74666 7.75431C4.74398 7.71273 4.74307 7.67103 4.74393 7.62935C4.78623 7.3135 4.86298 6.99841 4.87691 6.68281C4.90617 6.05295 4.68629 5.437 4.26502 4.9681C4.26198 4.96471 4.25831 4.96194 4.25427 4.95984C4.23234 4.9485 4.20452 4.95913 4.19689 4.9826C4.17059 5.06344 4.13769 5.14022 4.12008 5.22234C3.9856 5.82281 3.98802 6.44586 4.12717 7.04527C4.15225 7.18291 4.20816 7.31309 4.29071 7.42605C4.36716 7.53065 4.46463 7.61797 4.57672 7.68247C4.5946 7.69276 4.61569 7.69854 4.63028 7.71312C4.63762 7.72047 4.643 7.72955 4.64591 7.73953C4.68469 7.86916 4.70356 8.00393 4.70189 8.13922C4.6169 8.73159 4.57011 9.32882 4.56182 9.9272C4.56182 9.93802 4.55753 9.95298 4.55551 9.96577C4.55459 9.97152 4.55117 9.97599 4.54537 9.9765C4.5368 9.97725 4.52342 9.97287 4.52147 9.96449C4.51167 9.92239 4.50414 9.87978 4.4989 9.83686C4.49828 9.83175 4.49818 9.82658 4.49853 9.82144C4.52242 9.47591 4.49389 9.12873 4.4139 8.7917C4.2573 8.22241 3.91526 7.72177 3.44213 7.36897C3.43538 7.36393 3.42966 7.35757 3.42435 7.35103C3.40023 7.32134 3.35753 7.34068 3.34939 7.37805C3.34558 7.3956 3.34276 7.41337 3.34096 7.43128C3.3092 7.92841 3.3783 8.42682 3.5441 8.89656C3.61315 9.0978 3.69994 9.2925 3.80347 9.47837C3.85986 9.59401 3.94139 9.69559 4.0421 9.77566C4.14281 9.85572 4.26015 9.91226 4.38553 9.94113C4.44546 9.95651 4.47827 10.0175 4.50142 10.0749C4.53403 10.1558 4.55639 10.2405 4.5679 10.3271C4.57946 10.9548 4.65465 11.5796 4.79231 12.1921C4.79661 12.204 4.79758 12.2168 4.79512 12.2291C4.7916 12.2469 4.76972 12.2448 4.76279 12.2281C4.75221 12.2025 4.74362 12.1762 4.73709 12.1493C4.66785 11.7456 4.50978 11.3624 4.27433 11.0272C3.98321 10.6141 3.57186 10.3008 3.09628 10.1298C3.08568 10.1245 3.07508 10.123 3.06469 10.1198C3.05763 10.1176 3.05036 10.1155 3.04299 10.1161C3.02373 10.1177 3.01054 10.1348 3.00982 10.1541C3.00748 10.2164 3.01277 10.2788 3.02562 10.3398C3.15432 10.9494 3.44781 11.5121 3.87414 11.9664C3.96779 12.0761 4.08603 12.1621 4.21923 12.2174C4.35243 12.2727 4.4968 12.2957 4.64059 12.2846C4.70697 12.2838 4.7516 12.3464 4.78644 12.4029C4.83497 12.4815 4.87766 12.5637 4.91414 12.6488C5.10965 13.2782 5.36769 13.8864 5.6844 14.4644C5.70157 14.4926 5.71395 14.5256 5.72914 14.5556C5.73497 14.5672 5.7312 14.5819 5.72044 14.589C5.71198 14.5947 5.70077 14.5925 5.69432 14.5846C5.6616 14.5449 5.63251 14.5023 5.6074 14.4573C5.45769 14.14 5.2454 13.8562 4.98329 13.6229C4.60852 13.286 4.1202 13.1032 3.61629 13.1113C3.47571 13.1113 3.46913 13.1252 3.51117 13.2658C3.59356 13.5007 3.71706 13.719 3.87591 13.9107C4.08095 14.1965 4.34666 14.4335 4.65401 14.6047C4.79236 14.6878 4.94871 14.7362 5.10979 14.746C5.27087 14.7557 5.43193 14.7265 5.57928 14.6607C5.6003 14.6538 5.62893 14.647 5.64336 14.6531C5.84254 14.7618 5.96879 14.9611 6.09774 15.1478C6.3732 15.5467 6.68348 15.9207 7.02506 16.2653C7.04021 16.2795 7.05386 16.2953 7.0658 16.3123C7.06667 16.3135 7.06681 16.3137 7.06777 16.3149C7.08322 16.3335 7.04269 16.3565 7.02339 16.3419C6.98968 16.3164 6.95766 16.2887 6.92754 16.2589C6.70004 15.9914 6.40439 15.7903 6.07193 15.6771C5.56676 15.531 5.02591 15.5712 4.54789 15.7903C4.51372 15.8111 4.5094 15.8569 4.53372 15.8887C4.58421 15.9546 4.63815 16.0178 4.6953 16.0781C5.14874 16.5105 5.75136 16.7515 6.3779 16.7511C6.56738 16.7451 6.74878 16.673 6.89056 16.5472C6.94641 16.4917 7.02194 16.4606 7.10067 16.4606C7.17939 16.4606 7.25492 16.4917 7.31077 16.5472C7.68209 16.8739 8.09201 17.1539 8.53137 17.381L8.80679 17.5188C8.81742 17.5241 8.82218 17.5368 8.81839 17.5481C8.81528 17.5573 8.80539 17.5624 8.79588 17.5603C8.75562 17.5514 8.71638 17.5383 8.67879 17.5213C8.33464 17.3031 7.93036 17.1991 7.52363 17.2243C7.1169 17.2494 6.72851 17.4024 6.41387 17.6614C6.28232 17.7575 6.28525 17.9554 6.42853 18.0329C6.43301 18.0353 6.43749 18.0377 6.44199 18.0401C6.95284 18.2851 7.53373 18.3422 8.08254 18.2014C8.21643 18.1712 8.34273 18.114 8.45368 18.0332C8.5105 17.9918 8.56268 17.9447 8.60945 17.8927C8.69847 17.7937 8.76695 17.6632 8.89487 17.6264C8.95941 17.6078 9.02789 17.6078 9.09241 17.6264C9.46568 17.7709 9.85355 17.8743 10.2492 17.9349C10.2656 17.9376 10.2822 17.9396 10.2988 17.9408C10.3363 17.9436 10.3719 17.9172 10.3659 17.8801C10.3626 17.8594 10.3545 17.8398 10.3423 17.8228C10.33 17.8058 10.314 17.7918 10.2954 17.7821C10.2768 17.7724 10.2563 17.7671 10.2354 17.7668C10.2353 17.7668 10.2353 17.7668 10.2353 17.7669Z" fill="url(#paint2_linear_0_22)" fill-opacity="0.12"/>
<path d="M10.2353 17.7669C10.2353 17.767 10.2352 17.767 10.2351 17.767C9.84108 17.7025 9.45544 17.5944 9.08532 17.4446C9.00197 17.4236 8.93025 17.3706 8.88569 17.2971C8.84112 17.2237 8.8273 17.1356 8.84722 17.052C8.89265 16.6525 8.82204 16.2485 8.64383 15.8881C8.45738 15.4989 8.15647 15.1759 7.78138 14.9623C7.73416 14.9385 7.6756 14.9785 7.68204 15.031C7.68477 15.0532 7.68752 15.0743 7.6902 15.0956C7.74348 15.5387 7.83224 15.9769 7.95564 16.4058C8.05573 16.7195 8.2748 16.9814 8.56582 17.1353C8.60334 17.1566 8.64381 17.1722 8.68588 17.1815C8.69444 17.1834 8.70328 17.1841 8.71204 17.1845C8.76119 17.187 8.78646 17.2039 8.79905 17.2354C8.81648 17.279 8.76155 17.3179 8.71957 17.2969C8.15636 17.0321 7.64019 16.677 7.19147 16.2458C7.14336 16.1893 7.11303 16.1199 7.10429 16.0463C7.09554 15.9726 7.10878 15.898 7.14233 15.8319C7.34486 15.2694 7.34037 14.6532 7.12967 14.0938C7.0285 13.8 6.87145 13.5286 6.66716 13.2944C6.63706 13.2643 6.58212 13.2854 6.5765 13.3276C6.56026 13.4493 6.54494 13.5634 6.53444 13.6739C6.50582 13.9532 6.47137 14.2346 6.45744 14.5153C6.40653 14.8975 6.49355 15.2854 6.70287 15.6092C6.77522 15.7131 6.86544 15.8032 6.96934 15.8754C7.05812 15.942 6.93766 15.995 6.86206 15.9138C6.82176 15.8704 6.78271 15.8279 6.74492 15.7843C6.40608 15.4055 6.11193 14.9891 5.86829 14.5431C5.83932 14.4771 5.82855 14.4046 5.8371 14.333C5.84565 14.2614 5.87321 14.1934 5.91692 14.1361C6.47795 13.2947 6.46402 12.4183 6.09929 11.5141C6.09286 11.4943 6.07997 11.4806 6.07275 11.4616C6.07181 11.4591 6.07216 11.4578 6.07081 11.4555C6.06307 11.4424 6.03859 11.4562 6.0332 11.4705C5.82418 12.0217 5.55154 12.5475 5.4962 13.1407C5.46916 13.3171 5.47887 13.4973 5.52472 13.6698C5.57057 13.8423 5.65158 14.0035 5.76266 14.1432C5.79497 14.1821 5.78573 14.2508 5.78955 14.3054C5.7901 14.3133 5.78397 14.3217 5.77639 14.324C5.7645 14.3276 5.74996 14.3217 5.744 14.3108L5.62918 14.1006C5.3464 13.5152 5.12552 12.9019 4.97012 12.2706C4.95204 12.2169 4.97021 12.1588 4.99269 12.1067C5.0451 11.9853 5.12618 11.8778 5.22949 11.7939C5.49857 11.5837 5.70279 11.3018 5.81864 10.9806C6.02643 10.4821 6.08725 9.93458 5.99392 9.40263C5.99315 9.39557 5.99165 9.38863 5.98945 9.38192C5.98534 9.3694 5.96587 9.3634 5.95472 9.37043C5.94965 9.37362 5.94995 9.37769 5.94644 9.38255C5.69543 9.73015 5.42408 10.0648 5.18694 10.4262C4.94303 10.7541 4.83506 11.1635 4.88552 11.569C4.89626 11.6549 4.92234 11.7381 4.96252 11.8147C5.0253 11.9024 4.87665 11.8969 4.85534 11.7911C4.83275 11.6791 4.8128 11.5715 4.80143 11.4639C4.7592 11.0383 4.73289 10.6175 4.70414 10.1932C4.69441 10.0496 4.68848 9.89763 4.76499 9.77573C4.8414 9.65398 4.98414 9.59974 5.11244 9.53491C5.42914 9.37488 5.68922 9.11815 5.85309 8.7993C6.08258 8.41467 6.21045 7.97798 6.22466 7.53032V7.45306C6.22466 7.43499 6.19551 7.43109 6.18148 7.44247C6.13321 7.48165 6.08189 7.51755 6.03495 7.55818C5.78242 7.76841 5.52305 7.9718 5.28445 8.19647C4.99387 8.45857 4.81559 8.82266 4.78674 9.21292C4.78078 9.31597 4.78554 9.41936 4.80092 9.52143C4.82191 9.62075 4.68163 9.57795 4.68699 9.47657C4.68744 9.46812 4.688 9.45969 4.68872 9.45126C4.72261 8.828 4.80946 8.20876 4.94834 7.60022C4.96659 7.51694 5.01276 7.4424 5.07919 7.38896C5.14562 7.33552 5.22832 7.30639 5.31358 7.30641C5.68079 7.28484 6.02527 7.12146 6.27431 6.85074C6.58045 6.54824 6.80268 6.17134 6.91918 5.75704C6.92239 5.74547 6.92485 5.73371 6.92653 5.72183C6.92653 5.72056 6.9263 5.7193 6.92593 5.71805C6.92305 5.70835 6.9119 5.6977 6.90225 5.69467C6.8997 5.69387 6.89714 5.69451 6.89468 5.69555C6.53134 5.84918 6.15354 5.98965 5.79762 6.16407C5.64114 6.23609 5.50337 6.3432 5.395 6.47709C5.28663 6.61098 5.21058 6.76805 5.17275 6.9361C5.15508 7.01424 5.14801 7.09441 5.15173 7.17444C5.15655 7.23638 5.13542 7.27249 5.09533 7.30016C5.06503 7.32107 5.01496 7.29346 5.0266 7.25854C5.1786 6.69445 5.3779 6.14429 5.62234 5.61392C5.67283 5.50436 5.73434 5.39081 5.84494 5.34264C5.95553 5.29448 6.07975 5.33162 6.19866 5.35193C6.65256 5.42949 7.03398 5.2423 7.38929 4.95081C7.53548 4.82769 7.66377 4.68525 7.77076 4.52766C7.82562 4.44685 7.76723 4.34286 7.66968 4.34773C7.31933 4.34619 6.97031 4.39098 6.6317 4.48096C6.46717 4.52482 6.31765 4.61255 6.19911 4.73479C6.08058 4.85703 5.99748 5.00918 5.95871 5.17498C5.94868 5.2205 5.92797 5.2433 5.89937 5.25726C5.85795 5.2775 5.81181 5.22323 5.83257 5.18207C6.04163 4.773 6.28218 4.3809 6.55198 4.00931C6.62276 3.91184 6.69987 3.80717 6.81664 3.77758C6.93327 3.74803 7.0483 3.81019 7.16065 3.85323C7.66462 4.04632 8.12906 3.9103 8.56607 3.57545C8.68103 3.47965 8.78858 3.37532 8.88783 3.26336C8.89702 3.253 8.8987 3.23802 8.89095 3.22655C8.88463 3.21718 8.87496 3.21041 8.86378 3.20876C8.81249 3.20122 8.75671 3.1892 8.70639 3.18285C8.4081 3.11062 8.10125 3.07993 7.79455 3.09167C7.61885 3.09416 7.4474 3.14612 7.29988 3.24159C7.15235 3.33705 7.03472 3.47217 6.96047 3.63143C6.92249 3.71538 6.86201 3.5969 6.92099 3.52611C7.00066 3.43049 7.078 3.33863 7.16386 3.25276C7.36092 3.0557 7.55646 2.86751 7.75985 2.67095C7.82747 2.61082 7.92461 2.60677 8.01407 2.59314C8.2137 2.56273 8.40619 2.49474 8.58118 2.39236C8.7954 2.26703 8.97753 2.09359 9.11318 1.88576C9.26701 1.6742 9.38115 1.43648 9.45005 1.18414C9.46232 1.1478 9.41843 1.11532 9.38233 1.1283C9.26461 1.17061 9.14678 1.21236 9.02883 1.25355C8.684 1.3515 8.36704 1.5292 8.10357 1.77228C7.99885 1.86446 7.91661 1.97938 7.86314 2.10823C7.80967 2.23708 7.78638 2.37645 7.79506 2.51569C7.7945 2.52917 7.79115 2.54239 7.78522 2.55451C7.77929 2.56663 7.77091 2.57739 7.76061 2.5861C7.31175 2.98561 6.90366 3.42871 6.54236 3.90886C6.54113 3.91049 6.5401 3.91226 6.53896 3.91396C6.53453 3.92055 6.52707 3.9256 6.51998 3.93104C6.51123 3.93775 6.49476 3.94191 6.48456 3.9377C6.47911 3.93545 6.47765 3.92932 6.47932 3.92366C6.49533 3.86937 6.51859 3.81751 6.54847 3.76949C6.55644 3.75668 6.56592 3.7449 6.57599 3.73367C6.97079 3.29358 7.20122 2.73015 7.22769 2.13905C7.23898 1.87271 7.23628 1.60597 7.21959 1.33992C7.208 1.26696 7.11897 1.24918 7.06817 1.30281C6.97127 1.40509 6.88298 1.49648 6.80596 1.59929C6.50038 1.98151 6.30405 2.43938 6.23783 2.92424C6.20788 3.06943 6.2087 3.21928 6.24024 3.36412C6.27178 3.50897 6.33335 3.64559 6.42096 3.76517C6.43751 3.78723 6.44503 3.81476 6.44199 3.84217C6.4378 3.98455 6.39404 4.12295 6.31559 4.24186C5.98462 4.70065 5.70045 5.19144 5.46733 5.70688L5.4301 5.78133C5.42715 5.78724 5.42177 5.79087 5.41546 5.7889C5.40576 5.78586 5.39789 5.77503 5.39955 5.765C5.40637 5.72355 5.41582 5.68258 5.42783 5.64232C5.43045 5.63353 5.43413 5.62508 5.43857 5.61705C5.71397 5.11821 5.83842 4.54995 5.7966 3.98148C5.77858 3.62792 5.68778 3.28188 5.52989 2.96502C5.51215 2.92817 5.46292 2.92746 5.44011 2.96141C5.4224 2.98775 5.40563 3.01473 5.38982 3.04228C5.07317 3.66069 4.93478 4.35501 4.99013 5.04757C5.0084 5.28266 5.11339 5.50257 5.28471 5.66458C5.32732 5.7072 5.33032 5.77312 5.33001 5.83339C5.32944 5.94282 5.31173 6.05168 5.27736 6.15597C5.06172 6.67673 4.89988 7.21817 4.79437 7.77185C4.79384 7.77461 4.79387 7.77493 4.79344 7.77771C4.78942 7.80429 4.74839 7.78114 4.74666 7.75431C4.74398 7.71273 4.74307 7.67103 4.74393 7.62935C4.78623 7.3135 4.86298 6.99841 4.87691 6.68281C4.90617 6.05295 4.68629 5.437 4.26502 4.9681C4.26198 4.96471 4.25831 4.96194 4.25427 4.95984C4.23234 4.9485 4.20452 4.95913 4.19689 4.9826C4.17059 5.06344 4.13769 5.14022 4.12008 5.22234C3.9856 5.82281 3.98802 6.44586 4.12717 7.04527C4.15225 7.18291 4.20816 7.31309 4.29071 7.42605C4.36716 7.53065 4.46463 7.61797 4.57672 7.68247C4.5946 7.69276 4.61569 7.69854 4.63028 7.71312C4.63762 7.72047 4.643 7.72955 4.64591 7.73953C4.68469 7.86916 4.70356 8.00393 4.70189 8.13922C4.6169 8.73159 4.57011 9.32882 4.56182 9.9272C4.56182 9.93802 4.55753 9.95298 4.55551 9.96577C4.55459 9.97152 4.55117 9.97599 4.54537 9.9765C4.5368 9.97725 4.52342 9.97287 4.52147 9.96449C4.51167 9.92239 4.50414 9.87978 4.4989 9.83686C4.49828 9.83175 4.49818 9.82658 4.49853 9.82144C4.52242 9.47591 4.49389 9.12873 4.4139 8.7917C4.2573 8.22241 3.91526 7.72177 3.44213 7.36897C3.43538 7.36393 3.42966 7.35757 3.42435 7.35103C3.40023 7.32134 3.35753 7.34068 3.34939 7.37805C3.34558 7.3956 3.34276 7.41337 3.34096 7.43128C3.3092 7.92841 3.3783 8.42682 3.5441 8.89656C3.61315 9.0978 3.69994 9.2925 3.80347 9.47837C3.85986 9.59401 3.94139 9.69559 4.0421 9.77566C4.14281 9.85572 4.26015 9.91226 4.38553 9.94113C4.44546 9.95651 4.47827 10.0175 4.50142 10.0749C4.53403 10.1558 4.55639 10.2405 4.5679 10.3271C4.57946 10.9548 4.65465 11.5796 4.79231 12.1921C4.79661 12.204 4.79758 12.2168 4.79512 12.2291C4.7916 12.2469 4.76972 12.2448 4.76279 12.2281C4.75221 12.2025 4.74362 12.1762 4.73709 12.1493C4.66785 11.7456 4.50978 11.3624 4.27433 11.0272C3.98321 10.6141 3.57186 10.3008 3.09628 10.1298C3.08568 10.1245 3.07508 10.123 3.06469 10.1198C3.05763 10.1176 3.05036 10.1155 3.04299 10.1161C3.02373 10.1177 3.01054 10.1348 3.00982 10.1541C3.00748 10.2164 3.01277 10.2788 3.02562 10.3398C3.15432 10.9494 3.44781 11.5121 3.87414 11.9664C3.96779 12.0761 4.08603 12.1621 4.21923 12.2174C4.35243 12.2727 4.4968 12.2957 4.64059 12.2846C4.70697 12.2838 4.7516 12.3464 4.78644 12.4029C4.83497 12.4815 4.87766 12.5637 4.91414 12.6488C5.10965 13.2782 5.36769 13.8864 5.6844 14.4644C5.70157 14.4926 5.71395 14.5256 5.72914 14.5556C5.73497 14.5672 5.7312 14.5819 5.72044 14.589C5.71198 14.5947 5.70077 14.5925 5.69432 14.5846C5.6616 14.5449 5.63251 14.5023 5.6074 14.4573C5.45769 14.14 5.2454 13.8562 4.98329 13.6229C4.60852 13.286 4.1202 13.1032 3.61629 13.1113C3.47571 13.1113 3.46913 13.1252 3.51117 13.2658C3.59356 13.5007 3.71706 13.719 3.87591 13.9107C4.08095 14.1965 4.34666 14.4335 4.65401 14.6047C4.79236 14.6878 4.94871 14.7362 5.10979 14.746C5.27087 14.7557 5.43193 14.7265 5.57928 14.6607C5.6003 14.6538 5.62893 14.647 5.64336 14.6531C5.84254 14.7618 5.96879 14.9611 6.09774 15.1478C6.3732 15.5467 6.68348 15.9207 7.02506 16.2653C7.04021 16.2795 7.05386 16.2953 7.0658 16.3123C7.06667 16.3135 7.06681 16.3137 7.06777 16.3149C7.08322 16.3335 7.04269 16.3565 7.02339 16.3419C6.98968 16.3164 6.95766 16.2887 6.92754 16.2589C6.70004 15.9914 6.40439 15.7903 6.07193 15.6771C5.56676 15.531 5.02591 15.5712 4.54789 15.7903C4.51372 15.8111 4.5094 15.8569 4.53372 15.8887C4.58421 15.9546 4.63815 16.0178 4.6953 16.0781C5.14874 16.5105 5.75136 16.7515 6.3779 16.7511C6.56738 16.7451 6.74878 16.673 6.89056 16.5472C6.94641 16.4917 7.02194 16.4606 7.10067 16.4606C7.17939 16.4606 7.25492 16.4917 7.31077 16.5472C7.68209 16.8739 8.09201 17.1539 8.53137 17.381L8.80679 17.5188C8.81742 17.5241 8.82218 17.5368 8.81839 17.5481C8.81528 17.5573 8.80539 17.5624 8.79588 17.5603C8.75562 17.5514 8.71638 17.5383 8.67879 17.5213C8.33464 17.3031 7.93036 17.1991 7.52363 17.2243C7.1169 17.2494 6.72851 17.4024 6.41387 17.6614C6.28232 17.7575 6.28525 17.9554 6.42853 18.0329C6.43301 18.0353 6.43749 18.0377 6.44199 18.0401C6.95284 18.2851 7.53373 18.3422 8.08254 18.2014C8.21643 18.1712 8.34273 18.114 8.45368 18.0332C8.5105 17.9918 8.56268 17.9447 8.60945 17.8927C8.69847 17.7937 8.76695 17.6632 8.89487 17.6264C8.95941 17.6078 9.02789 17.6078 9.09241 17.6264C9.46568 17.7709 9.85355 17.8743 10.2492 17.9349C10.2656 17.9376 10.2822 17.9396 10.2988 17.9408C10.3363 17.9436 10.3719 17.9172 10.3659 17.8801C10.3626 17.8594 10.3545 17.8398 10.3423 17.8228C10.33 17.8058 10.314 17.7918 10.2954 17.7821C10.2768 17.7724 10.2563 17.7671 10.2354 17.7668C10.2353 17.7668 10.2353 17.7668 10.2353 17.7669Z" stroke="url(#paint3_linear_0_22)" stroke-width="0.4" mask="url(#path-1-inside-1_0_22)"/>
</g>
</g>
<defs>
<linearGradient id="paint0_linear_0_22" x1="6.22856" y1="-8.99302" x2="-4.61193" y2="12.6052" gradientUnits="userSpaceOnUse">
<stop stop-color="#0089FF"/>
<stop offset="1" stop-color="#0089FF" stop-opacity="0.4"/>
</linearGradient>
<linearGradient id="paint1_linear_0_22" x1="9.02079" y1="1.09904" x2="4.85209" y2="1.75704" gradientUnits="userSpaceOnUse">
<stop stop-color="#FF82E6"/>
<stop offset="1" stop-color="#FF82E6" stop-opacity="0.2"/>
</linearGradient>
<linearGradient id="paint2_linear_0_22" x1="10.3676" y1="18.277" x2="2.03865" y2="17.7928" gradientUnits="userSpaceOnUse">
<stop stop-color="#0089FF"/>
<stop offset="1" stop-color="#466DFC"/>
</linearGradient>
<linearGradient id="paint3_linear_0_22" x1="3.00928" y1="1.09904" x2="11.2815" y2="1.55102" gradientUnits="userSpaceOnUse">
<stop stop-color="white" stop-opacity="0.8"/>
<stop offset="1" stop-color="white" stop-opacity="0.4"/>
</linearGradient>
</defs>
</svg>
