<svg preserveAspectRatio="none" width="100%" height="100%" overflow="visible" style="display: block;" viewBox="0 0 24 24" fill="none" xmlns="http://www.w3.org/2000/svg">
<g id="Frame">
<g id="Vector">
<path d="M11.9999 1C18.0752 1 23.0007 5.92423 23.0007 12.0007C23.0007 18.076 18.075 23 11.9999 23C5.92343 23 0.999205 18.0758 0.999205 12.0007C0.999205 5.92423 5.92343 1 11.9999 1ZM9.66515 5.40708C9.13989 5.31761 8.69697 5.49655 8.0053 5.9461L7.8072 6.07269L7.62703 6.18674C6.2587 7.03251 6.83631 10.5184 9.06959 13.7869C11.296 17.0474 14.3925 18.9545 15.7429 18.1212C15.8294 18.0704 16.1637 17.8737 16.2008 17.8516C16.7811 17.5065 17.107 17.2258 17.2761 16.819C17.503 16.2758 17.3285 15.6653 16.7413 14.9778C15.7898 13.8668 15.0692 13.6026 14.2551 13.9754C14.1273 14.0347 14.0022 14.1005 13.8825 14.1763L13.5221 14.3989C13.2486 14.5681 12.4124 13.7677 11.41 12.3048C10.4227 10.8583 9.99771 9.81735 10.2494 9.66176C10.2728 9.64653 10.534 9.48848 10.6083 9.44178C11.6327 8.79682 11.8072 8.08869 11.0111 6.59254C10.6358 5.88564 10.1889 5.49655 9.66515 5.40708Z" fill="var(--fill-0, #9FA2A6)"/>
<path d="M11.9999 1C18.0752 1 23.0007 5.92423 23.0007 12.0007C23.0007 18.076 18.075 23 11.9999 23C5.92343 23 0.999205 18.0758 0.999205 12.0007C0.999205 5.92423 5.92343 1 11.9999 1ZM9.66515 5.40708C9.13989 5.31761 8.69697 5.49655 8.0053 5.9461L7.8072 6.07269L7.62703 6.18674C6.2587 7.03251 6.83631 10.5184 9.06959 13.7869C11.296 17.0474 14.3925 18.9545 15.7429 18.1212C15.8294 18.0704 16.1637 17.8737 16.2008 17.8516C16.7811 17.5065 17.107 17.2258 17.2761 16.819C17.503 16.2758 17.3285 15.6653 16.7413 14.9778C15.7898 13.8668 15.0692 13.6026 14.2551 13.9754C14.1273 14.0347 14.0022 14.1005 13.8825 14.1763L13.5221 14.3989C13.2486 14.5681 12.4124 13.7677 11.41 12.3048C10.4227 10.8583 9.99771 9.81735 10.2494 9.66176C10.2728 9.64653 10.534 9.48848 10.6083 9.44178C11.6327 8.79682 11.8072 8.08869 11.0111 6.59254C10.6358 5.88564 10.1889 5.49655 9.66515 5.40708Z" fill="var(--fill-1, #0089FF)" fill-opacity="0.04"/>
</g>
</g>
</svg>
