<svg preserveAspectRatio="none" width="100%" height="100%" overflow="visible" style="display: block;" viewBox="0 0 24 24" fill="none" xmlns="http://www.w3.org/2000/svg">
<g id="Frame" clip-path="url(#clip0_0_180)">
<path id="Vector" d="M7.90761 8.01152C7.49143 8.01152 7.07524 8.28898 7.07524 8.70516C7.07524 9.12135 7.49143 9.39881 7.90761 9.39881C8.3238 9.39881 8.60126 9.12135 8.60126 8.70516C8.60126 8.27164 8.3238 8.01152 7.90761 8.01152ZM13.5435 12.0346C13.266 12.0346 13.0059 12.3294 13.0059 12.5896C13.0059 12.8844 13.2833 13.1445 13.5435 13.1445C13.9596 13.1445 14.2371 12.867 14.2371 12.5896C14.2371 12.3121 13.9596 12.0346 13.5435 12.0346ZM11.7573 9.39881C12.1735 9.39881 12.451 9.10401 12.451 8.70516C12.451 8.28898 12.1735 8.01152 11.7573 8.01152C11.3411 8.01152 10.925 8.28898 10.925 8.70516C10.925 9.12135 11.3411 9.39881 11.7573 9.39881ZM16.5608 12.0346C16.2833 12.0346 16.0232 12.3294 16.0232 12.5896C16.0232 12.8844 16.3007 13.1445 16.5608 13.1445C16.977 13.1445 17.2544 12.867 17.2544 12.5896C17.2544 12.3121 16.977 12.0346 16.5608 12.0346Z" fill="var(--fill-0, #C3C6C9)"/>
<g id="Vector_2">
<path d="M11.9654 0.0694336C5.35843 0.0694336 4.88281e-05 5.42782 4.88281e-05 12.0348C4.88281e-05 18.6417 5.35843 24.0001 11.9654 24.0001C18.5723 24.0001 23.9307 18.6417 23.9307 12.0348C23.9307 5.42782 18.5723 0.0694336 11.9654 0.0694336ZM9.69369 15.1041C9.00005 15.1041 8.44514 14.9654 7.78618 14.8093L5.87866 15.7804L6.41623 14.0983C5.04629 13.1272 4.21392 11.8613 4.21392 10.3527C4.21392 7.69949 6.69369 5.61857 9.69369 5.61857C12.3816 5.61857 14.7573 7.28331 15.2255 9.5203C15.0521 9.50296 14.8787 9.48562 14.7053 9.48562C12.1041 9.5203 10.0579 11.4798 10.0579 13.9076C10.0579 14.3064 10.1272 14.6879 10.2313 15.0694C10.0579 15.0868 9.8671 15.1041 9.69369 15.1041ZM17.8093 17.0463L18.2255 18.4336L16.7342 17.6012C16.1966 17.74 15.6417 17.8787 15.0868 17.8787C12.4683 17.8787 10.4047 16.0752 10.4047 13.8382C10.3873 11.6186 12.4509 9.8151 15.0521 9.8151C17.5318 9.8151 19.7168 11.6359 19.7168 13.8556C19.7168 15.1041 18.9018 16.2139 17.8093 17.0463Z" fill="var(--fill-0, #C3C6C9)"/>
<path d="M11.9654 0.0694336C5.35843 0.0694336 4.88281e-05 5.42782 4.88281e-05 12.0348C4.88281e-05 18.6417 5.35843 24.0001 11.9654 24.0001C18.5723 24.0001 23.9307 18.6417 23.9307 12.0348C23.9307 5.42782 18.5723 0.0694336 11.9654 0.0694336ZM9.69369 15.1041C9.00005 15.1041 8.44514 14.9654 7.78618 14.8093L5.87866 15.7804L6.41623 14.0983C5.04629 13.1272 4.21392 11.8613 4.21392 10.3527C4.21392 7.69949 6.69369 5.61857 9.69369 5.61857C12.3816 5.61857 14.7573 7.28331 15.2255 9.5203C15.0521 9.50296 14.8787 9.48562 14.7053 9.48562C12.1041 9.5203 10.0579 11.4798 10.0579 13.9076C10.0579 14.3064 10.1272 14.6879 10.2313 15.0694C10.0579 15.0868 9.8671 15.1041 9.69369 15.1041ZM17.8093 17.0463L18.2255 18.4336L16.7342 17.6012C16.1966 17.74 15.6417 17.8787 15.0868 17.8787C12.4683 17.8787 10.4047 16.0752 10.4047 13.8382C10.3873 11.6186 12.4509 9.8151 15.0521 9.8151C17.5318 9.8151 19.7168 11.6359 19.7168 13.8556C19.7168 15.1041 18.9018 16.2139 17.8093 17.0463Z" fill="var(--fill-1, #0089FF)" fill-opacity="0.04"/>
</g>
</g>
<defs>
<clipPath id="clip0_0_180">
<rect width="24" height="24" fill="white"/>
</clipPath>
</defs>
</svg>
