<svg preserveAspectRatio="none" width="100%" height="100%" overflow="visible" style="display: block;" viewBox="0 0 24 24" fill="none" xmlns="http://www.w3.org/2000/svg">
<g id="Frame" clip-path="url(#clip0_0_200)">
<g id="Vector">
<path d="M0 12C0 15.1826 1.26428 18.2348 3.51472 20.4853C5.76516 22.7357 8.8174 24 12 24C15.1826 24 18.2348 22.7357 20.4853 20.4853C22.7357 18.2348 24 15.1826 24 12C24 8.8174 22.7357 5.76516 20.4853 3.51472C18.2348 1.26428 15.1826 0 12 0C8.8174 0 5.76516 1.26428 3.51472 3.51472C1.26428 5.76516 0 8.8174 0 12Z" fill="var(--fill-0, #C3C6C9)"/>
<path d="M0 12C0 15.1826 1.26428 18.2348 3.51472 20.4853C5.76516 22.7357 8.8174 24 12 24C15.1826 24 18.2348 22.7357 20.4853 20.4853C22.7357 18.2348 24 15.1826 24 12C24 8.8174 22.7357 5.76516 20.4853 3.51472C18.2348 1.26428 15.1826 0 12 0C8.8174 0 5.76516 1.26428 3.51472 3.51472C1.26428 5.76516 0 8.8174 0 12Z" fill="var(--fill-1, #0089FF)" fill-opacity="0.04"/>
</g>
<path id="Vector_2" d="M18.288 11.4241H18.9C18.996 10.5121 18.948 10.4641 18.288 10.5721V11.4241ZM19.164 13.9921H20.412C20.412 13.6081 20.424 13.2601 20.412 12.9121C20.4 12.6841 20.244 12.5521 19.98 12.5521C19.428 12.5401 18.876 12.5521 18.288 12.5521V14.9281H17.004V12.5521H15.72V11.4481H16.968V10.5601C16.704 10.5481 16.428 10.5361 16.152 10.5241V9.43212H16.968C16.992 9.30012 17.004 9.19212 17.028 9.07212H18.252C18.276 9.18012 18.288 9.27612 18.312 9.40812C18.924 9.40812 19.62 9.42012 19.92 9.93612C20.172 10.3681 20.196 10.9081 20.328 11.4361C20.34 11.4361 20.448 11.4361 20.544 11.4481C21.228 11.5081 21.66 11.8801 21.696 12.4681C21.72 12.9841 21.72 13.4881 21.696 14.0041C21.66 14.6161 21.156 14.9521 20.364 14.9401C19.608 14.9281 19.2 14.6041 19.164 13.9921ZM14.472 13.8361H15.696V14.9161H11.232C11.448 14.5441 11.652 14.1961 11.868 13.8241H13.116V10.5361H12.336V9.44412H15.252V10.5241H14.472V13.8361ZM10.14 11.6641C9.83999 11.6401 9.58799 11.6401 9.34799 11.5921C9.02399 11.5441 8.89199 11.3401 9.02399 11.0881C9.37199 10.4401 9.73199 9.80412 10.092 9.15612C10.128 9.09612 10.26 9.06012 10.344 9.06012C10.68 9.04812 11.004 9.06012 11.4 9.06012C11.1 9.60012 10.812 10.1161 10.524 10.6321L10.608 10.6921C11.04 10.3921 11.532 10.5961 12.084 10.5121C11.688 11.2081 11.328 11.8441 10.932 12.5281C11.244 12.5521 11.46 12.5521 11.736 12.5761C11.58 12.8641 11.424 13.1281 11.256 13.3921C11.232 13.4401 11.124 13.4761 11.064 13.4761C10.668 13.4761 10.272 13.5001 9.87599 13.4641C9.44399 13.4281 9.29999 13.2121 9.46799 12.8641C9.67199 12.4681 9.89999 12.0841 10.14 11.6641ZM4.82399 9.07212H6.09599C6.10799 9.12012 6.11999 9.18012 6.11999 9.22812V13.9201C6.11999 14.6161 5.66399 14.9761 4.91999 14.9281C4.37999 14.8921 4.10399 14.6401 3.98399 14.0281C4.12799 14.0281 4.25999 14.0161 4.39199 14.0161H4.81199C4.82399 14.0161 4.82399 9.07212 4.82399 9.07212ZM2.67599 10.5481H3.99599C3.73199 11.8561 4.03199 13.2241 2.99999 14.4481C2.74799 14.0401 2.53199 13.6801 2.31599 13.3081C2.29199 13.2721 2.29199 13.2241 2.29199 13.1761C2.42399 12.3121 2.54399 11.4481 2.67599 10.5481ZM7.88399 14.4361C6.91199 13.2361 7.17599 11.8681 6.94799 10.5481H8.24399L8.42399 12.4921C8.42399 12.5281 8.41199 12.5641 8.42399 12.6001C8.74799 13.2961 8.24399 13.8121 7.88399 14.4361ZM8.54399 14.9401C8.80799 14.5081 8.98799 14.1841 9.19199 13.8721C9.21599 13.8241 9.31199 13.7761 9.37199 13.7761C9.67199 13.7881 9.97199 13.8241 10.272 13.8361C10.572 13.8481 10.872 13.8361 11.22 13.8361C11.016 14.1961 10.824 14.5081 10.632 14.8321C10.596 14.8801 10.512 14.9401 10.452 14.9401H8.54399ZM20.424 10.5121C20.424 10.2961 20.4 10.0921 20.424 9.88812C20.46 9.60012 20.76 9.39612 21.084 9.42012C21.396 9.44412 21.648 9.66012 21.684 9.93612C21.708 10.2121 21.48 10.4881 21.144 10.5121C20.916 10.5241 20.676 10.5121 20.424 10.5121Z" fill="var(--fill-0, white)"/>
</g>
<defs>
<clipPath id="clip0_0_200">
<rect width="24" height="24" fill="white"/>
</clipPath>
</defs>
</svg>
