<svg preserveAspectRatio="none" width="100%" height="100%" overflow="visible" style="display: block;" viewBox="0 0 24 24" fill="none" xmlns="http://www.w3.org/2000/svg">
<g id="Frame" clip-path="url(#clip0_0_174)">
<g id="Vector">
<path d="M0 12C0 18.624 5.376 24 12 24C18.624 24 24 18.624 24 12C24 5.376 18.624 0 12 0C5.376 0 0 5.376 0 12Z" fill="var(--fill-0, #C3C6C9)"/>
<path d="M0 12C0 18.624 5.376 24 12 24C18.624 24 24 18.624 24 12C24 5.376 18.624 0 12 0C5.376 0 0 5.376 0 12Z" fill="var(--fill-1, #0089FF)" fill-opacity="0.04"/>
</g>
<path id="Vector_2" d="M18.9841 6.09599C18.7321 5.68799 18.3721 5.42399 17.9281 5.33999C17.2801 5.21999 16.2241 5.50799 13.8361 8.95199C13.0921 10.008 12.4201 11.1 12.0001 11.808C11.5681 11.1 10.8961 10.008 10.1641 8.95199C7.76405 5.50799 6.72005 5.21999 6.07205 5.33999C5.64005 5.42399 5.26805 5.68799 5.01605 6.09599C3.86405 7.95599 5.22005 13.02 5.37605 13.584C5.38805 13.632 5.68805 14.748 6.13205 15.912C6.81605 17.676 7.47605 18.552 8.20805 18.672C8.26805 18.684 8.32805 18.684 8.38805 18.684C8.70005 18.684 9.09605 18.54 9.45605 18.012C10.4521 16.512 11.4481 14.904 12.0001 13.968C12.5641 14.892 13.5481 16.5 14.5441 18.012C14.9041 18.552 15.3001 18.684 15.6121 18.684C15.6721 18.684 15.7321 18.684 15.7921 18.672C16.5241 18.552 17.1721 17.676 17.8681 15.912C18.3241 14.748 18.6121 13.632 18.6241 13.596C18.7801 13.02 20.1361 7.95599 18.9841 6.09599ZM8.54405 17.4C8.47205 17.508 8.41205 17.568 8.38805 17.58C8.31605 17.544 7.86005 17.268 7.16405 15.504C6.73205 14.4 6.44405 13.308 6.44405 13.296C5.89205 11.316 5.28005 7.77599 5.95205 6.67199C6.07205 6.47999 6.19205 6.43199 6.27605 6.41999H6.28805C6.37205 6.41999 7.12805 6.50399 9.26405 9.58799C10.2001 10.932 11.0281 12.312 11.3641 12.888C10.9441 13.596 9.74405 15.576 8.54405 17.4ZM17.5561 13.296C17.5561 13.308 17.2681 14.4 16.8361 15.492C16.1521 17.268 15.6961 17.532 15.6121 17.568C15.5881 17.556 15.5281 17.496 15.4561 17.388C14.2441 15.564 13.0561 13.596 12.6361 12.876C12.9721 12.3 13.8001 10.92 14.7361 9.57599C16.9921 6.32399 17.7241 6.40799 17.7241 6.40799C17.8201 6.41999 17.9401 6.46799 18.0481 6.65999C18.7321 7.76399 18.1081 11.316 17.5561 13.296Z" fill="var(--fill-0, white)"/>
</g>
<defs>
<clipPath id="clip0_0_174">
<rect width="24" height="24" fill="white"/>
</clipPath>
</defs>
</svg>
