<svg preserveAspectRatio="none" width="100%" height="100%" overflow="visible" style="display: block;" viewBox="0 0 48 48" fill="none" xmlns="http://www.w3.org/2000/svg">
<g id="Frame">
<g id="Vector">
<mask id="path-1-inside-1_0_6" fill="white">
<path d="M28.5643 42.6405C28.5643 42.6406 28.5642 42.6408 28.564 42.6407C27.6183 42.4859 26.6928 42.2264 25.8045 41.867C25.6045 41.8166 25.4323 41.6895 25.3254 41.5131C25.2184 41.3368 25.1853 41.1254 25.2331 40.9247C25.3421 39.9661 25.1726 38.9963 24.7449 38.1314C24.2974 37.1972 23.5752 36.422 22.675 35.9096C22.5617 35.8524 22.4212 35.9484 22.4366 36.0744C22.4432 36.1277 22.4498 36.1784 22.4562 36.2293C22.5841 37.2929 22.7971 38.3445 23.0933 39.374C23.3335 40.1267 23.8592 40.7553 24.5577 41.1247C24.6477 41.1759 24.7449 41.2132 24.8458 41.2356C24.8664 41.2402 24.8876 41.2417 24.9086 41.2428C25.0266 41.2488 25.0872 41.2893 25.1174 41.3649C25.1593 41.4695 25.0274 41.5629 24.9267 41.5125C23.575 40.877 22.3362 40.0248 21.2593 38.9898C21.1438 38.8543 21.071 38.6877 21.05 38.511C21.029 38.3342 21.0608 38.1552 21.1413 37.9965C21.6274 36.6466 21.6166 35.1677 21.1109 33.8251C20.8681 33.12 20.4912 32.4685 20.0009 31.9066C19.9287 31.8344 19.7968 31.8849 19.7833 31.9861C19.7443 32.2783 19.7076 32.5522 19.6824 32.8172C19.6137 33.4877 19.531 34.1631 19.4976 34.8366C19.3754 35.754 19.5843 36.6849 20.0866 37.4621C20.2603 37.7113 20.4768 37.9276 20.7261 38.101C20.9392 38.2609 20.6501 38.388 20.4687 38.193C20.372 38.089 20.2782 37.987 20.1875 37.8822C19.3743 36.9733 18.6684 35.9738 18.0836 34.9035C18.0141 34.7451 17.9882 34.5709 18.0088 34.3992C18.0293 34.2274 18.0954 34.0642 18.2003 33.9266C19.5468 31.9072 19.5134 29.8039 18.638 27.6337C18.6226 27.5863 18.5916 27.5534 18.5743 27.5078C18.5721 27.5019 18.5729 27.4987 18.5697 27.4932C18.5511 27.4618 18.4923 27.4949 18.4794 27.5291C17.9778 28.852 17.3234 30.1139 17.1906 31.5376C17.1257 31.9611 17.149 32.3934 17.2591 32.8074C17.3691 33.2215 17.5635 33.6083 17.8301 33.9436C17.9077 34.0369 17.8855 34.2018 17.8946 34.3328C17.896 34.3518 17.8812 34.3721 17.8631 34.3776C17.8345 34.3862 17.7996 34.372 17.7853 34.3458L17.5098 33.8415C16.8311 32.4365 16.301 30.9646 15.928 29.4495C15.8846 29.3204 15.9282 29.181 15.9822 29.056C16.108 28.7646 16.3026 28.5068 16.5505 28.3054C17.1963 27.801 17.6864 27.1243 17.9645 26.3535C18.4632 25.1571 18.6091 23.843 18.3851 22.5663C18.3833 22.5493 18.3797 22.5327 18.3744 22.5166C18.3645 22.4865 18.3178 22.4721 18.2911 22.489C18.2789 22.4966 18.2796 22.5064 18.2712 22.5181C17.6687 23.3523 17.0175 24.1555 16.4484 25.0228C15.863 25.8098 15.6039 26.7923 15.725 27.7656C15.7507 27.9716 15.8133 28.1714 15.9098 28.3553C16.0604 28.5658 15.7037 28.5524 15.6525 28.2987C15.5983 28.0297 15.5505 27.7716 15.5232 27.5133C15.4218 26.4919 15.3587 25.482 15.2897 24.4636C15.2663 24.119 15.2521 23.7543 15.4357 23.4617C15.6191 23.1695 15.9617 23.0393 16.2696 22.8837C17.0297 22.4997 17.6538 21.8835 18.0471 21.1183C18.5979 20.1952 18.9048 19.1471 18.9389 18.0727V17.8873C18.9389 17.8439 18.8689 17.8346 18.8353 17.8619C18.7194 17.9559 18.5963 18.0421 18.4836 18.1396C17.8775 18.6441 17.2551 19.1323 16.6824 19.6715C15.985 20.3005 15.5571 21.1743 15.4879 22.111C15.4736 22.3583 15.485 22.6064 15.5219 22.8514C15.5723 23.0898 15.2356 22.987 15.2485 22.7437C15.2496 22.7234 15.2509 22.7032 15.2526 22.683C15.334 21.1872 15.5424 19.701 15.8757 18.2405C15.9195 18.0406 16.0304 17.8617 16.1898 17.7335C16.3492 17.6052 16.5477 17.5353 16.7523 17.5353C17.6336 17.4836 18.4604 17.0915 19.0581 16.4417C19.7928 15.7157 20.3261 14.8112 20.6058 13.8168C20.6135 13.7891 20.6194 13.7609 20.6234 13.7324C20.6234 13.7293 20.6229 13.7263 20.622 13.7233C20.615 13.7 20.5883 13.6744 20.5651 13.6672C20.559 13.6653 20.5529 13.6668 20.547 13.6693C19.6749 14.038 18.7682 14.3751 17.914 14.7937C17.5385 14.9666 17.2078 15.2236 16.9477 15.545C16.6876 15.8663 16.5051 16.2433 16.4143 16.6466C16.3719 16.8341 16.3549 17.0266 16.3639 17.2186C16.3754 17.3673 16.3247 17.4539 16.2285 17.5203C16.1558 17.5705 16.0356 17.5043 16.0636 17.4204C16.4284 16.0666 16.9067 14.7463 17.4933 13.4734C17.6145 13.2104 17.7621 12.9379 18.0276 12.8223C18.293 12.7067 18.5911 12.7958 18.8765 12.8446C19.9659 13.0307 20.8813 12.5815 21.734 11.8819C22.0849 11.5864 22.3928 11.2446 22.6495 10.8663C22.7812 10.6724 22.6411 10.4228 22.407 10.4345C21.5661 10.4308 20.7285 10.5383 19.9158 10.7543C19.5209 10.8595 19.1621 11.0701 18.8776 11.3635C18.5931 11.6568 18.3937 12.022 18.3006 12.4199C18.2766 12.5292 18.2268 12.5839 18.1582 12.6174C18.0588 12.666 17.9481 12.5357 17.9979 12.4369C18.4997 11.4552 19.077 10.5141 19.7245 9.62231C19.8944 9.38837 20.0794 9.13718 20.3597 9.06616C20.6396 8.99524 20.9157 9.14441 21.1853 9.24772C22.3948 9.71112 23.5095 9.38467 24.5583 8.58105C24.8342 8.35112 25.0923 8.10074 25.3305 7.83202C25.3526 7.80716 25.3566 7.77122 25.338 7.74368C25.3228 7.7212 25.2996 7.70494 25.2728 7.70099C25.1497 7.6829 25.0158 7.65404 24.8951 7.63881C24.1792 7.46544 23.4427 7.3918 22.7067 7.41997C22.285 7.42594 21.8735 7.55064 21.5194 7.77977C21.1654 8.00889 20.8831 8.33316 20.7049 8.71539C20.6137 8.91687 20.4685 8.63251 20.6101 8.46261C20.8013 8.23313 20.9869 8.01266 21.193 7.80659C21.6659 7.33365 22.1352 6.88198 22.6234 6.41025C22.7857 6.26592 23.0188 6.2562 23.2335 6.22349C23.7126 6.15051 24.1746 5.98734 24.5946 5.74162C25.1087 5.44083 25.5458 5.02458 25.8714 4.52578C26.2406 4.01805 26.5145 3.44751 26.6799 2.84191C26.7093 2.75467 26.604 2.67674 26.5173 2.70788C26.2348 2.80942 25.952 2.90961 25.6689 3.00847C24.8413 3.24356 24.0806 3.67004 23.4483 4.25344C23.197 4.47467 22.9996 4.75046 22.8713 5.0597C22.7429 5.36895 22.687 5.70345 22.7079 6.03761C22.7065 6.06997 22.6985 6.10169 22.6843 6.13078C22.67 6.15987 22.6499 6.18569 22.6252 6.20661C21.5479 7.16543 20.5685 8.22886 19.7014 9.38122C19.6984 9.38514 19.696 9.38939 19.6932 9.39346C19.6826 9.40929 19.6647 9.42139 19.6477 9.43445C19.6267 9.45057 19.5872 9.46054 19.5627 9.45045C19.5496 9.44505 19.5461 9.43033 19.5501 9.41675C19.5885 9.28645 19.6443 9.16199 19.7161 9.04673C19.7352 9.016 19.7579 8.98771 19.7821 8.96078C20.7296 7.90455 21.2827 6.55232 21.3462 5.13367C21.3733 4.49447 21.3668 3.85429 21.3267 3.21576C21.2989 3.04066 21.0853 2.998 20.9633 3.12671C20.7308 3.37218 20.5189 3.59151 20.334 3.83825C19.6006 4.75559 19.1294 5.85447 18.9705 7.01815C18.8986 7.36658 18.9006 7.72622 18.9763 8.07385C19.052 8.42148 19.1998 8.74937 19.41 9.03636C19.4497 9.0893 19.4678 9.15539 19.4605 9.22116C19.4505 9.56288 19.3454 9.89505 19.1572 10.1804C18.3628 11.2815 17.6808 12.4594 17.1213 13.6965L17.032 13.8752C17.0249 13.8893 17.012 13.898 16.9968 13.8933C16.9735 13.886 16.9547 13.86 16.9586 13.836C16.975 13.7365 16.9977 13.6381 17.0265 13.5415C17.0328 13.5204 17.0416 13.5002 17.0523 13.4809C17.7132 12.2837 18.0119 10.9198 17.9116 9.5555C17.8683 8.70696 17.6504 7.87648 17.2715 7.11602C17.2289 7.02757 17.1107 7.02587 17.056 7.10734C17.0135 7.17057 16.9732 7.23531 16.9353 7.30143C16.1753 8.78563 15.8432 10.452 15.976 12.1141C16.0199 12.6783 16.2719 13.2061 16.683 13.595C16.7853 13.6972 16.7925 13.8554 16.7917 14.0001C16.7904 14.2627 16.7479 14.524 16.6654 14.7743C16.1478 16.0241 15.7594 17.3236 15.5062 18.6524C15.5049 18.659 15.505 18.6598 15.504 18.6665C15.4943 18.7303 15.3959 18.6747 15.3917 18.6103C15.3853 18.5105 15.3831 18.4104 15.3852 18.3104C15.4867 17.5524 15.6709 16.7961 15.7043 16.0387C15.7745 14.5271 15.2468 13.0488 14.2358 11.9234C14.2285 11.9153 14.2197 11.9086 14.21 11.9036C14.1574 11.8764 14.0906 11.9019 14.0723 11.9582C14.0091 12.1522 13.9302 12.3365 13.8879 12.5336C13.5652 13.9747 13.571 15.47 13.9049 16.9086C13.9651 17.2389 14.0993 17.5514 14.2974 17.8225C14.4809 18.0735 14.7148 18.2831 14.9839 18.4379C15.0268 18.4626 15.0774 18.4765 15.1124 18.5115C15.13 18.5291 15.1429 18.5509 15.1499 18.5748C15.243 18.886 15.2883 19.2094 15.2843 19.5341C15.0803 20.9558 14.968 22.3891 14.9481 23.8252C14.9481 23.8512 14.9378 23.8871 14.9329 23.9178C14.9308 23.9316 14.9225 23.9423 14.9086 23.9436C14.8881 23.9454 14.8559 23.9348 14.8513 23.9147C14.8277 23.8137 14.8097 23.7114 14.7971 23.6084C14.7956 23.5962 14.7953 23.5838 14.7962 23.5714C14.8535 22.7421 14.7851 21.9089 14.5931 21.1C14.2173 19.7337 13.3964 18.5322 12.2608 17.6855C12.2446 17.6734 12.2309 17.6581 12.2182 17.6424C12.1603 17.5712 12.0578 17.6176 12.0383 17.7073C12.0291 17.7494 12.0223 17.7921 12.018 17.835C11.9418 19.0281 12.1077 20.2243 12.5056 21.3517C12.6713 21.8347 12.8796 22.302 13.1281 22.748C13.2634 23.0256 13.4591 23.2694 13.7008 23.4615C13.9425 23.6537 14.2241 23.7894 14.525 23.8587C14.6688 23.8956 14.7476 24.0421 14.8031 24.1798C14.8814 24.3738 14.9351 24.5771 14.9627 24.7851C14.9904 26.2914 15.1709 27.7911 15.5013 29.261C15.5116 29.2895 15.5139 29.3202 15.508 29.3499C15.4996 29.3925 15.447 29.3875 15.4304 29.3474C15.405 29.2861 15.3844 29.2229 15.3688 29.1583C15.2026 28.1895 14.8232 27.2696 14.2581 26.4653C13.5594 25.4739 12.5722 24.7218 11.4308 24.3115C11.4054 24.2988 11.3799 24.2953 11.355 24.2874C11.338 24.2821 11.3206 24.2772 11.3029 24.2786C11.2567 24.2824 11.225 24.3236 11.2233 24.3699C11.2177 24.5193 11.2304 24.669 11.2612 24.8155C11.5701 26.2786 12.2745 27.6289 13.2977 28.7194C13.5224 28.9826 13.8062 29.189 14.1259 29.3216C14.4456 29.4543 14.7921 29.5096 15.1371 29.4829C15.2965 29.481 15.4036 29.6312 15.4872 29.7668C15.6037 29.9557 15.7061 30.153 15.7937 30.3571C16.2629 31.8676 16.8822 33.3273 17.6423 34.7145C17.6835 34.7821 17.7132 34.8613 17.7497 34.9334C17.7637 34.9611 17.7546 34.9965 17.7288 35.0137C17.7085 35.0272 17.6816 35.0219 17.6661 35.0031C17.5876 34.9077 17.5178 34.8054 17.4575 34.6974C17.0982 33.9359 16.5887 33.2548 15.9596 32.695C15.0602 31.8863 13.8882 31.4477 12.6788 31.4671C12.3414 31.4671 12.3256 31.5005 12.4265 31.8379C12.6243 32.4016 12.9207 32.9257 13.3019 33.3856C13.794 34.0717 14.4317 34.6405 15.1694 35.0512C15.5014 35.2506 15.8766 35.3669 16.2632 35.3903C16.6498 35.4137 17.0364 35.3435 17.39 35.1856C17.4405 35.1692 17.5092 35.1527 17.5438 35.1673C18.0218 35.4283 18.3248 35.9066 18.6343 36.3548C19.2954 37.3121 20.0401 38.2096 20.8599 39.0366C20.8962 39.0708 20.929 39.1086 20.9577 39.1494C20.9597 39.1524 20.9601 39.1529 20.9624 39.1557C20.9994 39.2005 20.9022 39.2557 20.8559 39.2206C20.775 39.1593 20.6981 39.0928 20.6258 39.0214C20.0798 38.3792 19.3703 37.8968 18.5724 37.6251C17.36 37.2744 16.0619 37.3708 14.9147 37.8968C14.8326 37.9467 14.8223 38.0566 14.8807 38.1328C15.0018 38.291 15.1313 38.4427 15.2685 38.5874C16.3567 39.6251 17.803 40.2035 19.3067 40.2025C19.7614 40.1883 20.1968 40.0152 20.5371 39.7132C20.6711 39.58 20.8524 39.5053 21.0413 39.5053C21.2303 39.5053 21.4115 39.58 21.5456 39.7132C22.4367 40.4973 23.4205 41.1693 24.475 41.7144L25.136 42.0452C25.1615 42.0579 25.173 42.0883 25.1639 42.1154C25.1564 42.1375 25.1327 42.1497 25.1098 42.1447C25.0132 42.1233 24.919 42.0919 24.8288 42.0511C24.0029 41.5274 23.0326 41.2779 22.0564 41.3383C21.0803 41.3986 20.1481 41.7658 19.393 42.3873C19.0773 42.6179 19.0843 43.0929 19.4282 43.2788C19.4389 43.2846 19.4497 43.2904 19.4605 43.2961C20.6866 43.8842 22.0807 44.0213 23.3978 43.6833C23.7192 43.6109 24.0223 43.4735 24.2886 43.2796C24.4249 43.1802 24.5502 43.0672 24.6624 42.9424C24.8761 42.7048 25.0404 42.3917 25.3474 42.3032C25.5023 42.2586 25.6667 42.2586 25.8215 42.3034C26.7174 42.6501 27.6483 42.8983 28.5978 43.0438C28.6373 43.0503 28.677 43.055 28.7169 43.058C28.8067 43.0647 28.8922 43.0013 28.878 42.9123C28.87 42.8626 28.8505 42.8155 28.8211 42.7746C28.7917 42.7338 28.7532 42.7004 28.7086 42.677C28.6641 42.6537 28.6148 42.6411 28.5646 42.6402C28.5645 42.6402 28.5643 42.6403 28.5643 42.6405Z"/>
</mask>
<path d="M28.5643 42.6405C28.5643 42.6406 28.5642 42.6408 28.564 42.6407C27.6183 42.4859 26.6928 42.2264 25.8045 41.867C25.6045 41.8166 25.4323 41.6895 25.3254 41.5131C25.2184 41.3368 25.1853 41.1254 25.2331 40.9247C25.3421 39.9661 25.1726 38.9963 24.7449 38.1314C24.2974 37.1972 23.5752 36.422 22.675 35.9096C22.5617 35.8524 22.4212 35.9484 22.4366 36.0744C22.4432 36.1277 22.4498 36.1784 22.4562 36.2293C22.5841 37.2929 22.7971 38.3445 23.0933 39.374C23.3335 40.1267 23.8592 40.7553 24.5577 41.1247C24.6477 41.1759 24.7449 41.2132 24.8458 41.2356C24.8664 41.2402 24.8876 41.2417 24.9086 41.2428C25.0266 41.2488 25.0872 41.2893 25.1174 41.3649C25.1593 41.4695 25.0274 41.5629 24.9267 41.5125C23.575 40.877 22.3362 40.0248 21.2593 38.9898C21.1438 38.8543 21.071 38.6877 21.05 38.511C21.029 38.3342 21.0608 38.1552 21.1413 37.9965C21.6274 36.6466 21.6166 35.1677 21.1109 33.8251C20.8681 33.12 20.4912 32.4685 20.0009 31.9066C19.9287 31.8344 19.7968 31.8849 19.7833 31.9861C19.7443 32.2783 19.7076 32.5522 19.6824 32.8172C19.6137 33.4877 19.531 34.1631 19.4976 34.8366C19.3754 35.754 19.5843 36.6849 20.0866 37.4621C20.2603 37.7113 20.4768 37.9276 20.7261 38.101C20.9392 38.2609 20.6501 38.388 20.4687 38.193C20.372 38.089 20.2782 37.987 20.1875 37.8822C19.3743 36.9733 18.6684 35.9738 18.0836 34.9035C18.0141 34.7451 17.9882 34.5709 18.0088 34.3992C18.0293 34.2274 18.0954 34.0642 18.2003 33.9266C19.5468 31.9072 19.5134 29.8039 18.638 27.6337C18.6226 27.5863 18.5916 27.5534 18.5743 27.5078C18.5721 27.5019 18.5729 27.4987 18.5697 27.4932C18.5511 27.4618 18.4923 27.4949 18.4794 27.5291C17.9778 28.852 17.3234 30.1139 17.1906 31.5376C17.1257 31.9611 17.149 32.3934 17.2591 32.8074C17.3691 33.2215 17.5635 33.6083 17.8301 33.9436C17.9077 34.0369 17.8855 34.2018 17.8946 34.3328C17.896 34.3518 17.8812 34.3721 17.8631 34.3776C17.8345 34.3862 17.7996 34.372 17.7853 34.3458L17.5098 33.8415C16.8311 32.4365 16.301 30.9646 15.928 29.4495C15.8846 29.3204 15.9282 29.181 15.9822 29.056C16.108 28.7646 16.3026 28.5068 16.5505 28.3054C17.1963 27.801 17.6864 27.1243 17.9645 26.3535C18.4632 25.1571 18.6091 23.843 18.3851 22.5663C18.3833 22.5493 18.3797 22.5327 18.3744 22.5166C18.3645 22.4865 18.3178 22.4721 18.2911 22.489C18.2789 22.4966 18.2796 22.5064 18.2712 22.5181C17.6687 23.3523 17.0175 24.1555 16.4484 25.0228C15.863 25.8098 15.6039 26.7923 15.725 27.7656C15.7507 27.9716 15.8133 28.1714 15.9098 28.3553C16.0604 28.5658 15.7037 28.5524 15.6525 28.2987C15.5983 28.0297 15.5505 27.7716 15.5232 27.5133C15.4218 26.4919 15.3587 25.482 15.2897 24.4636C15.2663 24.119 15.2521 23.7543 15.4357 23.4617C15.6191 23.1695 15.9617 23.0393 16.2696 22.8837C17.0297 22.4997 17.6538 21.8835 18.0471 21.1183C18.5979 20.1952 18.9048 19.1471 18.9389 18.0727V17.8873C18.9389 17.8439 18.8689 17.8346 18.8353 17.8619C18.7194 17.9559 18.5963 18.0421 18.4836 18.1396C17.8775 18.6441 17.2551 19.1323 16.6824 19.6715C15.985 20.3005 15.5571 21.1743 15.4879 22.111C15.4736 22.3583 15.485 22.6064 15.5219 22.8514C15.5723 23.0898 15.2356 22.987 15.2485 22.7437C15.2496 22.7234 15.2509 22.7032 15.2526 22.683C15.334 21.1872 15.5424 19.701 15.8757 18.2405C15.9195 18.0406 16.0304 17.8617 16.1898 17.7335C16.3492 17.6052 16.5477 17.5353 16.7523 17.5353C17.6336 17.4836 18.4604 17.0915 19.0581 16.4417C19.7928 15.7157 20.3261 14.8112 20.6058 13.8168C20.6135 13.7891 20.6194 13.7609 20.6234 13.7324C20.6234 13.7293 20.6229 13.7263 20.622 13.7233C20.615 13.7 20.5883 13.6744 20.5651 13.6672C20.559 13.6653 20.5529 13.6668 20.547 13.6693C19.6749 14.038 18.7682 14.3751 17.914 14.7937C17.5385 14.9666 17.2078 15.2236 16.9477 15.545C16.6876 15.8663 16.5051 16.2433 16.4143 16.6466C16.3719 16.8341 16.3549 17.0266 16.3639 17.2186C16.3754 17.3673 16.3247 17.4539 16.2285 17.5203C16.1558 17.5705 16.0356 17.5043 16.0636 17.4204C16.4284 16.0666 16.9067 14.7463 17.4933 13.4734C17.6145 13.2104 17.7621 12.9379 18.0276 12.8223C18.293 12.7067 18.5911 12.7958 18.8765 12.8446C19.9659 13.0307 20.8813 12.5815 21.734 11.8819C22.0849 11.5864 22.3928 11.2446 22.6495 10.8663C22.7812 10.6724 22.6411 10.4228 22.407 10.4345C21.5661 10.4308 20.7285 10.5383 19.9158 10.7543C19.5209 10.8595 19.1621 11.0701 18.8776 11.3635C18.5931 11.6568 18.3937 12.022 18.3006 12.4199C18.2766 12.5292 18.2268 12.5839 18.1582 12.6174C18.0588 12.666 17.9481 12.5357 17.9979 12.4369C18.4997 11.4552 19.077 10.5141 19.7245 9.62231C19.8944 9.38837 20.0794 9.13718 20.3597 9.06616C20.6396 8.99524 20.9157 9.14441 21.1853 9.24772C22.3948 9.71112 23.5095 9.38467 24.5583 8.58105C24.8342 8.35112 25.0923 8.10074 25.3305 7.83202C25.3526 7.80716 25.3566 7.77122 25.338 7.74368C25.3228 7.7212 25.2996 7.70494 25.2728 7.70099C25.1497 7.6829 25.0158 7.65404 24.8951 7.63881C24.1792 7.46544 23.4427 7.3918 22.7067 7.41997C22.285 7.42594 21.8735 7.55064 21.5194 7.77977C21.1654 8.00889 20.8831 8.33316 20.7049 8.71539C20.6137 8.91687 20.4685 8.63251 20.6101 8.46261C20.8013 8.23313 20.9869 8.01266 21.193 7.80659C21.6659 7.33365 22.1352 6.88198 22.6234 6.41025C22.7857 6.26592 23.0188 6.2562 23.2335 6.22349C23.7126 6.15051 24.1746 5.98734 24.5946 5.74162C25.1087 5.44083 25.5458 5.02458 25.8714 4.52578C26.2406 4.01805 26.5145 3.44751 26.6799 2.84191C26.7093 2.75467 26.604 2.67674 26.5173 2.70788C26.2348 2.80942 25.952 2.90961 25.6689 3.00847C24.8413 3.24356 24.0806 3.67004 23.4483 4.25344C23.197 4.47467 22.9996 4.75046 22.8713 5.0597C22.7429 5.36895 22.687 5.70345 22.7079 6.03761C22.7065 6.06997 22.6985 6.10169 22.6843 6.13078C22.67 6.15987 22.6499 6.18569 22.6252 6.20661C21.5479 7.16543 20.5685 8.22886 19.7014 9.38122C19.6984 9.38514 19.696 9.38939 19.6932 9.39346C19.6826 9.40929 19.6647 9.42139 19.6477 9.43445C19.6267 9.45057 19.5872 9.46054 19.5627 9.45045C19.5496 9.44505 19.5461 9.43033 19.5501 9.41675C19.5885 9.28645 19.6443 9.16199 19.7161 9.04673C19.7352 9.016 19.7579 8.98771 19.7821 8.96078C20.7296 7.90455 21.2827 6.55232 21.3462 5.13367C21.3733 4.49447 21.3668 3.85429 21.3267 3.21576C21.2989 3.04066 21.0853 2.998 20.9633 3.12671C20.7308 3.37218 20.5189 3.59151 20.334 3.83825C19.6006 4.75559 19.1294 5.85447 18.9705 7.01815C18.8986 7.36658 18.9006 7.72622 18.9763 8.07385C19.052 8.42148 19.1998 8.74937 19.41 9.03636C19.4497 9.0893 19.4678 9.15539 19.4605 9.22116C19.4505 9.56288 19.3454 9.89505 19.1572 10.1804C18.3628 11.2815 17.6808 12.4594 17.1213 13.6965L17.032 13.8752C17.0249 13.8893 17.012 13.898 16.9968 13.8933C16.9735 13.886 16.9547 13.86 16.9586 13.836C16.975 13.7365 16.9977 13.6381 17.0265 13.5415C17.0328 13.5204 17.0416 13.5002 17.0523 13.4809C17.7132 12.2837 18.0119 10.9198 17.9116 9.5555C17.8683 8.70696 17.6504 7.87648 17.2715 7.11602C17.2289 7.02757 17.1107 7.02587 17.056 7.10734C17.0135 7.17057 16.9732 7.23531 16.9353 7.30143C16.1753 8.78563 15.8432 10.452 15.976 12.1141C16.0199 12.6783 16.2719 13.2061 16.683 13.595C16.7853 13.6972 16.7925 13.8554 16.7917 14.0001C16.7904 14.2627 16.7479 14.524 16.6654 14.7743C16.1478 16.0241 15.7594 17.3236 15.5062 18.6524C15.5049 18.659 15.505 18.6598 15.504 18.6665C15.4943 18.7303 15.3959 18.6747 15.3917 18.6103C15.3853 18.5105 15.3831 18.4104 15.3852 18.3104C15.4867 17.5524 15.6709 16.7961 15.7043 16.0387C15.7745 14.5271 15.2468 13.0488 14.2358 11.9234C14.2285 11.9153 14.2197 11.9086 14.21 11.9036C14.1574 11.8764 14.0906 11.9019 14.0723 11.9582C14.0091 12.1522 13.9302 12.3365 13.8879 12.5336C13.5652 13.9747 13.571 15.47 13.9049 16.9086C13.9651 17.2389 14.0993 17.5514 14.2974 17.8225C14.4809 18.0735 14.7148 18.2831 14.9839 18.4379C15.0268 18.4626 15.0774 18.4765 15.1124 18.5115C15.13 18.5291 15.1429 18.5509 15.1499 18.5748C15.243 18.886 15.2883 19.2094 15.2843 19.5341C15.0803 20.9558 14.968 22.3891 14.9481 23.8252C14.9481 23.8512 14.9378 23.8871 14.9329 23.9178C14.9308 23.9316 14.9225 23.9423 14.9086 23.9436C14.8881 23.9454 14.8559 23.9348 14.8513 23.9147C14.8277 23.8137 14.8097 23.7114 14.7971 23.6084C14.7956 23.5962 14.7953 23.5838 14.7962 23.5714C14.8535 22.7421 14.7851 21.9089 14.5931 21.1C14.2173 19.7337 13.3964 18.5322 12.2608 17.6855C12.2446 17.6734 12.2309 17.6581 12.2182 17.6424C12.1603 17.5712 12.0578 17.6176 12.0383 17.7073C12.0291 17.7494 12.0223 17.7921 12.018 17.835C11.9418 19.0281 12.1077 20.2243 12.5056 21.3517C12.6713 21.8347 12.8796 22.302 13.1281 22.748C13.2634 23.0256 13.4591 23.2694 13.7008 23.4615C13.9425 23.6537 14.2241 23.7894 14.525 23.8587C14.6688 23.8956 14.7476 24.0421 14.8031 24.1798C14.8814 24.3738 14.9351 24.5771 14.9627 24.7851C14.9904 26.2914 15.1709 27.7911 15.5013 29.261C15.5116 29.2895 15.5139 29.3202 15.508 29.3499C15.4996 29.3925 15.447 29.3875 15.4304 29.3474C15.405 29.2861 15.3844 29.2229 15.3688 29.1583C15.2026 28.1895 14.8232 27.2696 14.2581 26.4653C13.5594 25.4739 12.5722 24.7218 11.4308 24.3115C11.4054 24.2988 11.3799 24.2953 11.355 24.2874C11.338 24.2821 11.3206 24.2772 11.3029 24.2786C11.2567 24.2824 11.225 24.3236 11.2233 24.3699C11.2177 24.5193 11.2304 24.669 11.2612 24.8155C11.5701 26.2786 12.2745 27.6289 13.2977 28.7194C13.5224 28.9826 13.8062 29.189 14.1259 29.3216C14.4456 29.4543 14.7921 29.5096 15.1371 29.4829C15.2965 29.481 15.4036 29.6312 15.4872 29.7668C15.6037 29.9557 15.7061 30.153 15.7937 30.3571C16.2629 31.8676 16.8822 33.3273 17.6423 34.7145C17.6835 34.7821 17.7132 34.8613 17.7497 34.9334C17.7637 34.9611 17.7546 34.9965 17.7288 35.0137C17.7085 35.0272 17.6816 35.0219 17.6661 35.0031C17.5876 34.9077 17.5178 34.8054 17.4575 34.6974C17.0982 33.9359 16.5887 33.2548 15.9596 32.695C15.0602 31.8863 13.8882 31.4477 12.6788 31.4671C12.3414 31.4671 12.3256 31.5005 12.4265 31.8379C12.6243 32.4016 12.9207 32.9257 13.3019 33.3856C13.794 34.0717 14.4317 34.6405 15.1694 35.0512C15.5014 35.2506 15.8766 35.3669 16.2632 35.3903C16.6498 35.4137 17.0364 35.3435 17.39 35.1856C17.4405 35.1692 17.5092 35.1527 17.5438 35.1673C18.0218 35.4283 18.3248 35.9066 18.6343 36.3548C19.2954 37.3121 20.0401 38.2096 20.8599 39.0366C20.8962 39.0708 20.929 39.1086 20.9577 39.1494C20.9597 39.1524 20.9601 39.1529 20.9624 39.1557C20.9994 39.2005 20.9022 39.2557 20.8559 39.2206C20.775 39.1593 20.6981 39.0928 20.6258 39.0214C20.0798 38.3792 19.3703 37.8968 18.5724 37.6251C17.36 37.2744 16.0619 37.3708 14.9147 37.8968C14.8326 37.9467 14.8223 38.0566 14.8807 38.1328C15.0018 38.291 15.1313 38.4427 15.2685 38.5874C16.3567 39.6251 17.803 40.2035 19.3067 40.2025C19.7614 40.1883 20.1968 40.0152 20.5371 39.7132C20.6711 39.58 20.8524 39.5053 21.0413 39.5053C21.2303 39.5053 21.4115 39.58 21.5456 39.7132C22.4367 40.4973 23.4205 41.1693 24.475 41.7144L25.136 42.0452C25.1615 42.0579 25.173 42.0883 25.1639 42.1154C25.1564 42.1375 25.1327 42.1497 25.1098 42.1447C25.0132 42.1233 24.919 42.0919 24.8288 42.0511C24.0029 41.5274 23.0326 41.2779 22.0564 41.3383C21.0803 41.3986 20.1481 41.7658 19.393 42.3873C19.0773 42.6179 19.0843 43.0929 19.4282 43.2788C19.4389 43.2846 19.4497 43.2904 19.4605 43.2961C20.6866 43.8842 22.0807 44.0213 23.3978 43.6833C23.7192 43.6109 24.0223 43.4735 24.2886 43.2796C24.4249 43.1802 24.5502 43.0672 24.6624 42.9424C24.8761 42.7048 25.0404 42.3917 25.3474 42.3032C25.5023 42.2586 25.6667 42.2586 25.8215 42.3034C26.7174 42.6501 27.6483 42.8983 28.5978 43.0438C28.6373 43.0503 28.677 43.055 28.7169 43.058C28.8067 43.0647 28.8922 43.0013 28.878 42.9123C28.87 42.8626 28.8505 42.8155 28.8211 42.7746C28.7917 42.7338 28.7532 42.7004 28.7086 42.677C28.6641 42.6537 28.6148 42.6411 28.5646 42.6402C28.5645 42.6402 28.5643 42.6403 28.5643 42.6405Z" fill="var(--fill-0, white)" fill-opacity="0.1"/>
<path d="M28.5643 42.6405C28.5643 42.6406 28.5642 42.6408 28.564 42.6407C27.6183 42.4859 26.6928 42.2264 25.8045 41.867C25.6045 41.8166 25.4323 41.6895 25.3254 41.5131C25.2184 41.3368 25.1853 41.1254 25.2331 40.9247C25.3421 39.9661 25.1726 38.9963 24.7449 38.1314C24.2974 37.1972 23.5752 36.422 22.675 35.9096C22.5617 35.8524 22.4212 35.9484 22.4366 36.0744C22.4432 36.1277 22.4498 36.1784 22.4562 36.2293C22.5841 37.2929 22.7971 38.3445 23.0933 39.374C23.3335 40.1267 23.8592 40.7553 24.5577 41.1247C24.6477 41.1759 24.7449 41.2132 24.8458 41.2356C24.8664 41.2402 24.8876 41.2417 24.9086 41.2428C25.0266 41.2488 25.0872 41.2893 25.1174 41.3649C25.1593 41.4695 25.0274 41.5629 24.9267 41.5125C23.575 40.877 22.3362 40.0248 21.2593 38.9898C21.1438 38.8543 21.071 38.6877 21.05 38.511C21.029 38.3342 21.0608 38.1552 21.1413 37.9965C21.6274 36.6466 21.6166 35.1677 21.1109 33.8251C20.8681 33.12 20.4912 32.4685 20.0009 31.9066C19.9287 31.8344 19.7968 31.8849 19.7833 31.9861C19.7443 32.2783 19.7076 32.5522 19.6824 32.8172C19.6137 33.4877 19.531 34.1631 19.4976 34.8366C19.3754 35.754 19.5843 36.6849 20.0866 37.4621C20.2603 37.7113 20.4768 37.9276 20.7261 38.101C20.9392 38.2609 20.6501 38.388 20.4687 38.193C20.372 38.089 20.2782 37.987 20.1875 37.8822C19.3743 36.9733 18.6684 35.9738 18.0836 34.9035C18.0141 34.7451 17.9882 34.5709 18.0088 34.3992C18.0293 34.2274 18.0954 34.0642 18.2003 33.9266C19.5468 31.9072 19.5134 29.8039 18.638 27.6337C18.6226 27.5863 18.5916 27.5534 18.5743 27.5078C18.5721 27.5019 18.5729 27.4987 18.5697 27.4932C18.5511 27.4618 18.4923 27.4949 18.4794 27.5291C17.9778 28.852 17.3234 30.1139 17.1906 31.5376C17.1257 31.9611 17.149 32.3934 17.2591 32.8074C17.3691 33.2215 17.5635 33.6083 17.8301 33.9436C17.9077 34.0369 17.8855 34.2018 17.8946 34.3328C17.896 34.3518 17.8812 34.3721 17.8631 34.3776C17.8345 34.3862 17.7996 34.372 17.7853 34.3458L17.5098 33.8415C16.8311 32.4365 16.301 30.9646 15.928 29.4495C15.8846 29.3204 15.9282 29.181 15.9822 29.056C16.108 28.7646 16.3026 28.5068 16.5505 28.3054C17.1963 27.801 17.6864 27.1243 17.9645 26.3535C18.4632 25.1571 18.6091 23.843 18.3851 22.5663C18.3833 22.5493 18.3797 22.5327 18.3744 22.5166C18.3645 22.4865 18.3178 22.4721 18.2911 22.489C18.2789 22.4966 18.2796 22.5064 18.2712 22.5181C17.6687 23.3523 17.0175 24.1555 16.4484 25.0228C15.863 25.8098 15.6039 26.7923 15.725 27.7656C15.7507 27.9716 15.8133 28.1714 15.9098 28.3553C16.0604 28.5658 15.7037 28.5524 15.6525 28.2987C15.5983 28.0297 15.5505 27.7716 15.5232 27.5133C15.4218 26.4919 15.3587 25.482 15.2897 24.4636C15.2663 24.119 15.2521 23.7543 15.4357 23.4617C15.6191 23.1695 15.9617 23.0393 16.2696 22.8837C17.0297 22.4997 17.6538 21.8835 18.0471 21.1183C18.5979 20.1952 18.9048 19.1471 18.9389 18.0727V17.8873C18.9389 17.8439 18.8689 17.8346 18.8353 17.8619C18.7194 17.9559 18.5963 18.0421 18.4836 18.1396C17.8775 18.6441 17.2551 19.1323 16.6824 19.6715C15.985 20.3005 15.5571 21.1743 15.4879 22.111C15.4736 22.3583 15.485 22.6064 15.5219 22.8514C15.5723 23.0898 15.2356 22.987 15.2485 22.7437C15.2496 22.7234 15.2509 22.7032 15.2526 22.683C15.334 21.1872 15.5424 19.701 15.8757 18.2405C15.9195 18.0406 16.0304 17.8617 16.1898 17.7335C16.3492 17.6052 16.5477 17.5353 16.7523 17.5353C17.6336 17.4836 18.4604 17.0915 19.0581 16.4417C19.7928 15.7157 20.3261 14.8112 20.6058 13.8168C20.6135 13.7891 20.6194 13.7609 20.6234 13.7324C20.6234 13.7293 20.6229 13.7263 20.622 13.7233C20.615 13.7 20.5883 13.6744 20.5651 13.6672C20.559 13.6653 20.5529 13.6668 20.547 13.6693C19.6749 14.038 18.7682 14.3751 17.914 14.7937C17.5385 14.9666 17.2078 15.2236 16.9477 15.545C16.6876 15.8663 16.5051 16.2433 16.4143 16.6466C16.3719 16.8341 16.3549 17.0266 16.3639 17.2186C16.3754 17.3673 16.3247 17.4539 16.2285 17.5203C16.1558 17.5705 16.0356 17.5043 16.0636 17.4204C16.4284 16.0666 16.9067 14.7463 17.4933 13.4734C17.6145 13.2104 17.7621 12.9379 18.0276 12.8223C18.293 12.7067 18.5911 12.7958 18.8765 12.8446C19.9659 13.0307 20.8813 12.5815 21.734 11.8819C22.0849 11.5864 22.3928 11.2446 22.6495 10.8663C22.7812 10.6724 22.6411 10.4228 22.407 10.4345C21.5661 10.4308 20.7285 10.5383 19.9158 10.7543C19.5209 10.8595 19.1621 11.0701 18.8776 11.3635C18.5931 11.6568 18.3937 12.022 18.3006 12.4199C18.2766 12.5292 18.2268 12.5839 18.1582 12.6174C18.0588 12.666 17.9481 12.5357 17.9979 12.4369C18.4997 11.4552 19.077 10.5141 19.7245 9.62231C19.8944 9.38837 20.0794 9.13718 20.3597 9.06616C20.6396 8.99524 20.9157 9.14441 21.1853 9.24772C22.3948 9.71112 23.5095 9.38467 24.5583 8.58105C24.8342 8.35112 25.0923 8.10074 25.3305 7.83202C25.3526 7.80716 25.3566 7.77122 25.338 7.74368C25.3228 7.7212 25.2996 7.70494 25.2728 7.70099C25.1497 7.6829 25.0158 7.65404 24.8951 7.63881C24.1792 7.46544 23.4427 7.3918 22.7067 7.41997C22.285 7.42594 21.8735 7.55064 21.5194 7.77977C21.1654 8.00889 20.8831 8.33316 20.7049 8.71539C20.6137 8.91687 20.4685 8.63251 20.6101 8.46261C20.8013 8.23313 20.9869 8.01266 21.193 7.80659C21.6659 7.33365 22.1352 6.88198 22.6234 6.41025C22.7857 6.26592 23.0188 6.2562 23.2335 6.22349C23.7126 6.15051 24.1746 5.98734 24.5946 5.74162C25.1087 5.44083 25.5458 5.02458 25.8714 4.52578C26.2406 4.01805 26.5145 3.44751 26.6799 2.84191C26.7093 2.75467 26.604 2.67674 26.5173 2.70788C26.2348 2.80942 25.952 2.90961 25.6689 3.00847C24.8413 3.24356 24.0806 3.67004 23.4483 4.25344C23.197 4.47467 22.9996 4.75046 22.8713 5.0597C22.7429 5.36895 22.687 5.70345 22.7079 6.03761C22.7065 6.06997 22.6985 6.10169 22.6843 6.13078C22.67 6.15987 22.6499 6.18569 22.6252 6.20661C21.5479 7.16543 20.5685 8.22886 19.7014 9.38122C19.6984 9.38514 19.696 9.38939 19.6932 9.39346C19.6826 9.40929 19.6647 9.42139 19.6477 9.43445C19.6267 9.45057 19.5872 9.46054 19.5627 9.45045C19.5496 9.44505 19.5461 9.43033 19.5501 9.41675C19.5885 9.28645 19.6443 9.16199 19.7161 9.04673C19.7352 9.016 19.7579 8.98771 19.7821 8.96078C20.7296 7.90455 21.2827 6.55232 21.3462 5.13367C21.3733 4.49447 21.3668 3.85429 21.3267 3.21576C21.2989 3.04066 21.0853 2.998 20.9633 3.12671C20.7308 3.37218 20.5189 3.59151 20.334 3.83825C19.6006 4.75559 19.1294 5.85447 18.9705 7.01815C18.8986 7.36658 18.9006 7.72622 18.9763 8.07385C19.052 8.42148 19.1998 8.74937 19.41 9.03636C19.4497 9.0893 19.4678 9.15539 19.4605 9.22116C19.4505 9.56288 19.3454 9.89505 19.1572 10.1804C18.3628 11.2815 17.6808 12.4594 17.1213 13.6965L17.032 13.8752C17.0249 13.8893 17.012 13.898 16.9968 13.8933C16.9735 13.886 16.9547 13.86 16.9586 13.836C16.975 13.7365 16.9977 13.6381 17.0265 13.5415C17.0328 13.5204 17.0416 13.5002 17.0523 13.4809C17.7132 12.2837 18.0119 10.9198 17.9116 9.5555C17.8683 8.70696 17.6504 7.87648 17.2715 7.11602C17.2289 7.02757 17.1107 7.02587 17.056 7.10734C17.0135 7.17057 16.9732 7.23531 16.9353 7.30143C16.1753 8.78563 15.8432 10.452 15.976 12.1141C16.0199 12.6783 16.2719 13.2061 16.683 13.595C16.7853 13.6972 16.7925 13.8554 16.7917 14.0001C16.7904 14.2627 16.7479 14.524 16.6654 14.7743C16.1478 16.0241 15.7594 17.3236 15.5062 18.6524C15.5049 18.659 15.505 18.6598 15.504 18.6665C15.4943 18.7303 15.3959 18.6747 15.3917 18.6103C15.3853 18.5105 15.3831 18.4104 15.3852 18.3104C15.4867 17.5524 15.6709 16.7961 15.7043 16.0387C15.7745 14.5271 15.2468 13.0488 14.2358 11.9234C14.2285 11.9153 14.2197 11.9086 14.21 11.9036C14.1574 11.8764 14.0906 11.9019 14.0723 11.9582C14.0091 12.1522 13.9302 12.3365 13.8879 12.5336C13.5652 13.9747 13.571 15.47 13.9049 16.9086C13.9651 17.2389 14.0993 17.5514 14.2974 17.8225C14.4809 18.0735 14.7148 18.2831 14.9839 18.4379C15.0268 18.4626 15.0774 18.4765 15.1124 18.5115C15.13 18.5291 15.1429 18.5509 15.1499 18.5748C15.243 18.886 15.2883 19.2094 15.2843 19.5341C15.0803 20.9558 14.968 22.3891 14.9481 23.8252C14.9481 23.8512 14.9378 23.8871 14.9329 23.9178C14.9308 23.9316 14.9225 23.9423 14.9086 23.9436C14.8881 23.9454 14.8559 23.9348 14.8513 23.9147C14.8277 23.8137 14.8097 23.7114 14.7971 23.6084C14.7956 23.5962 14.7953 23.5838 14.7962 23.5714C14.8535 22.7421 14.7851 21.9089 14.5931 21.1C14.2173 19.7337 13.3964 18.5322 12.2608 17.6855C12.2446 17.6734 12.2309 17.6581 12.2182 17.6424C12.1603 17.5712 12.0578 17.6176 12.0383 17.7073C12.0291 17.7494 12.0223 17.7921 12.018 17.835C11.9418 19.0281 12.1077 20.2243 12.5056 21.3517C12.6713 21.8347 12.8796 22.302 13.1281 22.748C13.2634 23.0256 13.4591 23.2694 13.7008 23.4615C13.9425 23.6537 14.2241 23.7894 14.525 23.8587C14.6688 23.8956 14.7476 24.0421 14.8031 24.1798C14.8814 24.3738 14.9351 24.5771 14.9627 24.7851C14.9904 26.2914 15.1709 27.7911 15.5013 29.261C15.5116 29.2895 15.5139 29.3202 15.508 29.3499C15.4996 29.3925 15.447 29.3875 15.4304 29.3474C15.405 29.2861 15.3844 29.2229 15.3688 29.1583C15.2026 28.1895 14.8232 27.2696 14.2581 26.4653C13.5594 25.4739 12.5722 24.7218 11.4308 24.3115C11.4054 24.2988 11.3799 24.2953 11.355 24.2874C11.338 24.2821 11.3206 24.2772 11.3029 24.2786C11.2567 24.2824 11.225 24.3236 11.2233 24.3699C11.2177 24.5193 11.2304 24.669 11.2612 24.8155C11.5701 26.2786 12.2745 27.6289 13.2977 28.7194C13.5224 28.9826 13.8062 29.189 14.1259 29.3216C14.4456 29.4543 14.7921 29.5096 15.1371 29.4829C15.2965 29.481 15.4036 29.6312 15.4872 29.7668C15.6037 29.9557 15.7061 30.153 15.7937 30.3571C16.2629 31.8676 16.8822 33.3273 17.6423 34.7145C17.6835 34.7821 17.7132 34.8613 17.7497 34.9334C17.7637 34.9611 17.7546 34.9965 17.7288 35.0137C17.7085 35.0272 17.6816 35.0219 17.6661 35.0031C17.5876 34.9077 17.5178 34.8054 17.4575 34.6974C17.0982 33.9359 16.5887 33.2548 15.9596 32.695C15.0602 31.8863 13.8882 31.4477 12.6788 31.4671C12.3414 31.4671 12.3256 31.5005 12.4265 31.8379C12.6243 32.4016 12.9207 32.9257 13.3019 33.3856C13.794 34.0717 14.4317 34.6405 15.1694 35.0512C15.5014 35.2506 15.8766 35.3669 16.2632 35.3903C16.6498 35.4137 17.0364 35.3435 17.39 35.1856C17.4405 35.1692 17.5092 35.1527 17.5438 35.1673C18.0218 35.4283 18.3248 35.9066 18.6343 36.3548C19.2954 37.3121 20.0401 38.2096 20.8599 39.0366C20.8962 39.0708 20.929 39.1086 20.9577 39.1494C20.9597 39.1524 20.9601 39.1529 20.9624 39.1557C20.9994 39.2005 20.9022 39.2557 20.8559 39.2206C20.775 39.1593 20.6981 39.0928 20.6258 39.0214C20.0798 38.3792 19.3703 37.8968 18.5724 37.6251C17.36 37.2744 16.0619 37.3708 14.9147 37.8968C14.8326 37.9467 14.8223 38.0566 14.8807 38.1328C15.0018 38.291 15.1313 38.4427 15.2685 38.5874C16.3567 39.6251 17.803 40.2035 19.3067 40.2025C19.7614 40.1883 20.1968 40.0152 20.5371 39.7132C20.6711 39.58 20.8524 39.5053 21.0413 39.5053C21.2303 39.5053 21.4115 39.58 21.5456 39.7132C22.4367 40.4973 23.4205 41.1693 24.475 41.7144L25.136 42.0452C25.1615 42.0579 25.173 42.0883 25.1639 42.1154C25.1564 42.1375 25.1327 42.1497 25.1098 42.1447C25.0132 42.1233 24.919 42.0919 24.8288 42.0511C24.0029 41.5274 23.0326 41.2779 22.0564 41.3383C21.0803 41.3986 20.1481 41.7658 19.393 42.3873C19.0773 42.6179 19.0843 43.0929 19.4282 43.2788C19.4389 43.2846 19.4497 43.2904 19.4605 43.2961C20.6866 43.8842 22.0807 44.0213 23.3978 43.6833C23.7192 43.6109 24.0223 43.4735 24.2886 43.2796C24.4249 43.1802 24.5502 43.0672 24.6624 42.9424C24.8761 42.7048 25.0404 42.3917 25.3474 42.3032C25.5023 42.2586 25.6667 42.2586 25.8215 42.3034C26.7174 42.6501 27.6483 42.8983 28.5978 43.0438C28.6373 43.0503 28.677 43.055 28.7169 43.058C28.8067 43.0647 28.8922 43.0013 28.878 42.9123C28.87 42.8626 28.8505 42.8155 28.8211 42.7746C28.7917 42.7338 28.7532 42.7004 28.7086 42.677C28.6641 42.6537 28.6148 42.6411 28.5646 42.6402C28.5645 42.6402 28.5643 42.6403 28.5643 42.6405Z" fill="url(#paint0_linear_0_6)"/>
<path d="M28.5643 42.6405C28.5643 42.6406 28.5642 42.6408 28.564 42.6407C27.6183 42.4859 26.6928 42.2264 25.8045 41.867C25.6045 41.8166 25.4323 41.6895 25.3254 41.5131C25.2184 41.3368 25.1853 41.1254 25.2331 40.9247C25.3421 39.9661 25.1726 38.9963 24.7449 38.1314C24.2974 37.1972 23.5752 36.422 22.675 35.9096C22.5617 35.8524 22.4212 35.9484 22.4366 36.0744C22.4432 36.1277 22.4498 36.1784 22.4562 36.2293C22.5841 37.2929 22.7971 38.3445 23.0933 39.374C23.3335 40.1267 23.8592 40.7553 24.5577 41.1247C24.6477 41.1759 24.7449 41.2132 24.8458 41.2356C24.8664 41.2402 24.8876 41.2417 24.9086 41.2428C25.0266 41.2488 25.0872 41.2893 25.1174 41.3649C25.1593 41.4695 25.0274 41.5629 24.9267 41.5125C23.575 40.877 22.3362 40.0248 21.2593 38.9898C21.1438 38.8543 21.071 38.6877 21.05 38.511C21.029 38.3342 21.0608 38.1552 21.1413 37.9965C21.6274 36.6466 21.6166 35.1677 21.1109 33.8251C20.8681 33.12 20.4912 32.4685 20.0009 31.9066C19.9287 31.8344 19.7968 31.8849 19.7833 31.9861C19.7443 32.2783 19.7076 32.5522 19.6824 32.8172C19.6137 33.4877 19.531 34.1631 19.4976 34.8366C19.3754 35.754 19.5843 36.6849 20.0866 37.4621C20.2603 37.7113 20.4768 37.9276 20.7261 38.101C20.9392 38.2609 20.6501 38.388 20.4687 38.193C20.372 38.089 20.2782 37.987 20.1875 37.8822C19.3743 36.9733 18.6684 35.9738 18.0836 34.9035C18.0141 34.7451 17.9882 34.5709 18.0088 34.3992C18.0293 34.2274 18.0954 34.0642 18.2003 33.9266C19.5468 31.9072 19.5134 29.8039 18.638 27.6337C18.6226 27.5863 18.5916 27.5534 18.5743 27.5078C18.5721 27.5019 18.5729 27.4987 18.5697 27.4932C18.5511 27.4618 18.4923 27.4949 18.4794 27.5291C17.9778 28.852 17.3234 30.1139 17.1906 31.5376C17.1257 31.9611 17.149 32.3934 17.2591 32.8074C17.3691 33.2215 17.5635 33.6083 17.8301 33.9436C17.9077 34.0369 17.8855 34.2018 17.8946 34.3328C17.896 34.3518 17.8812 34.3721 17.8631 34.3776C17.8345 34.3862 17.7996 34.372 17.7853 34.3458L17.5098 33.8415C16.8311 32.4365 16.301 30.9646 15.928 29.4495C15.8846 29.3204 15.9282 29.181 15.9822 29.056C16.108 28.7646 16.3026 28.5068 16.5505 28.3054C17.1963 27.801 17.6864 27.1243 17.9645 26.3535C18.4632 25.1571 18.6091 23.843 18.3851 22.5663C18.3833 22.5493 18.3797 22.5327 18.3744 22.5166C18.3645 22.4865 18.3178 22.4721 18.2911 22.489C18.2789 22.4966 18.2796 22.5064 18.2712 22.5181C17.6687 23.3523 17.0175 24.1555 16.4484 25.0228C15.863 25.8098 15.6039 26.7923 15.725 27.7656C15.7507 27.9716 15.8133 28.1714 15.9098 28.3553C16.0604 28.5658 15.7037 28.5524 15.6525 28.2987C15.5983 28.0297 15.5505 27.7716 15.5232 27.5133C15.4218 26.4919 15.3587 25.482 15.2897 24.4636C15.2663 24.119 15.2521 23.7543 15.4357 23.4617C15.6191 23.1695 15.9617 23.0393 16.2696 22.8837C17.0297 22.4997 17.6538 21.8835 18.0471 21.1183C18.5979 20.1952 18.9048 19.1471 18.9389 18.0727V17.8873C18.9389 17.8439 18.8689 17.8346 18.8353 17.8619C18.7194 17.9559 18.5963 18.0421 18.4836 18.1396C17.8775 18.6441 17.2551 19.1323 16.6824 19.6715C15.985 20.3005 15.5571 21.1743 15.4879 22.111C15.4736 22.3583 15.485 22.6064 15.5219 22.8514C15.5723 23.0898 15.2356 22.987 15.2485 22.7437C15.2496 22.7234 15.2509 22.7032 15.2526 22.683C15.334 21.1872 15.5424 19.701 15.8757 18.2405C15.9195 18.0406 16.0304 17.8617 16.1898 17.7335C16.3492 17.6052 16.5477 17.5353 16.7523 17.5353C17.6336 17.4836 18.4604 17.0915 19.0581 16.4417C19.7928 15.7157 20.3261 14.8112 20.6058 13.8168C20.6135 13.7891 20.6194 13.7609 20.6234 13.7324C20.6234 13.7293 20.6229 13.7263 20.622 13.7233C20.615 13.7 20.5883 13.6744 20.5651 13.6672C20.559 13.6653 20.5529 13.6668 20.547 13.6693C19.6749 14.038 18.7682 14.3751 17.914 14.7937C17.5385 14.9666 17.2078 15.2236 16.9477 15.545C16.6876 15.8663 16.5051 16.2433 16.4143 16.6466C16.3719 16.8341 16.3549 17.0266 16.3639 17.2186C16.3754 17.3673 16.3247 17.4539 16.2285 17.5203C16.1558 17.5705 16.0356 17.5043 16.0636 17.4204C16.4284 16.0666 16.9067 14.7463 17.4933 13.4734C17.6145 13.2104 17.7621 12.9379 18.0276 12.8223C18.293 12.7067 18.5911 12.7958 18.8765 12.8446C19.9659 13.0307 20.8813 12.5815 21.734 11.8819C22.0849 11.5864 22.3928 11.2446 22.6495 10.8663C22.7812 10.6724 22.6411 10.4228 22.407 10.4345C21.5661 10.4308 20.7285 10.5383 19.9158 10.7543C19.5209 10.8595 19.1621 11.0701 18.8776 11.3635C18.5931 11.6568 18.3937 12.022 18.3006 12.4199C18.2766 12.5292 18.2268 12.5839 18.1582 12.6174C18.0588 12.666 17.9481 12.5357 17.9979 12.4369C18.4997 11.4552 19.077 10.5141 19.7245 9.62231C19.8944 9.38837 20.0794 9.13718 20.3597 9.06616C20.6396 8.99524 20.9157 9.14441 21.1853 9.24772C22.3948 9.71112 23.5095 9.38467 24.5583 8.58105C24.8342 8.35112 25.0923 8.10074 25.3305 7.83202C25.3526 7.80716 25.3566 7.77122 25.338 7.74368C25.3228 7.7212 25.2996 7.70494 25.2728 7.70099C25.1497 7.6829 25.0158 7.65404 24.8951 7.63881C24.1792 7.46544 23.4427 7.3918 22.7067 7.41997C22.285 7.42594 21.8735 7.55064 21.5194 7.77977C21.1654 8.00889 20.8831 8.33316 20.7049 8.71539C20.6137 8.91687 20.4685 8.63251 20.6101 8.46261C20.8013 8.23313 20.9869 8.01266 21.193 7.80659C21.6659 7.33365 22.1352 6.88198 22.6234 6.41025C22.7857 6.26592 23.0188 6.2562 23.2335 6.22349C23.7126 6.15051 24.1746 5.98734 24.5946 5.74162C25.1087 5.44083 25.5458 5.02458 25.8714 4.52578C26.2406 4.01805 26.5145 3.44751 26.6799 2.84191C26.7093 2.75467 26.604 2.67674 26.5173 2.70788C26.2348 2.80942 25.952 2.90961 25.6689 3.00847C24.8413 3.24356 24.0806 3.67004 23.4483 4.25344C23.197 4.47467 22.9996 4.75046 22.8713 5.0597C22.7429 5.36895 22.687 5.70345 22.7079 6.03761C22.7065 6.06997 22.6985 6.10169 22.6843 6.13078C22.67 6.15987 22.6499 6.18569 22.6252 6.20661C21.5479 7.16543 20.5685 8.22886 19.7014 9.38122C19.6984 9.38514 19.696 9.38939 19.6932 9.39346C19.6826 9.40929 19.6647 9.42139 19.6477 9.43445C19.6267 9.45057 19.5872 9.46054 19.5627 9.45045C19.5496 9.44505 19.5461 9.43033 19.5501 9.41675C19.5885 9.28645 19.6443 9.16199 19.7161 9.04673C19.7352 9.016 19.7579 8.98771 19.7821 8.96078C20.7296 7.90455 21.2827 6.55232 21.3462 5.13367C21.3733 4.49447 21.3668 3.85429 21.3267 3.21576C21.2989 3.04066 21.0853 2.998 20.9633 3.12671C20.7308 3.37218 20.5189 3.59151 20.334 3.83825C19.6006 4.75559 19.1294 5.85447 18.9705 7.01815C18.8986 7.36658 18.9006 7.72622 18.9763 8.07385C19.052 8.42148 19.1998 8.74937 19.41 9.03636C19.4497 9.0893 19.4678 9.15539 19.4605 9.22116C19.4505 9.56288 19.3454 9.89505 19.1572 10.1804C18.3628 11.2815 17.6808 12.4594 17.1213 13.6965L17.032 13.8752C17.0249 13.8893 17.012 13.898 16.9968 13.8933C16.9735 13.886 16.9547 13.86 16.9586 13.836C16.975 13.7365 16.9977 13.6381 17.0265 13.5415C17.0328 13.5204 17.0416 13.5002 17.0523 13.4809C17.7132 12.2837 18.0119 10.9198 17.9116 9.5555C17.8683 8.70696 17.6504 7.87648 17.2715 7.11602C17.2289 7.02757 17.1107 7.02587 17.056 7.10734C17.0135 7.17057 16.9732 7.23531 16.9353 7.30143C16.1753 8.78563 15.8432 10.452 15.976 12.1141C16.0199 12.6783 16.2719 13.2061 16.683 13.595C16.7853 13.6972 16.7925 13.8554 16.7917 14.0001C16.7904 14.2627 16.7479 14.524 16.6654 14.7743C16.1478 16.0241 15.7594 17.3236 15.5062 18.6524C15.5049 18.659 15.505 18.6598 15.504 18.6665C15.4943 18.7303 15.3959 18.6747 15.3917 18.6103C15.3853 18.5105 15.3831 18.4104 15.3852 18.3104C15.4867 17.5524 15.6709 16.7961 15.7043 16.0387C15.7745 14.5271 15.2468 13.0488 14.2358 11.9234C14.2285 11.9153 14.2197 11.9086 14.21 11.9036C14.1574 11.8764 14.0906 11.9019 14.0723 11.9582C14.0091 12.1522 13.9302 12.3365 13.8879 12.5336C13.5652 13.9747 13.571 15.47 13.9049 16.9086C13.9651 17.2389 14.0993 17.5514 14.2974 17.8225C14.4809 18.0735 14.7148 18.2831 14.9839 18.4379C15.0268 18.4626 15.0774 18.4765 15.1124 18.5115C15.13 18.5291 15.1429 18.5509 15.1499 18.5748C15.243 18.886 15.2883 19.2094 15.2843 19.5341C15.0803 20.9558 14.968 22.3891 14.9481 23.8252C14.9481 23.8512 14.9378 23.8871 14.9329 23.9178C14.9308 23.9316 14.9225 23.9423 14.9086 23.9436C14.8881 23.9454 14.8559 23.9348 14.8513 23.9147C14.8277 23.8137 14.8097 23.7114 14.7971 23.6084C14.7956 23.5962 14.7953 23.5838 14.7962 23.5714C14.8535 22.7421 14.7851 21.9089 14.5931 21.1C14.2173 19.7337 13.3964 18.5322 12.2608 17.6855C12.2446 17.6734 12.2309 17.6581 12.2182 17.6424C12.1603 17.5712 12.0578 17.6176 12.0383 17.7073C12.0291 17.7494 12.0223 17.7921 12.018 17.835C11.9418 19.0281 12.1077 20.2243 12.5056 21.3517C12.6713 21.8347 12.8796 22.302 13.1281 22.748C13.2634 23.0256 13.4591 23.2694 13.7008 23.4615C13.9425 23.6537 14.2241 23.7894 14.525 23.8587C14.6688 23.8956 14.7476 24.0421 14.8031 24.1798C14.8814 24.3738 14.9351 24.5771 14.9627 24.7851C14.9904 26.2914 15.1709 27.7911 15.5013 29.261C15.5116 29.2895 15.5139 29.3202 15.508 29.3499C15.4996 29.3925 15.447 29.3875 15.4304 29.3474C15.405 29.2861 15.3844 29.2229 15.3688 29.1583C15.2026 28.1895 14.8232 27.2696 14.2581 26.4653C13.5594 25.4739 12.5722 24.7218 11.4308 24.3115C11.4054 24.2988 11.3799 24.2953 11.355 24.2874C11.338 24.2821 11.3206 24.2772 11.3029 24.2786C11.2567 24.2824 11.225 24.3236 11.2233 24.3699C11.2177 24.5193 11.2304 24.669 11.2612 24.8155C11.5701 26.2786 12.2745 27.6289 13.2977 28.7194C13.5224 28.9826 13.8062 29.189 14.1259 29.3216C14.4456 29.4543 14.7921 29.5096 15.1371 29.4829C15.2965 29.481 15.4036 29.6312 15.4872 29.7668C15.6037 29.9557 15.7061 30.153 15.7937 30.3571C16.2629 31.8676 16.8822 33.3273 17.6423 34.7145C17.6835 34.7821 17.7132 34.8613 17.7497 34.9334C17.7637 34.9611 17.7546 34.9965 17.7288 35.0137C17.7085 35.0272 17.6816 35.0219 17.6661 35.0031C17.5876 34.9077 17.5178 34.8054 17.4575 34.6974C17.0982 33.9359 16.5887 33.2548 15.9596 32.695C15.0602 31.8863 13.8882 31.4477 12.6788 31.4671C12.3414 31.4671 12.3256 31.5005 12.4265 31.8379C12.6243 32.4016 12.9207 32.9257 13.3019 33.3856C13.794 34.0717 14.4317 34.6405 15.1694 35.0512C15.5014 35.2506 15.8766 35.3669 16.2632 35.3903C16.6498 35.4137 17.0364 35.3435 17.39 35.1856C17.4405 35.1692 17.5092 35.1527 17.5438 35.1673C18.0218 35.4283 18.3248 35.9066 18.6343 36.3548C19.2954 37.3121 20.0401 38.2096 20.8599 39.0366C20.8962 39.0708 20.929 39.1086 20.9577 39.1494C20.9597 39.1524 20.9601 39.1529 20.9624 39.1557C20.9994 39.2005 20.9022 39.2557 20.8559 39.2206C20.775 39.1593 20.6981 39.0928 20.6258 39.0214C20.0798 38.3792 19.3703 37.8968 18.5724 37.6251C17.36 37.2744 16.0619 37.3708 14.9147 37.8968C14.8326 37.9467 14.8223 38.0566 14.8807 38.1328C15.0018 38.291 15.1313 38.4427 15.2685 38.5874C16.3567 39.6251 17.803 40.2035 19.3067 40.2025C19.7614 40.1883 20.1968 40.0152 20.5371 39.7132C20.6711 39.58 20.8524 39.5053 21.0413 39.5053C21.2303 39.5053 21.4115 39.58 21.5456 39.7132C22.4367 40.4973 23.4205 41.1693 24.475 41.7144L25.136 42.0452C25.1615 42.0579 25.173 42.0883 25.1639 42.1154C25.1564 42.1375 25.1327 42.1497 25.1098 42.1447C25.0132 42.1233 24.919 42.0919 24.8288 42.0511C24.0029 41.5274 23.0326 41.2779 22.0564 41.3383C21.0803 41.3986 20.1481 41.7658 19.393 42.3873C19.0773 42.6179 19.0843 43.0929 19.4282 43.2788C19.4389 43.2846 19.4497 43.2904 19.4605 43.2961C20.6866 43.8842 22.0807 44.0213 23.3978 43.6833C23.7192 43.6109 24.0223 43.4735 24.2886 43.2796C24.4249 43.1802 24.5502 43.0672 24.6624 42.9424C24.8761 42.7048 25.0404 42.3917 25.3474 42.3032C25.5023 42.2586 25.6667 42.2586 25.8215 42.3034C26.7174 42.6501 27.6483 42.8983 28.5978 43.0438C28.6373 43.0503 28.677 43.055 28.7169 43.058C28.8067 43.0647 28.8922 43.0013 28.878 42.9123C28.87 42.8626 28.8505 42.8155 28.8211 42.7746C28.7917 42.7338 28.7532 42.7004 28.7086 42.677C28.6641 42.6537 28.6148 42.6411 28.5646 42.6402C28.5645 42.6402 28.5643 42.6403 28.5643 42.6405Z" fill="url(#paint1_linear_0_6)" fill-opacity="0.6"/>
<path d="M28.5643 42.6405C28.5643 42.6406 28.5642 42.6408 28.564 42.6407C27.6183 42.4859 26.6928 42.2264 25.8045 41.867C25.6045 41.8166 25.4323 41.6895 25.3254 41.5131C25.2184 41.3368 25.1853 41.1254 25.2331 40.9247C25.3421 39.9661 25.1726 38.9963 24.7449 38.1314C24.2974 37.1972 23.5752 36.422 22.675 35.9096C22.5617 35.8524 22.4212 35.9484 22.4366 36.0744C22.4432 36.1277 22.4498 36.1784 22.4562 36.2293C22.5841 37.2929 22.7971 38.3445 23.0933 39.374C23.3335 40.1267 23.8592 40.7553 24.5577 41.1247C24.6477 41.1759 24.7449 41.2132 24.8458 41.2356C24.8664 41.2402 24.8876 41.2417 24.9086 41.2428C25.0266 41.2488 25.0872 41.2893 25.1174 41.3649C25.1593 41.4695 25.0274 41.5629 24.9267 41.5125C23.575 40.877 22.3362 40.0248 21.2593 38.9898C21.1438 38.8543 21.071 38.6877 21.05 38.511C21.029 38.3342 21.0608 38.1552 21.1413 37.9965C21.6274 36.6466 21.6166 35.1677 21.1109 33.8251C20.8681 33.12 20.4912 32.4685 20.0009 31.9066C19.9287 31.8344 19.7968 31.8849 19.7833 31.9861C19.7443 32.2783 19.7076 32.5522 19.6824 32.8172C19.6137 33.4877 19.531 34.1631 19.4976 34.8366C19.3754 35.754 19.5843 36.6849 20.0866 37.4621C20.2603 37.7113 20.4768 37.9276 20.7261 38.101C20.9392 38.2609 20.6501 38.388 20.4687 38.193C20.372 38.089 20.2782 37.987 20.1875 37.8822C19.3743 36.9733 18.6684 35.9738 18.0836 34.9035C18.0141 34.7451 17.9882 34.5709 18.0088 34.3992C18.0293 34.2274 18.0954 34.0642 18.2003 33.9266C19.5468 31.9072 19.5134 29.8039 18.638 27.6337C18.6226 27.5863 18.5916 27.5534 18.5743 27.5078C18.5721 27.5019 18.5729 27.4987 18.5697 27.4932C18.5511 27.4618 18.4923 27.4949 18.4794 27.5291C17.9778 28.852 17.3234 30.1139 17.1906 31.5376C17.1257 31.9611 17.149 32.3934 17.2591 32.8074C17.3691 33.2215 17.5635 33.6083 17.8301 33.9436C17.9077 34.0369 17.8855 34.2018 17.8946 34.3328C17.896 34.3518 17.8812 34.3721 17.8631 34.3776C17.8345 34.3862 17.7996 34.372 17.7853 34.3458L17.5098 33.8415C16.8311 32.4365 16.301 30.9646 15.928 29.4495C15.8846 29.3204 15.9282 29.181 15.9822 29.056C16.108 28.7646 16.3026 28.5068 16.5505 28.3054C17.1963 27.801 17.6864 27.1243 17.9645 26.3535C18.4632 25.1571 18.6091 23.843 18.3851 22.5663C18.3833 22.5493 18.3797 22.5327 18.3744 22.5166C18.3645 22.4865 18.3178 22.4721 18.2911 22.489C18.2789 22.4966 18.2796 22.5064 18.2712 22.5181C17.6687 23.3523 17.0175 24.1555 16.4484 25.0228C15.863 25.8098 15.6039 26.7923 15.725 27.7656C15.7507 27.9716 15.8133 28.1714 15.9098 28.3553C16.0604 28.5658 15.7037 28.5524 15.6525 28.2987C15.5983 28.0297 15.5505 27.7716 15.5232 27.5133C15.4218 26.4919 15.3587 25.482 15.2897 24.4636C15.2663 24.119 15.2521 23.7543 15.4357 23.4617C15.6191 23.1695 15.9617 23.0393 16.2696 22.8837C17.0297 22.4997 17.6538 21.8835 18.0471 21.1183C18.5979 20.1952 18.9048 19.1471 18.9389 18.0727V17.8873C18.9389 17.8439 18.8689 17.8346 18.8353 17.8619C18.7194 17.9559 18.5963 18.0421 18.4836 18.1396C17.8775 18.6441 17.2551 19.1323 16.6824 19.6715C15.985 20.3005 15.5571 21.1743 15.4879 22.111C15.4736 22.3583 15.485 22.6064 15.5219 22.8514C15.5723 23.0898 15.2356 22.987 15.2485 22.7437C15.2496 22.7234 15.2509 22.7032 15.2526 22.683C15.334 21.1872 15.5424 19.701 15.8757 18.2405C15.9195 18.0406 16.0304 17.8617 16.1898 17.7335C16.3492 17.6052 16.5477 17.5353 16.7523 17.5353C17.6336 17.4836 18.4604 17.0915 19.0581 16.4417C19.7928 15.7157 20.3261 14.8112 20.6058 13.8168C20.6135 13.7891 20.6194 13.7609 20.6234 13.7324C20.6234 13.7293 20.6229 13.7263 20.622 13.7233C20.615 13.7 20.5883 13.6744 20.5651 13.6672C20.559 13.6653 20.5529 13.6668 20.547 13.6693C19.6749 14.038 18.7682 14.3751 17.914 14.7937C17.5385 14.9666 17.2078 15.2236 16.9477 15.545C16.6876 15.8663 16.5051 16.2433 16.4143 16.6466C16.3719 16.8341 16.3549 17.0266 16.3639 17.2186C16.3754 17.3673 16.3247 17.4539 16.2285 17.5203C16.1558 17.5705 16.0356 17.5043 16.0636 17.4204C16.4284 16.0666 16.9067 14.7463 17.4933 13.4734C17.6145 13.2104 17.7621 12.9379 18.0276 12.8223C18.293 12.7067 18.5911 12.7958 18.8765 12.8446C19.9659 13.0307 20.8813 12.5815 21.734 11.8819C22.0849 11.5864 22.3928 11.2446 22.6495 10.8663C22.7812 10.6724 22.6411 10.4228 22.407 10.4345C21.5661 10.4308 20.7285 10.5383 19.9158 10.7543C19.5209 10.8595 19.1621 11.0701 18.8776 11.3635C18.5931 11.6568 18.3937 12.022 18.3006 12.4199C18.2766 12.5292 18.2268 12.5839 18.1582 12.6174C18.0588 12.666 17.9481 12.5357 17.9979 12.4369C18.4997 11.4552 19.077 10.5141 19.7245 9.62231C19.8944 9.38837 20.0794 9.13718 20.3597 9.06616C20.6396 8.99524 20.9157 9.14441 21.1853 9.24772C22.3948 9.71112 23.5095 9.38467 24.5583 8.58105C24.8342 8.35112 25.0923 8.10074 25.3305 7.83202C25.3526 7.80716 25.3566 7.77122 25.338 7.74368C25.3228 7.7212 25.2996 7.70494 25.2728 7.70099C25.1497 7.6829 25.0158 7.65404 24.8951 7.63881C24.1792 7.46544 23.4427 7.3918 22.7067 7.41997C22.285 7.42594 21.8735 7.55064 21.5194 7.77977C21.1654 8.00889 20.8831 8.33316 20.7049 8.71539C20.6137 8.91687 20.4685 8.63251 20.6101 8.46261C20.8013 8.23313 20.9869 8.01266 21.193 7.80659C21.6659 7.33365 22.1352 6.88198 22.6234 6.41025C22.7857 6.26592 23.0188 6.2562 23.2335 6.22349C23.7126 6.15051 24.1746 5.98734 24.5946 5.74162C25.1087 5.44083 25.5458 5.02458 25.8714 4.52578C26.2406 4.01805 26.5145 3.44751 26.6799 2.84191C26.7093 2.75467 26.604 2.67674 26.5173 2.70788C26.2348 2.80942 25.952 2.90961 25.6689 3.00847C24.8413 3.24356 24.0806 3.67004 23.4483 4.25344C23.197 4.47467 22.9996 4.75046 22.8713 5.0597C22.7429 5.36895 22.687 5.70345 22.7079 6.03761C22.7065 6.06997 22.6985 6.10169 22.6843 6.13078C22.67 6.15987 22.6499 6.18569 22.6252 6.20661C21.5479 7.16543 20.5685 8.22886 19.7014 9.38122C19.6984 9.38514 19.696 9.38939 19.6932 9.39346C19.6826 9.40929 19.6647 9.42139 19.6477 9.43445C19.6267 9.45057 19.5872 9.46054 19.5627 9.45045C19.5496 9.44505 19.5461 9.43033 19.5501 9.41675C19.5885 9.28645 19.6443 9.16199 19.7161 9.04673C19.7352 9.016 19.7579 8.98771 19.7821 8.96078C20.7296 7.90455 21.2827 6.55232 21.3462 5.13367C21.3733 4.49447 21.3668 3.85429 21.3267 3.21576C21.2989 3.04066 21.0853 2.998 20.9633 3.12671C20.7308 3.37218 20.5189 3.59151 20.334 3.83825C19.6006 4.75559 19.1294 5.85447 18.9705 7.01815C18.8986 7.36658 18.9006 7.72622 18.9763 8.07385C19.052 8.42148 19.1998 8.74937 19.41 9.03636C19.4497 9.0893 19.4678 9.15539 19.4605 9.22116C19.4505 9.56288 19.3454 9.89505 19.1572 10.1804C18.3628 11.2815 17.6808 12.4594 17.1213 13.6965L17.032 13.8752C17.0249 13.8893 17.012 13.898 16.9968 13.8933C16.9735 13.886 16.9547 13.86 16.9586 13.836C16.975 13.7365 16.9977 13.6381 17.0265 13.5415C17.0328 13.5204 17.0416 13.5002 17.0523 13.4809C17.7132 12.2837 18.0119 10.9198 17.9116 9.5555C17.8683 8.70696 17.6504 7.87648 17.2715 7.11602C17.2289 7.02757 17.1107 7.02587 17.056 7.10734C17.0135 7.17057 16.9732 7.23531 16.9353 7.30143C16.1753 8.78563 15.8432 10.452 15.976 12.1141C16.0199 12.6783 16.2719 13.2061 16.683 13.595C16.7853 13.6972 16.7925 13.8554 16.7917 14.0001C16.7904 14.2627 16.7479 14.524 16.6654 14.7743C16.1478 16.0241 15.7594 17.3236 15.5062 18.6524C15.5049 18.659 15.505 18.6598 15.504 18.6665C15.4943 18.7303 15.3959 18.6747 15.3917 18.6103C15.3853 18.5105 15.3831 18.4104 15.3852 18.3104C15.4867 17.5524 15.6709 16.7961 15.7043 16.0387C15.7745 14.5271 15.2468 13.0488 14.2358 11.9234C14.2285 11.9153 14.2197 11.9086 14.21 11.9036C14.1574 11.8764 14.0906 11.9019 14.0723 11.9582C14.0091 12.1522 13.9302 12.3365 13.8879 12.5336C13.5652 13.9747 13.571 15.47 13.9049 16.9086C13.9651 17.2389 14.0993 17.5514 14.2974 17.8225C14.4809 18.0735 14.7148 18.2831 14.9839 18.4379C15.0268 18.4626 15.0774 18.4765 15.1124 18.5115C15.13 18.5291 15.1429 18.5509 15.1499 18.5748C15.243 18.886 15.2883 19.2094 15.2843 19.5341C15.0803 20.9558 14.968 22.3891 14.9481 23.8252C14.9481 23.8512 14.9378 23.8871 14.9329 23.9178C14.9308 23.9316 14.9225 23.9423 14.9086 23.9436C14.8881 23.9454 14.8559 23.9348 14.8513 23.9147C14.8277 23.8137 14.8097 23.7114 14.7971 23.6084C14.7956 23.5962 14.7953 23.5838 14.7962 23.5714C14.8535 22.7421 14.7851 21.9089 14.5931 21.1C14.2173 19.7337 13.3964 18.5322 12.2608 17.6855C12.2446 17.6734 12.2309 17.6581 12.2182 17.6424C12.1603 17.5712 12.0578 17.6176 12.0383 17.7073C12.0291 17.7494 12.0223 17.7921 12.018 17.835C11.9418 19.0281 12.1077 20.2243 12.5056 21.3517C12.6713 21.8347 12.8796 22.302 13.1281 22.748C13.2634 23.0256 13.4591 23.2694 13.7008 23.4615C13.9425 23.6537 14.2241 23.7894 14.525 23.8587C14.6688 23.8956 14.7476 24.0421 14.8031 24.1798C14.8814 24.3738 14.9351 24.5771 14.9627 24.7851C14.9904 26.2914 15.1709 27.7911 15.5013 29.261C15.5116 29.2895 15.5139 29.3202 15.508 29.3499C15.4996 29.3925 15.447 29.3875 15.4304 29.3474C15.405 29.2861 15.3844 29.2229 15.3688 29.1583C15.2026 28.1895 14.8232 27.2696 14.2581 26.4653C13.5594 25.4739 12.5722 24.7218 11.4308 24.3115C11.4054 24.2988 11.3799 24.2953 11.355 24.2874C11.338 24.2821 11.3206 24.2772 11.3029 24.2786C11.2567 24.2824 11.225 24.3236 11.2233 24.3699C11.2177 24.5193 11.2304 24.669 11.2612 24.8155C11.5701 26.2786 12.2745 27.6289 13.2977 28.7194C13.5224 28.9826 13.8062 29.189 14.1259 29.3216C14.4456 29.4543 14.7921 29.5096 15.1371 29.4829C15.2965 29.481 15.4036 29.6312 15.4872 29.7668C15.6037 29.9557 15.7061 30.153 15.7937 30.3571C16.2629 31.8676 16.8822 33.3273 17.6423 34.7145C17.6835 34.7821 17.7132 34.8613 17.7497 34.9334C17.7637 34.9611 17.7546 34.9965 17.7288 35.0137C17.7085 35.0272 17.6816 35.0219 17.6661 35.0031C17.5876 34.9077 17.5178 34.8054 17.4575 34.6974C17.0982 33.9359 16.5887 33.2548 15.9596 32.695C15.0602 31.8863 13.8882 31.4477 12.6788 31.4671C12.3414 31.4671 12.3256 31.5005 12.4265 31.8379C12.6243 32.4016 12.9207 32.9257 13.3019 33.3856C13.794 34.0717 14.4317 34.6405 15.1694 35.0512C15.5014 35.2506 15.8766 35.3669 16.2632 35.3903C16.6498 35.4137 17.0364 35.3435 17.39 35.1856C17.4405 35.1692 17.5092 35.1527 17.5438 35.1673C18.0218 35.4283 18.3248 35.9066 18.6343 36.3548C19.2954 37.3121 20.0401 38.2096 20.8599 39.0366C20.8962 39.0708 20.929 39.1086 20.9577 39.1494C20.9597 39.1524 20.9601 39.1529 20.9624 39.1557C20.9994 39.2005 20.9022 39.2557 20.8559 39.2206C20.775 39.1593 20.6981 39.0928 20.6258 39.0214C20.0798 38.3792 19.3703 37.8968 18.5724 37.6251C17.36 37.2744 16.0619 37.3708 14.9147 37.8968C14.8326 37.9467 14.8223 38.0566 14.8807 38.1328C15.0018 38.291 15.1313 38.4427 15.2685 38.5874C16.3567 39.6251 17.803 40.2035 19.3067 40.2025C19.7614 40.1883 20.1968 40.0152 20.5371 39.7132C20.6711 39.58 20.8524 39.5053 21.0413 39.5053C21.2303 39.5053 21.4115 39.58 21.5456 39.7132C22.4367 40.4973 23.4205 41.1693 24.475 41.7144L25.136 42.0452C25.1615 42.0579 25.173 42.0883 25.1639 42.1154C25.1564 42.1375 25.1327 42.1497 25.1098 42.1447C25.0132 42.1233 24.919 42.0919 24.8288 42.0511C24.0029 41.5274 23.0326 41.2779 22.0564 41.3383C21.0803 41.3986 20.1481 41.7658 19.393 42.3873C19.0773 42.6179 19.0843 43.0929 19.4282 43.2788C19.4389 43.2846 19.4497 43.2904 19.4605 43.2961C20.6866 43.8842 22.0807 44.0213 23.3978 43.6833C23.7192 43.6109 24.0223 43.4735 24.2886 43.2796C24.4249 43.1802 24.5502 43.0672 24.6624 42.9424C24.8761 42.7048 25.0404 42.3917 25.3474 42.3032C25.5023 42.2586 25.6667 42.2586 25.8215 42.3034C26.7174 42.6501 27.6483 42.8983 28.5978 43.0438C28.6373 43.0503 28.677 43.055 28.7169 43.058C28.8067 43.0647 28.8922 43.0013 28.878 42.9123C28.87 42.8626 28.8505 42.8155 28.8211 42.7746C28.7917 42.7338 28.7532 42.7004 28.7086 42.677C28.6641 42.6537 28.6148 42.6411 28.5646 42.6402C28.5645 42.6402 28.5643 42.6403 28.5643 42.6405Z" stroke="url(#paint2_linear_0_6)" stroke-width="0.4" mask="url(#path-1-inside-1_0_6)"/>
</g>
</g>
<defs>
<linearGradient id="paint0_linear_0_6" x1="18.9483" y1="-21.5833" x2="-7.06892" y2="30.2523" gradientUnits="userSpaceOnUse">
<stop stop-color="#0089FF"/>
<stop offset="1" stop-color="#0089FF" stop-opacity="0.4"/>
</linearGradient>
<linearGradient id="paint1_linear_0_6" x1="25.6496" y1="2.63766" x2="15.6447" y2="4.21685" gradientUnits="userSpaceOnUse">
<stop stop-color="#FF82E6"/>
<stop offset="1" stop-color="#FF82E6" stop-opacity="0.2"/>
</linearGradient>
<linearGradient id="paint2_linear_0_6" x1="11.222" y1="2.63766" x2="31.0753" y2="3.7224" gradientUnits="userSpaceOnUse">
<stop stop-color="white" stop-opacity="0.8"/>
<stop offset="1" stop-color="white" stop-opacity="0.4"/>
</linearGradient>
</defs>
</svg>
