<svg width="24" height="24" viewBox="0 0 24 24" fill="none" xmlns="http://www.w3.org/2000/svg">
<path fill-rule="evenodd" clip-rule="evenodd" d="M12 1.34375C17.184 1.34375 21.36 5.23196 21.792 10.1279C22.9439 10.7039 23.5195 11.7119 23.5195 13.0078V15.3115C23.5195 16.3195 22.9441 17.3283 22.0801 17.9043C21.2161 18.4803 20.2077 18.6239 19.3438 18.3359C18.3358 19.3439 17.0396 20.2077 15.5996 20.6396C15.4556 21.7915 14.4482 22.6561 13.1523 22.6562H11.4238C10.1279 22.6562 8.97559 21.6475 8.97559 20.3516C8.97585 19.0558 10.128 18.0479 11.4238 18.0479H13.1523C13.8722 18.0479 14.5925 18.3362 15.0244 18.9121C15.8883 18.6241 16.8963 18.048 17.6162 17.3281C17.1842 16.7521 16.8955 16.0315 16.8955 15.3115V13.0078C16.8956 11.4239 18.1924 9.98384 19.7764 9.83984C19.2003 6.09589 15.888 3.21582 12 3.21582C8.11203 3.21582 4.79968 6.09589 4.22363 9.83984C5.80757 10.1278 7.10341 11.4239 7.10352 13.0078V15.3115C7.10352 17.0395 5.66399 18.4805 3.79199 18.4805C1.91999 18.4805 0.480469 17.0395 0.480469 15.3115V13.0078C0.480547 11.8559 1.20006 10.7039 2.20801 10.1279C2.64004 5.23196 6.81603 1.34375 12 1.34375ZM11.4238 19.9199C11.1361 19.92 10.9923 20.0639 10.9922 20.3516C10.9922 20.6395 11.1359 20.7841 11.4238 20.7842H13.1523C13.4401 20.7841 13.584 20.6394 13.584 20.3516C13.5838 20.064 13.44 19.92 13.1523 19.9199H11.4238ZM3.79199 11.7119C3.07206 11.7119 2.49619 12.2879 2.49609 13.0078V15.3115C2.49609 16.0315 3.07199 16.6084 3.79199 16.6084C4.51199 16.6084 5.08789 16.0315 5.08789 15.3115V13.0078C5.23175 12.2879 4.51194 11.7119 3.79199 11.7119ZM20.208 11.7119C19.4881 11.7119 18.9122 12.2879 18.9121 13.0078V15.3115C18.9121 16.0315 19.488 16.6084 20.208 16.6084C20.928 16.6084 21.5039 16.0315 21.5039 15.3115V13.0078C21.5038 12.2879 20.9279 11.7119 20.208 11.7119Z" fill="#171C21"/>
</svg>
