<svg width="24" height="24" viewBox="0 0 24 24" fill="none" xmlns="http://www.w3.org/2000/svg">
<g clip-path="url(#clip0_426_283573)">
<path d="M6.05147 4.72373L17.9323 4.71019C18.0596 4.71019 18.1869 4.63976 18.2573 4.52599C18.9481 3.40996 18.7801 2.00138 17.8483 1.06956C16.7621 -0.0166747 14.9851 -0.0166747 13.8826 1.06956L11.9919 2.98739L10.0876 1.0831C9.00135 -0.00313071 7.22438 -0.00313071 6.1219 1.0831C5.19007 2.01493 5.03567 3.43976 5.72641 4.53953C5.79955 4.6533 5.92415 4.72373 6.05147 4.72373ZM21.8844 5.71244H2.10203C0.945373 5.71244 0 6.61448 0 7.7305C0 8.84653 0.931829 9.73502 2.10203 9.73502H21.898C23.0546 9.73502 24 8.83299 24 7.71696C24 6.60093 23.0546 5.71244 21.8844 5.71244ZM10.6239 10.7346H2.3702V20.7951C2.3702 22.4176 3.69752 23.7449 5.32009 23.7449H11.1467V10.7346H10.6239ZM20.9255 10.7346H12.8126V23.7449H18.6691C20.2916 23.7449 21.619 22.4176 21.619 20.7951V10.7346H20.9255Z" fill="white"/>
</g>
<defs>
<clipPath id="clip0_426_283573">
<rect width="24" height="24" fill="white"/>
</clipPath>
</defs>
</svg>
