<svg width="24" height="24" viewBox="0 0 24 24" fill="none" xmlns="http://www.w3.org/2000/svg">
<path d="M12 6C12.0563 6 12.1113 6.00571 12.165 6.01465C12.1738 6.01611 12.1827 6.01686 12.1914 6.01855L12.2012 6.02051C12.211 6.02252 12.2207 6.02504 12.2305 6.02734C12.251 6.0322 12.2717 6.0368 12.292 6.04297C12.3387 6.05719 12.3833 6.0761 12.4268 6.09668C12.4428 6.10425 12.4589 6.11165 12.4746 6.12012C12.5603 6.16646 12.6387 6.22462 12.707 6.29297L19.707 13.293C20.0975 13.6835 20.0975 14.3165 19.707 14.707C19.3165 15.0975 18.6835 15.0975 18.293 14.707L13 9.41406V22C13 22.5523 12.5523 23 12 23C11.4477 23 11 22.5523 11 22V9.41406L5.70703 14.707C5.3165 15.0975 4.68347 15.0975 4.29297 14.707C3.90246 14.3165 3.9025 13.6835 4.29297 13.293L11.293 6.29297C11.3611 6.22482 11.439 6.16639 11.5244 6.12012C11.5382 6.11268 11.5524 6.10635 11.5664 6.09961C11.6117 6.07777 11.6583 6.05787 11.707 6.04297C11.7273 6.03678 11.748 6.03221 11.7686 6.02734C11.7799 6.02465 11.7912 6.02183 11.8027 6.01953L11.8086 6.01855L11.8975 6.00488C11.9312 6.00145 11.9654 6 12 6Z" fill="#171C21"/>
<path d="M20 2C20.5523 2 21 2.44772 21 3C21 3.55228 20.5523 4 20 4H4C3.44772 4 3 3.55228 3 3C3 2.44772 3.44772 2 4 2H20Z" fill="#171C21"/>
</svg>
