<svg preserveAspectRatio="none" width="100%" height="100%" overflow="visible" style="display: block;" viewBox="0 0 16 16" fill="none" xmlns="http://www.w3.org/2000/svg">
<path id="Shape" d="M7.62198 0.283299C7.73245 -0.0944331 8.26755 -0.094433 8.37802 0.283299L9.43336 3.89198C9.81043 5.18133 10.8187 6.18957 12.108 6.56664L15.7167 7.62198C16.0944 7.73245 16.0944 8.26755 15.7167 8.37802L12.108 9.43336C10.8187 9.81043 9.81043 10.8187 9.43336 12.108L8.37802 15.7167C8.26755 16.0944 7.73245 16.0944 7.62198 15.7167L6.56664 12.108C6.18957 10.8187 5.18133 9.81043 3.89198 9.43336L0.283299 8.37802C-0.0944331 8.26755 -0.094433 7.73245 0.283299 7.62198L3.89198 6.56664C5.18133 6.18957 6.18957 5.18133 6.56664 3.89198L7.62198 0.283299Z" fill="var(--fill-0, white)"/>
</svg>
