<svg width="44" height="44" viewBox="0 0 44 44" fill="none" xmlns="http://www.w3.org/2000/svg">
<path d="M15.7452 28.4272H28.255C28.6864 28.4272 28.9883 28.7723 28.9883 29.1605C28.9883 29.5919 28.6432 29.8939 28.255 29.8939H15.7452C15.3138 29.8939 15.0119 29.5488 15.0119 29.1605C14.9687 28.7723 15.3138 28.4272 15.7452 28.4272ZM16.004 31.49H29.506C30.0668 31.49 30.4981 31.0586 30.4981 30.4978V14.7096C30.4981 14.2782 30.8432 13.9762 31.2315 13.9762C31.6629 13.9762 31.9648 14.3213 31.9648 14.7096V31.0154C31.9648 32.137 31.0589 32.9998 29.9805 32.9998H14.0197C12.8981 32.9998 12.0354 32.0939 12.0354 31.0154V12.9841C12.0354 11.8625 12.9413 10.9998 14.0197 10.9998H27.004C28.1256 10.9998 28.9883 11.9056 28.9883 12.9841V24.89C28.9883 26.0115 28.0825 26.8743 27.004 26.8743H14.4942C13.9334 26.8743 13.5021 27.3056 13.5021 27.8664V30.4547C13.5021 31.0154 13.9334 31.4468 14.4942 31.4468L16.004 31.49Z" fill="#C3C6C9"/>
<path d="M15.7452 28.4272H28.255C28.6864 28.4272 28.9883 28.7723 28.9883 29.1605C28.9883 29.5919 28.6432 29.8939 28.255 29.8939H15.7452C15.3138 29.8939 15.0119 29.5488 15.0119 29.1605C14.9687 28.7723 15.3138 28.4272 15.7452 28.4272ZM16.004 31.49H29.506C30.0668 31.49 30.4981 31.0586 30.4981 30.4978V14.7096C30.4981 14.2782 30.8432 13.9762 31.2315 13.9762C31.6629 13.9762 31.9648 14.3213 31.9648 14.7096V31.0154C31.9648 32.137 31.0589 32.9998 29.9805 32.9998H14.0197C12.8981 32.9998 12.0354 32.0939 12.0354 31.0154V12.9841C12.0354 11.8625 12.9413 10.9998 14.0197 10.9998H27.004C28.1256 10.9998 28.9883 11.9056 28.9883 12.9841V24.89C28.9883 26.0115 28.0825 26.8743 27.004 26.8743H14.4942C13.9334 26.8743 13.5021 27.3056 13.5021 27.8664V30.4547C13.5021 31.0154 13.9334 31.4468 14.4942 31.4468L16.004 31.49Z" fill="#0089FF" fill-opacity="0.04"/>
<path d="M15 13.5C15 13.2239 15.2239 13 15.5 13H18.5C18.7761 13 19 13.2239 19 13.5V17.7929C19 18.2383 18.4614 18.4614 18.1464 18.1464L17.3536 17.3536C17.1583 17.1583 16.8417 17.1583 16.6464 17.3536L15.8536 18.1464C15.5386 18.4614 15 18.2383 15 17.7929V13.5Z" fill="white"/>
</svg>
