<svg width="24" height="24" viewBox="0 0 24 24" fill="none" xmlns="http://www.w3.org/2000/svg">
<path d="M7.2998 18C8.56999 18 9.5995 19.0296 9.59961 20.2998C9.59961 21.5701 8.57006 22.5996 7.2998 22.5996C6.02964 22.5995 5 21.57 5 20.2998C5.00011 19.0297 6.0297 18.0001 7.2998 18Z" fill="#171C21"/>
<path d="M7.2998 18C8.56999 18 9.5995 19.0296 9.59961 20.2998C9.59961 21.5701 8.57006 22.5996 7.2998 22.5996C6.02964 22.5995 5 21.57 5 20.2998C5.00011 19.0297 6.0297 18.0001 7.2998 18Z" fill="url(#paint0_linear_421_273235)"/>
<path d="M17.2998 18C18.57 18 19.5995 19.0296 19.5996 20.2998C19.5996 21.5701 18.5701 22.5996 17.2998 22.5996C16.0296 22.5995 15 21.57 15 20.2998C15.0001 19.0297 16.0297 18.0001 17.2998 18Z" fill="#171C21"/>
<path d="M17.2998 18C18.57 18 19.5995 19.0296 19.5996 20.2998C19.5996 21.5701 18.5701 22.5996 17.2998 22.5996C16.0296 22.5995 15 21.57 15 20.2998C15.0001 19.0297 16.0297 18.0001 17.2998 18Z" fill="url(#paint1_linear_421_273235)"/>
<path fill-rule="evenodd" clip-rule="evenodd" d="M3.13281 1C4.12793 1.00005 4.97138 1.73173 5.1123 2.7168L5.2959 4H20.5439C21.9474 4 22.9147 5.40786 22.4111 6.71777L20.6797 11.2178C20.3826 11.9901 19.6409 12.4999 18.8135 12.5H6.50977L6.86719 15H20C20.5523 15 21 15.4477 21 16C21 16.5523 20.5523 17 20 17H6.86719C5.87207 16.9999 5.02862 16.2683 4.8877 15.2832L3.13281 3H1C0.447715 3 0 2.55228 0 2C0 1.44772 0.447715 1 1 1H3.13281ZM6.22461 10.5H18.8135L20.5439 6H5.58105L6.22461 10.5Z" fill="#171C21"/>
<path fill-rule="evenodd" clip-rule="evenodd" d="M3.13281 1C4.12793 1.00005 4.97138 1.73173 5.1123 2.7168L5.2959 4H20.5439C21.9474 4 22.9147 5.40786 22.4111 6.71777L20.6797 11.2178C20.3826 11.9901 19.6409 12.4999 18.8135 12.5H6.50977L6.86719 15H20C20.5523 15 21 15.4477 21 16C21 16.5523 20.5523 17 20 17H6.86719C5.87207 16.9999 5.02862 16.2683 4.8877 15.2832L3.13281 3H1C0.447715 3 0 2.55228 0 2C0 1.44772 0.447715 1 1 1H3.13281ZM6.22461 10.5H18.8135L20.5439 6H5.58105L6.22461 10.5Z" fill="url(#paint2_linear_421_273235)"/>
<defs>
<linearGradient id="paint0_linear_421_273235" x1="14.7925" y1="22.5996" x2="30.4647" y2="-9.82643" gradientUnits="userSpaceOnUse">
<stop stop-color="#0089FF"/>
<stop offset="1" stop-color="#4646FC"/>
</linearGradient>
<linearGradient id="paint1_linear_421_273235" x1="14.7925" y1="22.5996" x2="30.4647" y2="-9.82643" gradientUnits="userSpaceOnUse">
<stop stop-color="#0089FF"/>
<stop offset="1" stop-color="#4646FC"/>
</linearGradient>
<linearGradient id="paint2_linear_421_273235" x1="14.7925" y1="22.5996" x2="30.4647" y2="-9.82643" gradientUnits="userSpaceOnUse">
<stop stop-color="#0089FF"/>
<stop offset="1" stop-color="#4646FC"/>
</linearGradient>
</defs>
</svg>
