<svg width="24" height="24" viewBox="0 0 24 24" fill="none" xmlns="http://www.w3.org/2000/svg">
<path d="M12 9.99943C12.5521 9.99943 12.9998 10.4474 13 10.9994V15.4994C13 16.0517 12.5523 16.4994 12 16.4994C11.4477 16.4994 11 16.0517 11 15.4994V10.9994C11.0002 10.4474 11.4479 9.99943 12 9.99943Z" fill="#171C21"/>
<path d="M12 9.99943C12.5521 9.99943 12.9998 10.4474 13 10.9994V15.4994C13 16.0517 12.5523 16.4994 12 16.4994C11.4477 16.4994 11 16.0517 11 15.4994V10.9994C11.0002 10.4474 11.4479 9.99943 12 9.99943Z" fill="url(#paint0_linear_421_273250)"/>
<path d="M12 6.49552C12.2651 6.49552 12.5195 6.6011 12.707 6.78849C12.8945 6.97592 12.9999 7.23047 13 7.49552V7.49943C13 7.76454 12.8944 8.01895 12.707 8.20646C12.5195 8.394 12.2652 8.49943 12 8.49943H11.9961C11.4438 8.49943 10.9961 8.05171 10.9961 7.49943V7.49552C10.9962 7.23047 11.1016 6.97592 11.2891 6.78849C11.4766 6.6011 11.731 6.49552 11.9961 6.49552H12Z" fill="#171C21"/>
<path d="M12 6.49552C12.2651 6.49552 12.5195 6.6011 12.707 6.78849C12.8945 6.97592 12.9999 7.23047 13 7.49552V7.49943C13 7.76454 12.8944 8.01895 12.707 8.20646C12.5195 8.394 12.2652 8.49943 12 8.49943H11.9961C11.4438 8.49943 10.9961 8.05171 10.9961 7.49943V7.49552C10.9962 7.23047 11.1016 6.97592 11.2891 6.78849C11.4766 6.6011 11.731 6.49552 11.9961 6.49552H12Z" fill="url(#paint1_linear_421_273250)"/>
<path fill-rule="evenodd" clip-rule="evenodd" d="M11.0088 0.786539C11.6503 0.562039 12.3497 0.562039 12.9912 0.786539L19.9912 3.23673C21.1943 3.65786 21.9998 4.79416 22 6.06877V11.9994C22 15.4474 20.2271 18.034 18.2734 19.8285C16.3254 21.6177 14.1212 22.695 13.041 23.1596C12.3727 23.4469 11.6273 23.4469 10.959 23.1596C9.87877 22.695 7.67457 21.6177 5.72656 19.8285C3.77286 18.034 2 15.4474 2 11.9994V6.06877C2.00019 4.79416 2.80573 3.65786 4.00879 3.23673L11.0088 0.786539ZM12.3301 2.67423C12.1165 2.5996 11.8835 2.5996 11.6699 2.67423L4.66992 5.12443C4.26898 5.26476 4.00019 5.64401 4 6.06877V11.9994C4 14.6962 5.37288 16.7868 7.08008 18.3549C8.793 19.9282 10.7664 20.8991 11.749 21.3217C11.9131 21.3922 12.0869 21.3922 12.251 21.3217C13.2336 20.8991 15.207 19.9282 16.9199 18.3549C18.6271 16.7868 20 14.6962 20 11.9994V6.06877C19.9998 5.64401 19.731 5.26476 19.3301 5.12443L12.3301 2.67423Z" fill="#171C21"/>
<path fill-rule="evenodd" clip-rule="evenodd" d="M11.0088 0.786539C11.6503 0.562039 12.3497 0.562039 12.9912 0.786539L19.9912 3.23673C21.1943 3.65786 21.9998 4.79416 22 6.06877V11.9994C22 15.4474 20.2271 18.034 18.2734 19.8285C16.3254 21.6177 14.1212 22.695 13.041 23.1596C12.3727 23.4469 11.6273 23.4469 10.959 23.1596C9.87877 22.695 7.67457 21.6177 5.72656 19.8285C3.77286 18.034 2 15.4474 2 11.9994V6.06877C2.00019 4.79416 2.80573 3.65786 4.00879 3.23673L11.0088 0.786539ZM12.3301 2.67423C12.1165 2.5996 11.8835 2.5996 11.6699 2.67423L4.66992 5.12443C4.26898 5.26476 4.00019 5.64401 4 6.06877V11.9994C4 14.6962 5.37288 16.7868 7.08008 18.3549C8.793 19.9282 10.7664 20.8991 11.749 21.3217C11.9131 21.3922 12.0869 21.3922 12.251 21.3217C13.2336 20.8991 15.207 19.9282 16.9199 18.3549C18.6271 16.7868 20 14.6962 20 11.9994V6.06877C19.9998 5.64401 19.731 5.26476 19.3301 5.12443L12.3301 2.67423Z" fill="url(#paint2_linear_421_273250)"/>
<defs>
<linearGradient id="paint0_linear_421_273250" x1="15.122" y1="23.3751" x2="33.3183" y2="-8.32339" gradientUnits="userSpaceOnUse">
<stop stop-color="#0089FF"/>
<stop offset="1" stop-color="#4646FC"/>
</linearGradient>
<linearGradient id="paint1_linear_421_273250" x1="15.122" y1="23.3751" x2="33.3183" y2="-8.32339" gradientUnits="userSpaceOnUse">
<stop stop-color="#0089FF"/>
<stop offset="1" stop-color="#4646FC"/>
</linearGradient>
<linearGradient id="paint2_linear_421_273250" x1="15.122" y1="23.3751" x2="33.3183" y2="-8.32339" gradientUnits="userSpaceOnUse">
<stop stop-color="#0089FF"/>
<stop offset="1" stop-color="#4646FC"/>
</linearGradient>
</defs>
</svg>
