<svg width="24" height="24" viewBox="0 0 24 24" fill="none" xmlns="http://www.w3.org/2000/svg">
<path d="M8.49951 5.49951C9.05163 5.49951 9.49925 5.94745 9.49951 6.49951V7.49951H10.4995C11.0516 7.49951 11.4992 7.94745 11.4995 8.49951C11.4995 9.0518 11.0518 9.49951 10.4995 9.49951H9.49951V10.4995C9.49951 11.0518 9.0518 11.4995 8.49951 11.4995C7.94741 11.4993 7.49951 11.0517 7.49951 10.4995V9.49951H6.49951C5.94742 9.49928 5.49951 9.05165 5.49951 8.49951C5.49978 7.94759 5.94759 7.49974 6.49951 7.49951H7.49951V6.49951C7.49978 5.94758 7.94757 5.49973 8.49951 5.49951Z" fill="#171C21"/>
<path d="M8.49951 5.49951C9.05163 5.49951 9.49925 5.94745 9.49951 6.49951V7.49951H10.4995C11.0516 7.49951 11.4992 7.94745 11.4995 8.49951C11.4995 9.0518 11.0518 9.49951 10.4995 9.49951H9.49951V10.4995C9.49951 11.0518 9.0518 11.4995 8.49951 11.4995C7.94741 11.4993 7.49951 11.0517 7.49951 10.4995V9.49951H6.49951C5.94742 9.49928 5.49951 9.05165 5.49951 8.49951C5.49978 7.94759 5.94759 7.49974 6.49951 7.49951H7.49951V6.49951C7.49978 5.94758 7.94757 5.49973 8.49951 5.49951Z" fill="url(#paint0_linear_421_273220)"/>
<path d="M18.0005 17.2505C18.2764 17.2507 18.5005 17.4745 18.5005 17.7505V18.7505C18.5002 19.0263 18.2763 19.2503 18.0005 19.2505H17.0005C16.7245 19.2505 16.5008 19.0264 16.5005 18.7505V17.7505C16.5005 17.4743 16.7243 17.2505 17.0005 17.2505H18.0005Z" fill="#171C21"/>
<path d="M18.0005 17.2505C18.2764 17.2507 18.5005 17.4745 18.5005 17.7505V18.7505C18.5002 19.0263 18.2763 19.2503 18.0005 19.2505H17.0005C16.7245 19.2505 16.5008 19.0264 16.5005 18.7505V17.7505C16.5005 17.4743 16.7243 17.2505 17.0005 17.2505H18.0005Z" fill="url(#paint1_linear_421_273220)"/>
<path d="M18.0005 14.0005C18.2764 14.0007 18.5005 14.2245 18.5005 14.5005V15.5005C18.5002 15.7763 18.2763 16.0003 18.0005 16.0005H17.0005C16.7245 16.0005 16.5008 15.7764 16.5005 15.5005V14.5005C16.5005 14.2243 16.7243 14.0005 17.0005 14.0005H18.0005Z" fill="#171C21"/>
<path d="M18.0005 14.0005C18.2764 14.0007 18.5005 14.2245 18.5005 14.5005V15.5005C18.5002 15.7763 18.2763 16.0003 18.0005 16.0005H17.0005C16.7245 16.0005 16.5008 15.7764 16.5005 15.5005V14.5005C16.5005 14.2243 16.7243 14.0005 17.0005 14.0005H18.0005Z" fill="url(#paint2_linear_421_273220)"/>
<path fill-rule="evenodd" clip-rule="evenodd" d="M12.1206 2.00049C13.7109 2.00078 15.0004 3.29003 15.0005 4.88037V10.0005H19.1196C20.7101 10.0006 21.9994 11.2899 21.9995 12.8804V20.0005L22.1021 20.0054C22.6064 20.0565 22.9995 20.4827 22.9995 21.0005C22.9993 21.5181 22.6062 21.9435 22.1021 21.9946L21.9995 22.0005H1.99951C1.44759 22.0003 0.999775 21.5524 0.999512 21.0005C0.999512 20.4483 1.44742 20.0007 1.99951 20.0005L2.00049 4.88037C2.00055 3.28988 3.28988 2.00055 4.88037 2.00049H12.1206ZM4.88037 4.00049C4.41877 4.00053 4.04023 4.35598 4.00342 4.80811L4.00049 4.88037V20.0005H5.49951V18.0005C5.49951 16.3438 6.84285 15.0007 8.49951 15.0005C10.1564 15.0005 11.4995 16.3436 11.4995 18.0005V20.0005H12.9995L13.0005 4.88037C13.0004 4.41895 12.6447 4.04046 12.1929 4.00342L12.1206 4.00049H4.88037ZM15.0005 20.0005H19.9995V12.8804C19.9995 12.4188 19.644 12.0402 19.1919 12.0034L19.1196 12.0005H15.0005V20.0005ZM8.49951 17.0005C7.94742 17.0007 7.49951 17.4483 7.49951 18.0005V20.0005H9.49951V18.0005C9.49951 17.4733 9.09116 17.0416 8.57373 17.0034L8.49951 17.0005Z" fill="#171C21"/>
<path fill-rule="evenodd" clip-rule="evenodd" d="M12.1206 2.00049C13.7109 2.00078 15.0004 3.29003 15.0005 4.88037V10.0005H19.1196C20.7101 10.0006 21.9994 11.2899 21.9995 12.8804V20.0005L22.1021 20.0054C22.6064 20.0565 22.9995 20.4827 22.9995 21.0005C22.9993 21.5181 22.6062 21.9435 22.1021 21.9946L21.9995 22.0005H1.99951C1.44759 22.0003 0.999775 21.5524 0.999512 21.0005C0.999512 20.4483 1.44742 20.0007 1.99951 20.0005L2.00049 4.88037C2.00055 3.28988 3.28988 2.00055 4.88037 2.00049H12.1206ZM4.88037 4.00049C4.41877 4.00053 4.04023 4.35598 4.00342 4.80811L4.00049 4.88037V20.0005H5.49951V18.0005C5.49951 16.3438 6.84285 15.0007 8.49951 15.0005C10.1564 15.0005 11.4995 16.3436 11.4995 18.0005V20.0005H12.9995L13.0005 4.88037C13.0004 4.41895 12.6447 4.04046 12.1929 4.00342L12.1206 4.00049H4.88037ZM15.0005 20.0005H19.9995V12.8804C19.9995 12.4188 19.644 12.0402 19.1919 12.0034L19.1196 12.0005H15.0005V20.0005ZM8.49951 17.0005C7.94742 17.0007 7.49951 17.4483 7.49951 18.0005V20.0005H9.49951V18.0005C9.49951 17.4733 9.09116 17.0416 8.57373 17.0034L8.49951 17.0005Z" fill="url(#paint3_linear_421_273220)"/>
<defs>
<linearGradient id="paint0_linear_421_273220" x1="15.4337" y1="22.0005" x2="29.4686" y2="-8.60094" gradientUnits="userSpaceOnUse">
<stop stop-color="#0089FF"/>
<stop offset="1" stop-color="#4646FC"/>
</linearGradient>
<linearGradient id="paint1_linear_421_273220" x1="15.4337" y1="22.0005" x2="29.4686" y2="-8.60094" gradientUnits="userSpaceOnUse">
<stop stop-color="#0089FF"/>
<stop offset="1" stop-color="#4646FC"/>
</linearGradient>
<linearGradient id="paint2_linear_421_273220" x1="15.4337" y1="22.0005" x2="29.4686" y2="-8.60094" gradientUnits="userSpaceOnUse">
<stop stop-color="#0089FF"/>
<stop offset="1" stop-color="#4646FC"/>
</linearGradient>
<linearGradient id="paint3_linear_421_273220" x1="15.4337" y1="22.0005" x2="29.4686" y2="-8.60094" gradientUnits="userSpaceOnUse">
<stop stop-color="#0089FF"/>
<stop offset="1" stop-color="#4646FC"/>
</linearGradient>
</defs>
</svg>
