<svg width="44" height="44" viewBox="0 0 44 44" fill="none" xmlns="http://www.w3.org/2000/svg">
<g clip-path="url(#clip0_159_28778)">
<path d="M31.4708 18.5703C31.1468 13.7801 27.0671 9.97974 22.097 9.97974C17.1478 9.97974 13.0829 13.7474 12.7277 18.5079C11.396 19.0756 10.4612 20.3969 10.4612 21.9337V25.7548C10.4612 27.8073 12.1317 29.4779 14.1842 29.4779H15.6185C16.3631 29.4779 16.9665 28.8745 16.9665 28.1298V19.5586C16.9665 18.814 16.3631 18.2106 15.6185 18.2106H15.4713C15.9573 15.082 18.7426 12.6758 22.097 12.6758C25.4515 12.6758 28.2382 15.082 28.7228 18.2106H28.4523C27.7077 18.2106 27.1042 18.814 27.1042 19.5586V28.1298C27.1042 28.6173 27.3643 29.0439 27.7522 29.2802C26.8724 30.1348 25.4708 31.1113 23.4941 31.3907C23.2475 31.2073 22.9483 31.1083 22.641 31.1083H21.6586C20.8649 31.1083 20.2229 31.7518 20.2229 32.544C20.2229 33.3377 20.8664 33.9797 21.6586 33.9797H22.641C23.0661 33.9797 23.4481 33.794 23.7111 33.4997C27.4713 33.0092 29.613 30.548 30.4007 29.4392C32.211 29.1881 33.6096 27.6334 33.6096 25.7563V21.9337C33.6081 20.4474 32.7312 19.1663 31.4708 18.5703Z" fill="#C3C6C9"/>
<path d="M31.4708 18.5703C31.1468 13.7801 27.0671 9.97974 22.097 9.97974C17.1478 9.97974 13.0829 13.7474 12.7277 18.5079C11.396 19.0756 10.4612 20.3969 10.4612 21.9337V25.7548C10.4612 27.8073 12.1317 29.4779 14.1842 29.4779H15.6185C16.3631 29.4779 16.9665 28.8745 16.9665 28.1298V19.5586C16.9665 18.814 16.3631 18.2106 15.6185 18.2106H15.4713C15.9573 15.082 18.7426 12.6758 22.097 12.6758C25.4515 12.6758 28.2382 15.082 28.7228 18.2106H28.4523C27.7077 18.2106 27.1042 18.814 27.1042 19.5586V28.1298C27.1042 28.6173 27.3643 29.0439 27.7522 29.2802C26.8724 30.1348 25.4708 31.1113 23.4941 31.3907C23.2475 31.2073 22.9483 31.1083 22.641 31.1083H21.6586C20.8649 31.1083 20.2229 31.7518 20.2229 32.544C20.2229 33.3377 20.8664 33.9797 21.6586 33.9797H22.641C23.0661 33.9797 23.4481 33.794 23.7111 33.4997C27.4713 33.0092 29.613 30.548 30.4007 29.4392C32.211 29.1881 33.6096 27.6334 33.6096 25.7563V21.9337C33.6081 20.4474 32.7312 19.1663 31.4708 18.5703Z" fill="#0089FF" fill-opacity="0.04"/>
</g>
<defs>
<clipPath id="clip0_159_28778">
<rect width="24" height="24" fill="white" transform="translate(10 10)"/>
</clipPath>
</defs>
</svg>
