<svg width="44" height="44" viewBox="0 0 44 44" fill="none" xmlns="http://www.w3.org/2000/svg">
<g clip-path="url(#clip0_159_28803)">
<path d="M21.9856 10.5149C15.6344 10.5149 10.4856 15.6637 10.4856 22.0149C10.4856 28.3661 15.6344 33.5149 21.9856 33.5149C28.3365 33.5149 33.4856 28.3661 33.4856 22.0149C33.486 15.6637 28.3368 10.5149 21.9856 10.5149ZM24.0229 28.5261H19.9731V27.5583H24.0229V28.5261ZM24.0215 20.9289V26.3526H19.9548V20.9289H16.5623L21.9878 15.5034L27.4086 20.9289H24.0215Z" fill="#C3C6C9"/>
<path d="M21.9856 10.5149C15.6344 10.5149 10.4856 15.6637 10.4856 22.0149C10.4856 28.3661 15.6344 33.5149 21.9856 33.5149C28.3365 33.5149 33.4856 28.3661 33.4856 22.0149C33.486 15.6637 28.3368 10.5149 21.9856 10.5149ZM24.0229 28.5261H19.9731V27.5583H24.0229V28.5261ZM24.0215 20.9289V26.3526H19.9548V20.9289H16.5623L21.9878 15.5034L27.4086 20.9289H24.0215Z" fill="#0089FF" fill-opacity="0.04"/>
</g>
<defs>
<clipPath id="clip0_159_28803">
<rect width="24" height="24" fill="white" transform="translate(10 10)"/>
</clipPath>
</defs>
</svg>
