<svg width="44" height="44" viewBox="0 0 44 44" fill="none" xmlns="http://www.w3.org/2000/svg">
<g clip-path="url(#clip0_159_28786)">
<path d="M32.9895 20.0005C32.3886 19.1853 31.5447 18.5815 30.5792 18.2758C30.0124 14.5403 26.791 11.717 22.9327 11.717C19.9623 11.717 17.247 13.4472 15.9663 16.0869C12.6438 16.2758 10 19.0383 10 22.4068C10 25.114 11.7193 27.5215 14.2821 28.3974L14.3698 28.4257C14.4292 28.4446 14.4886 28.4568 14.548 28.4649C14.7787 28.5472 15.0149 28.616 15.2578 28.67V24.1423C15.2578 23.2516 16.0851 22.5228 17.0972 22.5228H32.6129C33.173 22.5228 33.6764 22.7469 34.0138 23.0977C34.0138 23.0627 34.0178 23.0289 34.0178 22.9952C34.0178 21.8656 33.6346 20.8265 32.9922 19.9992L32.9895 20.0005Z" fill="#C3C6C9"/>
<path d="M32.9895 20.0005C32.3886 19.1853 31.5447 18.5815 30.5792 18.2758C30.0124 14.5403 26.791 11.717 22.9327 11.717C19.9623 11.717 17.247 13.4472 15.9663 16.0869C12.6438 16.2758 10 19.0383 10 22.4068C10 25.114 11.7193 27.5215 14.2821 28.3974L14.3698 28.4257C14.4292 28.4446 14.4886 28.4568 14.548 28.4649C14.7787 28.5472 15.0149 28.616 15.2578 28.67V24.1423C15.2578 23.2516 16.0851 22.5228 17.0972 22.5228H32.6129C33.173 22.5228 33.6764 22.7469 34.0138 23.0977C34.0138 23.0627 34.0178 23.0289 34.0178 22.9952C34.0178 21.8656 33.6346 20.8265 32.9922 19.9992L32.9895 20.0005Z" fill="#0089FF" fill-opacity="0.04"/>
<path d="M32.1555 23.8752H18.4954C17.6047 23.8752 16.876 24.604 16.876 25.4947V30.6634C16.876 31.5541 17.6047 32.2829 18.4954 32.2829H32.1569C33.0476 32.2829 33.7763 31.5541 33.7763 30.6634V25.4947C33.7763 24.604 33.0476 23.8752 32.1569 23.8752H32.1555ZM28.4132 29.0723H26.6143C26.0556 29.0723 25.6021 28.6189 25.6021 28.0602C25.6021 27.5015 26.0556 27.048 26.6143 27.048H28.4132C28.9719 27.048 29.4254 27.5015 29.4254 28.0602C29.4254 28.6189 28.9719 29.0723 28.4132 29.0723Z" fill="#C3C6C9"/>
<path d="M32.1555 23.8752H18.4954C17.6047 23.8752 16.876 24.604 16.876 25.4947V30.6634C16.876 31.5541 17.6047 32.2829 18.4954 32.2829H32.1569C33.0476 32.2829 33.7763 31.5541 33.7763 30.6634V25.4947C33.7763 24.604 33.0476 23.8752 32.1569 23.8752H32.1555ZM28.4132 29.0723H26.6143C26.0556 29.0723 25.6021 28.6189 25.6021 28.0602C25.6021 27.5015 26.0556 27.048 26.6143 27.048H28.4132C28.9719 27.048 29.4254 27.5015 29.4254 28.0602C29.4254 28.6189 28.9719 29.0723 28.4132 29.0723Z" fill="#0089FF" fill-opacity="0.04"/>
</g>
<defs>
<clipPath id="clip0_159_28786">
<rect width="24" height="24" fill="white" transform="translate(10 10)"/>
</clipPath>
</defs>
</svg>
