<svg width="24" height="24" viewBox="0 0 24 24" fill="none" xmlns="http://www.w3.org/2000/svg">
<path d="M19.4365 2C20.4 2.00003 20.9132 2.09962 21.4482 2.38574C21.9484 2.65325 22.3468 3.05158 22.6143 3.55176C22.8836 4.05536 22.9878 4.53967 22.999 5.39844L23 5.56348V14.4365C23 15.4 22.9004 15.9132 22.6143 16.4482C22.3468 16.9484 21.9484 17.3468 21.4482 17.6143C20.9446 17.8836 20.4603 17.9878 19.6016 17.999L19.4365 18H13V19.5H18C18.5523 19.5 19 19.9477 19 20.5C19 21.0272 18.5916 21.4589 18.0742 21.4971L18 21.5H6C5.44772 21.5 5 21.0523 5 20.5C5 19.9728 5.40835 19.5411 5.92578 19.5029L6 19.5H11V18H4.56348C3.65664 18 3.14818 17.912 2.64551 17.6631L2.55176 17.6143C2.05158 17.3468 1.65325 16.9484 1.38574 16.4482C1.11641 15.9446 1.01224 15.4603 1.00098 14.6016L1 14.4365V5.56348C1.00003 4.59996 1.09962 4.08676 1.38574 3.55176C1.65325 3.05158 2.05158 2.65325 2.55176 2.38574C3.05536 2.11641 3.53967 2.01224 4.39844 2.00098L4.56348 2H19.4365ZM4.2373 4.00391L4.06445 4.0127C3.8622 4.02594 3.7328 4.05023 3.625 4.08984L3.57227 4.11133L3.49512 4.14941C3.36883 4.21695 3.26898 4.30619 3.19238 4.42188L3.14941 4.49512L3.11133 4.57227C3.06661 4.67445 3.03667 4.78946 3.01953 4.96875L3.0127 5.06445L3.00391 5.2373L3 5.44531V14.5547L3.00391 14.7627L3.0127 14.9355C3.02594 15.1378 3.05023 15.2672 3.08984 15.375L3.11133 15.4277L3.14941 15.5049C3.21695 15.6312 3.30619 15.731 3.42188 15.8076L3.49512 15.8506L3.57227 15.8887C3.67445 15.9334 3.78946 15.9633 3.96875 15.9805L4.06445 15.9873L4.2373 15.9961L4.44531 16H19.5547L19.7627 15.9961L19.9355 15.9873C20.1378 15.9741 20.2672 15.9498 20.375 15.9102L20.4277 15.8887L20.5049 15.8506C20.6312 15.783 20.731 15.6938 20.8076 15.5781L20.8506 15.5049L20.8887 15.4277C20.9334 15.3256 20.9633 15.2105 20.9805 15.0312L20.9873 14.9355L20.9961 14.7627L21 14.5547V5.44531L20.9961 5.2373L20.9873 5.06445C20.9741 4.8622 20.9498 4.7328 20.9102 4.625L20.8887 4.57227L20.8506 4.49512C20.783 4.36883 20.6938 4.26898 20.5781 4.19238L20.5049 4.14941L20.4277 4.11133C20.3256 4.06661 20.2105 4.03667 20.0312 4.01953L19.9355 4.0127L19.7627 4.00391L19.5547 4H4.44531L4.2373 4.00391ZM8 11.5C8.55228 11.5 9 11.9477 9 12.5C9 13.0272 8.59165 13.4589 8.07422 13.4971L8 13.5H6C5.44772 13.5 5 13.0523 5 12.5C5 11.9728 5.40835 11.5411 5.92578 11.5029L6 11.5H8Z" fill="#171C21"/>
<path d="M19.4365 2C20.4 2.00003 20.9132 2.09962 21.4482 2.38574C21.9484 2.65325 22.3468 3.05158 22.6143 3.55176C22.8836 4.05536 22.9878 4.53967 22.999 5.39844L23 5.56348V14.4365C23 15.4 22.9004 15.9132 22.6143 16.4482C22.3468 16.9484 21.9484 17.3468 21.4482 17.6143C20.9446 17.8836 20.4603 17.9878 19.6016 17.999L19.4365 18H13V19.5H18C18.5523 19.5 19 19.9477 19 20.5C19 21.0272 18.5916 21.4589 18.0742 21.4971L18 21.5H6C5.44772 21.5 5 21.0523 5 20.5C5 19.9728 5.40835 19.5411 5.92578 19.5029L6 19.5H11V18H4.56348C3.65664 18 3.14818 17.912 2.64551 17.6631L2.55176 17.6143C2.05158 17.3468 1.65325 16.9484 1.38574 16.4482C1.11641 15.9446 1.01224 15.4603 1.00098 14.6016L1 14.4365V5.56348C1.00003 4.59996 1.09962 4.08676 1.38574 3.55176C1.65325 3.05158 2.05158 2.65325 2.55176 2.38574C3.05536 2.11641 3.53967 2.01224 4.39844 2.00098L4.56348 2H19.4365ZM4.2373 4.00391L4.06445 4.0127C3.8622 4.02594 3.7328 4.05023 3.625 4.08984L3.57227 4.11133L3.49512 4.14941C3.36883 4.21695 3.26898 4.30619 3.19238 4.42188L3.14941 4.49512L3.11133 4.57227C3.06661 4.67445 3.03667 4.78946 3.01953 4.96875L3.0127 5.06445L3.00391 5.2373L3 5.44531V14.5547L3.00391 14.7627L3.0127 14.9355C3.02594 15.1378 3.05023 15.2672 3.08984 15.375L3.11133 15.4277L3.14941 15.5049C3.21695 15.6312 3.30619 15.731 3.42188 15.8076L3.49512 15.8506L3.57227 15.8887C3.67445 15.9334 3.78946 15.9633 3.96875 15.9805L4.06445 15.9873L4.2373 15.9961L4.44531 16H19.5547L19.7627 15.9961L19.9355 15.9873C20.1378 15.9741 20.2672 15.9498 20.375 15.9102L20.4277 15.8887L20.5049 15.8506C20.6312 15.783 20.731 15.6938 20.8076 15.5781L20.8506 15.5049L20.8887 15.4277C20.9334 15.3256 20.9633 15.2105 20.9805 15.0312L20.9873 14.9355L20.9961 14.7627L21 14.5547V5.44531L20.9961 5.2373L20.9873 5.06445C20.9741 4.8622 20.9498 4.7328 20.9102 4.625L20.8887 4.57227L20.8506 4.49512C20.783 4.36883 20.6938 4.26898 20.5781 4.19238L20.5049 4.14941L20.4277 4.11133C20.3256 4.06661 20.2105 4.03667 20.0312 4.01953L19.9355 4.0127L19.7627 4.00391L19.5547 4H4.44531L4.2373 4.00391ZM8 11.5C8.55228 11.5 9 11.9477 9 12.5C9 13.0272 8.59165 13.4589 8.07422 13.4971L8 13.5H6C5.44772 13.5 5 13.0523 5 12.5C5 11.9728 5.40835 11.5411 5.92578 11.5029L6 11.5H8Z" fill="url(#paint0_linear_421_273227)"/>
<defs>
<linearGradient id="paint0_linear_421_273227" x1="15.4341" y1="21.5" x2="28.8916" y2="-8.59463" gradientUnits="userSpaceOnUse">
<stop stop-color="#0089FF"/>
<stop offset="1" stop-color="#4646FC"/>
</linearGradient>
</defs>
</svg>
