<svg width="24" height="24" viewBox="0 0 24 24" fill="none" xmlns="http://www.w3.org/2000/svg">
<path d="M20.8574 5.42676C20.8572 4.93693 20.5119 4.50988 20.0244 4.40527L11.7334 2.72559L4.00684 4.39844C3.48095 4.52626 3.14376 4.97802 3.14355 5.42676V14.9414C3.14355 16.0531 3.76508 17.0909 4.76367 17.6338L4.76465 17.6348L11.2217 21.1484L11.2305 21.1543L11.2393 21.1592C11.5249 21.3224 11.9274 21.3333 12.2646 21.1494L12.2803 21.1406L19.2314 17.665C20.2478 17.0867 20.8574 16.0678 20.8574 14.9697V5.42676ZM22.8574 14.9697C22.8574 16.8398 21.8139 18.5039 20.207 19.4121L20.1846 19.4248L20.1621 19.4355L13.1904 22.9219L13.1895 22.9209C12.2753 23.4055 11.1508 23.4119 10.2471 22.8955V22.8945L3.80859 19.3916C2.17895 18.5058 1.14355 16.8009 1.14355 14.9414V5.42676C1.14375 3.99038 2.17717 2.78468 3.53613 2.45508L3.54883 2.45215L3.56055 2.4502L11.4746 0.735352L11.5791 0.712891H11.8721L11.9707 0.732422L20.4277 2.44727L20.4365 2.44922C21.8331 2.74546 22.8572 3.97491 22.8574 5.42676V14.9697Z" fill="#171C21"/>
<path d="M20.8574 5.42676C20.8572 4.93693 20.5119 4.50988 20.0244 4.40527L11.7334 2.72559L4.00684 4.39844C3.48095 4.52626 3.14376 4.97802 3.14355 5.42676V14.9414C3.14355 16.0531 3.76508 17.0909 4.76367 17.6338L4.76465 17.6348L11.2217 21.1484L11.2305 21.1543L11.2393 21.1592C11.5249 21.3224 11.9274 21.3333 12.2646 21.1494L12.2803 21.1406L19.2314 17.665C20.2478 17.0867 20.8574 16.0678 20.8574 14.9697V5.42676ZM22.8574 14.9697C22.8574 16.8398 21.8139 18.5039 20.207 19.4121L20.1846 19.4248L20.1621 19.4355L13.1904 22.9219L13.1895 22.9209C12.2753 23.4055 11.1508 23.4119 10.2471 22.8955V22.8945L3.80859 19.3916C2.17895 18.5058 1.14355 16.8009 1.14355 14.9414V5.42676C1.14375 3.99038 2.17717 2.78468 3.53613 2.45508L3.54883 2.45215L3.56055 2.4502L11.4746 0.735352L11.5791 0.712891H11.8721L11.9707 0.732422L20.4277 2.44727L20.4365 2.44922C21.8331 2.74546 22.8572 3.97491 22.8574 5.42676V14.9697Z" fill="url(#paint0_linear_421_273257)"/>
<path d="M13.0833 8.66906L12.6993 10.3318H11.756L11.538 11.2471H12.4805L12.0846 12.9328H18.4709C18.4879 12.9294 19.0728 12.7813 19.2065 12.1615C19.3981 11.259 19.4534 11.1134 19.4534 11.1134C19.4602 11.0955 19.7173 10.4621 19.0149 10.3548H17.0448C17.0278 10.3437 16.4165 9.96318 17.3062 9.57239C18.4045 9.56047 19.7991 9.55962 19.8212 9.55962L20 8.66906H16.2275C16.2275 8.66906 15.4902 8.76527 15.3233 9.51194L15.1062 10.4757C15.1062 10.4757 14.7912 11.2096 15.7056 11.2096C16.786 11.2224 17.4399 11.2096 17.456 11.2096C17.456 11.2096 18.1661 11.534 17.2917 12.0397C16.0248 12.0159 14.3382 12.0278 14.3255 12.0278L15.1062 8.6665H13.0824V8.66906H13.0833ZM5.6719 8.6665C4.79156 8.70056 4.67748 9.43531 4.67577 9.44808C4.67577 9.44808 4.26455 11.1475 4.05851 12.1819C3.79969 12.7975 4.48336 12.9294 4.48336 12.9294H8.26525L8.41765 12.027C8.41765 12.027 7.66587 12.0406 6.73615 12.0031C6.08057 11.9197 6.24404 11.3535 6.24404 11.3535C6.24659 11.3433 6.39559 10.7941 6.53862 10.1616C6.66037 9.61411 7.28274 9.56047 7.29466 9.55876L9.46997 9.58431L8.67817 12.9311H10.7011L11.687 8.66906C11.687 8.66906 6.97028 8.67927 5.67105 8.6665H5.6719Z" fill="#171C21"/>
<path d="M13.0833 8.66906L12.6993 10.3318H11.756L11.538 11.2471H12.4805L12.0846 12.9328H18.4709C18.4879 12.9294 19.0728 12.7813 19.2065 12.1615C19.3981 11.259 19.4534 11.1134 19.4534 11.1134C19.4602 11.0955 19.7173 10.4621 19.0149 10.3548H17.0448C17.0278 10.3437 16.4165 9.96318 17.3062 9.57239C18.4045 9.56047 19.7991 9.55962 19.8212 9.55962L20 8.66906H16.2275C16.2275 8.66906 15.4902 8.76527 15.3233 9.51194L15.1062 10.4757C15.1062 10.4757 14.7912 11.2096 15.7056 11.2096C16.786 11.2224 17.4399 11.2096 17.456 11.2096C17.456 11.2096 18.1661 11.534 17.2917 12.0397C16.0248 12.0159 14.3382 12.0278 14.3255 12.0278L15.1062 8.6665H13.0824V8.66906H13.0833ZM5.6719 8.6665C4.79156 8.70056 4.67748 9.43531 4.67577 9.44808C4.67577 9.44808 4.26455 11.1475 4.05851 12.1819C3.79969 12.7975 4.48336 12.9294 4.48336 12.9294H8.26525L8.41765 12.027C8.41765 12.027 7.66587 12.0406 6.73615 12.0031C6.08057 11.9197 6.24404 11.3535 6.24404 11.3535C6.24659 11.3433 6.39559 10.7941 6.53862 10.1616C6.66037 9.61411 7.28274 9.56047 7.29466 9.55876L9.46997 9.58431L8.67817 12.9311H10.7011L11.687 8.66906C11.687 8.66906 6.97028 8.67927 5.67105 8.6665H5.6719Z" fill="url(#paint1_linear_421_273257)"/>
<defs>
<linearGradient id="paint0_linear_421_273257" x1="15.39" y1="23.2836" x2="32.582" y2="-9.4999" gradientUnits="userSpaceOnUse">
<stop stop-color="#0089FF"/>
<stop offset="1" stop-color="#4646FC"/>
</linearGradient>
<linearGradient id="paint1_linear_421_273257" x1="14.4976" y1="12.9328" x2="15.5415" y2="5.17237" gradientUnits="userSpaceOnUse">
<stop stop-color="#0089FF"/>
<stop offset="1" stop-color="#4646FC"/>
</linearGradient>
</defs>
</svg>
