<svg width="24" height="24" viewBox="0 0 24 24" fill="none" xmlns="http://www.w3.org/2000/svg">
<path fill-rule="evenodd" clip-rule="evenodd" d="M14.8545 2.09961C15.5705 2.09963 16.2573 2.38433 16.7637 2.89062L21.1094 7.23633C21.6157 7.74265 21.9004 8.42948 21.9004 9.14551V19.2002C21.9003 20.6912 20.6912 21.9003 19.2002 21.9004H4.7998C3.30879 21.9003 2.09972 20.6912 2.09961 19.2002V4.7998C2.09971 3.30879 3.30879 2.09971 4.7998 2.09961H14.8545ZM4.7998 3.90039C4.3029 3.9005 3.9005 4.3029 3.90039 4.7998V19.2002C3.9005 19.6971 4.3029 20.0995 4.7998 20.0996H6.125V14.875C6.125 13.9085 6.9085 13.125 7.875 13.125H16.125C17.0915 13.125 17.875 13.9085 17.875 14.875V20.0996H19.2002C19.6971 20.0995 20.0995 19.6971 20.0996 19.2002V9.14551C20.0996 8.90684 20.0047 8.67755 19.8359 8.50879L15.4912 4.16406C15.3224 3.9953 15.0932 3.90041 14.8545 3.90039H7.99512C7.99836 3.93315 8 3.96638 8 4V7H15C15.5523 7 16 7.44772 16 8C16 8.55228 15.5523 9 15 9H8C6.89543 9 6 8.10457 6 7V4C6 3.96638 6.00164 3.93315 6.00488 3.90039H4.7998ZM7.875 20.0996H16.125V14.875H7.875V20.0996Z" fill="#171C21"/>
<path fill-rule="evenodd" clip-rule="evenodd" d="M14.8545 2.09961C15.5705 2.09963 16.2573 2.38433 16.7637 2.89062L21.1094 7.23633C21.6157 7.74265 21.9004 8.42948 21.9004 9.14551V19.2002C21.9003 20.6912 20.6912 21.9003 19.2002 21.9004H4.7998C3.30879 21.9003 2.09972 20.6912 2.09961 19.2002V4.7998C2.09971 3.30879 3.30879 2.09971 4.7998 2.09961H14.8545ZM4.7998 3.90039C4.3029 3.9005 3.9005 4.3029 3.90039 4.7998V19.2002C3.9005 19.6971 4.3029 20.0995 4.7998 20.0996H6.125V14.875C6.125 13.9085 6.9085 13.125 7.875 13.125H16.125C17.0915 13.125 17.875 13.9085 17.875 14.875V20.0996H19.2002C19.6971 20.0995 20.0995 19.6971 20.0996 19.2002V9.14551C20.0996 8.90684 20.0047 8.67755 19.8359 8.50879L15.4912 4.16406C15.3224 3.9953 15.0932 3.90041 14.8545 3.90039H7.99512C7.99836 3.93315 8 3.96638 8 4V7H15C15.5523 7 16 7.44772 16 8C16 8.55228 15.5523 9 15 9H8C6.89543 9 6 8.10457 6 7V4C6 3.96638 6.00164 3.93315 6.00488 3.90039H4.7998ZM7.875 20.0996H16.125V14.875H7.875V20.0996Z" fill="url(#paint0_linear_421_273242)"/>
<defs>
<linearGradient id="paint0_linear_421_273242" x1="15.0909" y1="21.9004" x2="29.8374" y2="-7.32944" gradientUnits="userSpaceOnUse">
<stop stop-color="#0089FF"/>
<stop offset="1" stop-color="#4646FC"/>
</linearGradient>
</defs>
</svg>
