<svg width="20" height="20" viewBox="0 0 20 20" fill="none" xmlns="http://www.w3.org/2000/svg">
<path d="M9.99998 2.91675C12.3398 2.91675 14.5629 3.87596 16.2337 5.20516L16.4485 5.38094C18.1057 6.77084 19.1666 8.52007 19.1666 10.0001C19.1666 11.4801 18.1057 13.2293 16.4485 14.6192L16.2337 14.795C14.5629 16.1242 12.3398 17.0834 9.99998 17.0834C7.66012 17.0834 5.43703 16.1242 3.76626 14.795L3.55141 14.6192C1.89423 13.2293 0.833313 11.4801 0.833313 10.0001C0.833313 8.52007 1.89423 6.77084 3.55141 5.38094L3.76626 5.20516C5.43703 3.87596 7.66012 2.91675 9.99998 2.91675ZM9.99998 4.58341C6.33028 4.58341 2.49998 7.75389 2.49998 10.0001C2.49998 12.2463 6.33028 15.4167 9.99998 15.4167C13.6697 15.4167 17.5 12.2463 17.5 10.0001C17.5 7.75389 13.6697 4.58341 9.99998 4.58341ZM9.99998 6.66675C11.8409 6.66675 13.3333 8.15913 13.3333 10.0001C13.3333 11.841 11.8409 13.3334 9.99998 13.3334C8.15903 13.3334 6.66665 11.841 6.66665 10.0001C6.66665 8.15913 8.15903 6.66675 9.99998 6.66675ZM9.99998 8.33341C9.0795 8.33341 8.33331 9.07961 8.33331 10.0001C8.33331 10.9206 9.0795 11.6667 9.99998 11.6667C10.9205 11.6667 11.6666 10.9206 11.6666 10.0001C11.6666 9.07961 10.9205 8.33341 9.99998 8.33341Z" fill="#9FA2A6"/>
</svg>
