<svg width="20" height="20" viewBox="0 0 20 20" fill="none" xmlns="http://www.w3.org/2000/svg">
<path fill-rule="evenodd" clip-rule="evenodd" d="M13.3934 1.25049L13.6316 1.25626C14.0298 1.27217 14.3279 1.31899 14.6144 1.41923L14.7215 1.45937L14.8342 1.50899C14.8751 1.52833 14.9155 1.54881 14.9569 1.57095C15.339 1.77529 15.6499 2.07139 15.8708 2.44038L15.9287 2.54281L15.9621 2.60727L16.0013 2.6888L16.0507 2.80305C16.1567 3.06923 16.2135 3.35614 16.2372 3.74654L16.2438 3.88062L16.2491 4.09657L16.2498 15.7847L16.2489 15.9141L16.2434 16.1316C16.2275 16.5298 16.1807 16.8279 16.0805 17.1144L16.0403 17.2215L15.9907 17.3342C15.9714 17.3751 15.9509 17.4155 15.9287 17.4569C15.7244 17.839 15.4283 18.1499 15.0593 18.3708L14.9569 18.4287L14.8924 18.4621L14.8109 18.5013L14.6966 18.5507C14.4305 18.6567 14.1436 18.7135 13.7532 18.7372L13.6191 18.7438L13.4031 18.7491L6.71504 18.7498L6.58555 18.7489L6.3681 18.7434C5.96993 18.7275 5.67178 18.6807 5.38529 18.5805L5.27824 18.5403L5.16549 18.4907C5.12464 18.4714 5.08421 18.4509 5.04281 18.4287C4.66072 18.2244 4.34981 17.9283 4.12894 17.5593L4.07095 17.4569L4.03759 17.3924L3.99839 17.3109L3.94902 17.1966C3.84297 16.9305 3.78618 16.6436 3.76253 16.2532L3.75585 16.1191L3.75049 15.8934L3.75075 4.08555L3.75626 3.8681C3.77217 3.46993 3.81899 3.17178 3.91923 2.88529L3.95937 2.77824L4.00899 2.66549C4.02833 2.62464 4.04881 2.58421 4.07095 2.54281C4.27529 2.16072 4.57139 1.84981 4.94038 1.62894L5.04281 1.57095L5.10727 1.53759L5.1888 1.49839L5.30305 1.44902C5.56923 1.34297 5.85614 1.28618 6.24654 1.26253L6.38062 1.25585L6.60631 1.25049H13.3934ZM13.3882 2.9169H6.62707L6.43466 2.9216L6.28583 2.92978L6.16555 2.94089C6.07991 2.95082 6.01868 2.96309 5.97466 2.97661L5.94475 2.98696L5.87863 3.01538L5.82881 3.04063C5.72349 3.09696 5.64052 3.17176 5.57667 3.26827L5.54064 3.32881L5.49732 3.41994C5.46206 3.50842 5.43829 3.63013 5.42605 3.83944L5.422 3.92214L5.41715 4.10631L5.4169 15.8726L5.4216 16.065L5.42978 16.2139L5.44089 16.3341C5.45082 16.4198 5.46309 16.481 5.47661 16.525L5.48696 16.5549L5.51538 16.6211L5.54064 16.6709C5.59696 16.7762 5.67177 16.8592 5.76827 16.923L5.82881 16.9591L5.91994 17.0024C6.00842 17.0376 6.13013 17.0614 6.33944 17.0736L6.42214 17.0777L6.61102 17.0826L6.71975 17.0832L13.3726 17.0828L13.565 17.0781L13.7139 17.0699L13.8341 17.0588C13.9198 17.0489 13.981 17.0366 14.025 17.0231L14.0549 17.0127L14.1211 16.9843L14.1709 16.9591C14.2762 16.9027 14.3592 16.8279 14.423 16.7314L14.4591 16.6709L14.5024 16.5798C14.5376 16.4913 14.5614 16.3696 14.5736 16.1603L14.5777 16.0776L14.5826 15.8887L14.5832 15.7799L14.5828 4.12707L14.5781 3.93466L14.5699 3.78583L14.5588 3.66555C14.5489 3.57991 14.5366 3.51868 14.5231 3.47466L14.5127 3.44475L14.4843 3.37863L14.4591 3.32881C14.4027 3.22349 14.3279 3.14052 14.2314 3.07667L14.1709 3.04063L14.0798 2.99732C13.9913 2.96206 13.8696 2.93829 13.6603 2.92605L13.5776 2.922L13.3882 2.9169ZM9.99985 13.3332C10.6902 13.3332 11.2498 13.8928 11.2498 14.5832C11.2498 15.2735 10.6902 15.8332 9.99985 15.8332C9.30949 15.8332 8.74985 15.2735 8.74985 14.5832C8.74985 13.8928 9.30949 13.3332 9.99985 13.3332Z" fill="#C3C6C9"/>
<path fill-rule="evenodd" clip-rule="evenodd" d="M13.3934 1.25049L13.6316 1.25626C14.0298 1.27217 14.3279 1.31899 14.6144 1.41923L14.7215 1.45937L14.8342 1.50899C14.8751 1.52833 14.9155 1.54881 14.9569 1.57095C15.339 1.77529 15.6499 2.07139 15.8708 2.44038L15.9287 2.54281L15.9621 2.60727L16.0013 2.6888L16.0507 2.80305C16.1567 3.06923 16.2135 3.35614 16.2372 3.74654L16.2438 3.88062L16.2491 4.09657L16.2498 15.7847L16.2489 15.9141L16.2434 16.1316C16.2275 16.5298 16.1807 16.8279 16.0805 17.1144L16.0403 17.2215L15.9907 17.3342C15.9714 17.3751 15.9509 17.4155 15.9287 17.4569C15.7244 17.839 15.4283 18.1499 15.0593 18.3708L14.9569 18.4287L14.8924 18.4621L14.8109 18.5013L14.6966 18.5507C14.4305 18.6567 14.1436 18.7135 13.7532 18.7372L13.6191 18.7438L13.4031 18.7491L6.71504 18.7498L6.58555 18.7489L6.3681 18.7434C5.96993 18.7275 5.67178 18.6807 5.38529 18.5805L5.27824 18.5403L5.16549 18.4907C5.12464 18.4714 5.08421 18.4509 5.04281 18.4287C4.66072 18.2244 4.34981 17.9283 4.12894 17.5593L4.07095 17.4569L4.03759 17.3924L3.99839 17.3109L3.94902 17.1966C3.84297 16.9305 3.78618 16.6436 3.76253 16.2532L3.75585 16.1191L3.75049 15.8934L3.75075 4.08555L3.75626 3.8681C3.77217 3.46993 3.81899 3.17178 3.91923 2.88529L3.95937 2.77824L4.00899 2.66549C4.02833 2.62464 4.04881 2.58421 4.07095 2.54281C4.27529 2.16072 4.57139 1.84981 4.94038 1.62894L5.04281 1.57095L5.10727 1.53759L5.1888 1.49839L5.30305 1.44902C5.56923 1.34297 5.85614 1.28618 6.24654 1.26253L6.38062 1.25585L6.60631 1.25049H13.3934ZM13.3882 2.9169H6.62707L6.43466 2.9216L6.28583 2.92978L6.16555 2.94089C6.07991 2.95082 6.01868 2.96309 5.97466 2.97661L5.94475 2.98696L5.87863 3.01538L5.82881 3.04063C5.72349 3.09696 5.64052 3.17176 5.57667 3.26827L5.54064 3.32881L5.49732 3.41994C5.46206 3.50842 5.43829 3.63013 5.42605 3.83944L5.422 3.92214L5.41715 4.10631L5.4169 15.8726L5.4216 16.065L5.42978 16.2139L5.44089 16.3341C5.45082 16.4198 5.46309 16.481 5.47661 16.525L5.48696 16.5549L5.51538 16.6211L5.54064 16.6709C5.59696 16.7762 5.67177 16.8592 5.76827 16.923L5.82881 16.9591L5.91994 17.0024C6.00842 17.0376 6.13013 17.0614 6.33944 17.0736L6.42214 17.0777L6.61102 17.0826L6.71975 17.0832L13.3726 17.0828L13.565 17.0781L13.7139 17.0699L13.8341 17.0588C13.9198 17.0489 13.981 17.0366 14.025 17.0231L14.0549 17.0127L14.1211 16.9843L14.1709 16.9591C14.2762 16.9027 14.3592 16.8279 14.423 16.7314L14.4591 16.6709L14.5024 16.5798C14.5376 16.4913 14.5614 16.3696 14.5736 16.1603L14.5777 16.0776L14.5826 15.8887L14.5832 15.7799L14.5828 4.12707L14.5781 3.93466L14.5699 3.78583L14.5588 3.66555C14.5489 3.57991 14.5366 3.51868 14.5231 3.47466L14.5127 3.44475L14.4843 3.37863L14.4591 3.32881C14.4027 3.22349 14.3279 3.14052 14.2314 3.07667L14.1709 3.04063L14.0798 2.99732C13.9913 2.96206 13.8696 2.93829 13.6603 2.92605L13.5776 2.922L13.3882 2.9169ZM9.99985 13.3332C10.6902 13.3332 11.2498 13.8928 11.2498 14.5832C11.2498 15.2735 10.6902 15.8332 9.99985 15.8332C9.30949 15.8332 8.74985 15.2735 8.74985 14.5832C8.74985 13.8928 9.30949 13.3332 9.99985 13.3332Z" fill="#0089FF" fill-opacity="0.04"/>
</svg>
